<svg width="746" height="773" viewBox="0 0 746 773" fill="none" xmlns="http://www.w3.org/2000/svg">
<rect x="521" width="95.115" height="95.115" rx="20" fill="#428277"/>
<g clip-path="url(#clip0_2214_4362)">
<path d="M588.324 47.5138C588.324 53.3801 591.512 58.4969 596.248 61.2371V63.3621H588.324V79.216C597.082 79.216 604.178 72.1195 604.178 63.3621V31.6655H588.324V47.5194V47.5138Z" fill="white"/>
<path d="M540.77 31.6653C540.77 37.5315 543.957 42.6483 548.694 45.3885V47.5136H532.846V63.3675H540.77C549.527 63.3675 556.624 56.271 556.624 47.5136V31.6597H540.77V31.6653Z" fill="white"/>
<path d="M604.178 15.812H588.324V23.7362H604.178V15.812Z" fill="white"/>
<path d="M564.547 15.812C564.547 21.6782 567.734 26.7951 572.471 29.5353V31.6603H564.547V63.3625C573.304 63.3625 580.401 56.266 580.401 47.5086V15.812H564.547Z" fill="white"/>
</g>
<g clip-path="url(#clip1_2214_4362)">
<rect y="123" width="332" height="623" rx="24" fill="#FAFAF9"/>
<path d="M43.4217 159.01C46.3282 159.01 48.6845 161.366 48.6845 164.273C48.6845 165.232 48.4278 166.131 47.9796 166.905L53.9473 166.904V169.535H51.3159V182.692C51.3159 183.419 50.7269 184.008 50.0002 184.008H28.949C28.2224 184.008 27.6333 183.419 27.6333 182.692V169.535H25.002V166.904L30.9697 166.905C30.5214 166.131 30.2647 165.232 30.2647 164.273C30.2647 161.366 32.621 159.01 35.5275 159.01C37.1001 159.01 38.5116 159.699 39.4758 160.793C40.4377 159.699 41.8492 159.01 43.4217 159.01ZM38.1589 169.535H30.2647V181.377H38.1589V169.535ZM48.6845 169.535H40.7903V181.377H48.6845V169.535ZM35.5275 161.641C34.0742 161.641 32.8961 162.819 32.8961 164.273C32.8961 165.66 33.9696 166.796 35.3311 166.897L35.5275 166.904H38.1589V164.273C38.1589 162.955 37.1902 161.863 35.9259 161.671L35.7239 161.648L35.5275 161.641ZM43.4217 161.641C42.0345 161.641 40.898 162.715 40.7976 164.076L40.7903 164.273V166.904H43.4217C44.8089 166.904 45.9454 165.83 46.0459 164.469L46.0531 164.273C46.0531 162.819 44.8751 161.641 43.4217 161.641Z" fill="#2F7266"/>
<path d="M84.2051 185.32C84.2051 179.507 88.9175 174.794 94.7307 174.794C100.544 174.794 105.256 179.507 105.256 185.32H102.625C102.625 180.96 99.0905 177.426 94.7307 177.426C90.3708 177.426 86.8365 180.96 86.8365 185.32H84.2051ZM94.7307 173.479C90.3691 173.479 86.8365 169.946 86.8365 165.585C86.8365 161.223 90.3691 157.69 94.7307 157.69C99.0922 157.69 102.625 161.223 102.625 165.585C102.625 169.946 99.0922 173.479 94.7307 173.479ZM94.7307 170.847C97.6383 170.847 99.9934 168.492 99.9934 165.585C99.9934 162.677 97.6383 160.322 94.7307 160.322C91.823 160.322 89.4679 162.677 89.4679 165.585C89.4679 168.492 91.823 170.847 94.7307 170.847Z" fill="#2F7266"/>
<g clip-path="url(#clip2_2214_4362)">
<path d="M294.873 171.998C294.873 176.38 297.254 180.202 300.792 182.249V183.836H294.873V195.678C301.415 195.678 306.715 190.377 306.715 183.836V160.16H294.873V172.002V171.998Z" fill="#428277"/>
<path d="M259.351 160.16C259.351 164.542 261.732 168.364 265.27 170.411V171.998H253.432V183.84H259.351C265.892 183.84 271.193 178.54 271.193 171.998V160.156H259.351V160.16Z" fill="#428277"/>
<path d="M306.715 148.317H294.873V154.236H306.715V148.317Z" fill="#428277"/>
<path d="M277.111 148.317C277.111 152.699 279.492 156.521 283.03 158.568V160.156H277.111V183.836C283.653 183.836 288.954 178.535 288.954 171.994V148.317H277.111Z" fill="#428277"/>
</g>
<rect x="12" y="221" width="308" height="230.312" rx="16" fill="#0A0F29" fill-opacity="0.04"/>
<path d="M289.289 473.543C289.289 470.102 292.079 467.312 295.52 467.312H313.769C317.21 467.312 320 470.102 320 473.543V473.543C320 476.985 317.21 479.774 313.769 479.774H295.52C292.079 479.774 289.289 476.985 289.289 473.543V473.543Z" fill="#A5CF4C"/>
<path d="M173.363 520.774C172.098 520.774 171.145 520.407 170.504 519.673C170.395 521.47 169.762 522.876 168.605 523.892C167.449 524.915 165.789 525.427 163.625 525.427C161.039 525.427 159.117 524.782 157.859 523.493C156.609 522.212 155.992 520.353 156.008 517.915C156.008 516.868 156.129 515.661 156.371 514.294H159.875C159.68 515.435 159.582 516.313 159.582 516.931C159.566 518.321 159.883 519.372 160.531 520.083C161.18 520.786 162.258 521.138 163.766 521.138C165.375 521.138 166.539 520.864 167.258 520.317C167.984 519.763 168.348 518.907 168.348 517.751V502.704H172.191V514.435C172.191 515.286 172.332 515.868 172.613 516.181C172.902 516.493 173.418 516.649 174.16 516.649V519.978L173.363 520.774ZM181.566 504.087C181.91 504.423 182.082 504.849 182.082 505.364C182.082 505.88 181.91 506.306 181.566 506.642C181.223 506.978 180.793 507.146 180.277 507.146C179.77 507.146 179.344 506.978 179 506.642C178.656 506.306 178.484 505.88 178.484 505.364C178.484 504.849 178.656 504.423 179 504.087C179.344 503.743 179.77 503.571 180.277 503.571C180.793 503.571 181.223 503.743 181.566 504.087ZM174.898 520.774H173.363V517.364L174.16 516.649H175.602C175.133 515.853 174.898 515.005 174.898 514.106C174.898 512.567 175.434 511.251 176.504 510.157C177.582 509.056 178.879 508.505 180.395 508.505C181.387 508.505 182.289 508.763 183.102 509.278C183.922 509.786 184.559 510.466 185.012 511.317C185.473 512.169 185.703 513.091 185.703 514.083C185.703 514.958 185.414 515.813 184.836 516.649H186.5V519.978L185.703 520.774H185.012C183.184 520.774 181.512 520.501 179.996 519.954C178.355 520.501 176.656 520.774 174.898 520.774ZM177.688 514.271C177.688 514.739 177.938 515.149 178.438 515.501C178.945 515.845 179.672 516.114 180.617 516.31C182.156 515.927 182.926 515.294 182.926 514.411C182.926 513.911 182.668 513.489 182.152 513.146C181.637 512.802 180.988 512.634 180.207 512.642C179.449 512.642 178.84 512.798 178.379 513.11C177.918 513.423 177.688 513.81 177.688 514.271ZM192.676 520.774H185.691V517.435L186.488 516.649H187.707C187.848 516.36 188.074 515.942 188.387 515.396V502.704H192.219V510.813C193.805 509.595 195.535 508.985 197.41 508.985C199.113 508.985 200.492 509.54 201.547 510.649C202.609 511.751 203.141 513.11 203.141 514.728C203.141 518.759 199.652 520.774 192.676 520.774ZM197.316 513.146C194.801 513.146 192.512 514.313 190.449 516.649H193.496C195.246 516.649 196.613 516.591 197.598 516.474C198.59 516.356 199.297 516.173 199.719 515.923C200.148 515.665 200.363 515.313 200.363 514.868C200.363 514.399 200.082 513.997 199.52 513.661C198.965 513.317 198.23 513.146 197.316 513.146ZM213.535 528.579H209.691V521.044C209.691 519.278 210.055 517.919 210.781 516.966C211.508 516.005 212.633 515.411 214.156 515.185C214.289 513.591 214.836 512.306 215.797 511.329C216.766 510.345 217.988 509.853 219.465 509.853C220.801 509.853 221.879 510.149 222.699 510.743C223.527 511.337 224.273 512.353 224.938 513.79L225.148 514.247C225.586 515.2 225.961 515.841 226.273 516.169C226.594 516.489 227.035 516.649 227.598 516.649V519.978L226.812 520.774C225.938 520.774 225.211 520.579 224.633 520.188C224.055 519.79 223.523 519.106 223.039 518.138C222.758 519.153 222.285 519.896 221.621 520.364C220.957 520.833 220.078 521.067 218.984 521.067C217.266 521.067 215.969 520.466 215.094 519.263C214.5 519.317 214.09 519.489 213.863 519.778C213.645 520.06 213.535 520.528 213.535 521.185V528.579ZM216.781 515.618C216.781 516.04 216.961 516.364 217.32 516.591C217.688 516.817 218.195 516.931 218.844 516.931C220.555 516.931 221.648 516.669 222.125 516.146C221.445 514.653 220.406 513.907 219.008 513.907C218.32 513.907 217.777 514.071 217.379 514.399C216.98 514.728 216.781 515.134 216.781 515.618ZM235.25 519.978L234.465 520.774C233.293 520.774 232.355 520.521 231.652 520.013C230.949 519.497 230.508 518.751 230.328 517.774C230.195 518.751 229.828 519.497 229.227 520.013C228.625 520.521 227.816 520.774 226.801 520.774V517.364L227.598 516.649C228.363 516.649 228.898 516.481 229.203 516.146C229.508 515.802 229.66 515.231 229.66 514.435V511.774H233.234V514.435C233.234 515.286 233.379 515.868 233.668 516.181C233.957 516.493 234.484 516.649 235.25 516.649V519.978ZM234.031 523.153C234.32 523.442 234.465 523.802 234.465 524.231C234.465 524.661 234.32 525.021 234.031 525.31C233.742 525.599 233.383 525.743 232.953 525.743C232.523 525.743 232.164 525.599 231.875 525.31C231.586 525.021 231.441 524.661 231.441 524.231C231.441 523.802 231.586 523.442 231.875 523.153C232.164 522.864 232.523 522.72 232.953 522.72C233.383 522.72 233.742 522.864 234.031 523.153ZM230.434 523.153C230.723 523.442 230.867 523.802 230.867 524.231C230.867 524.661 230.723 525.021 230.434 525.31C230.152 525.599 229.793 525.743 229.355 525.743C228.918 525.743 228.555 525.599 228.266 525.31C227.977 525.021 227.832 524.661 227.832 524.231C227.832 523.802 227.977 523.442 228.266 523.153C228.555 522.864 228.918 522.72 229.355 522.72C229.793 522.72 230.152 522.864 230.434 523.153ZM243.02 519.978L242.223 520.774C239.73 520.774 238.297 519.743 237.922 517.681C237.789 518.681 237.426 519.446 236.832 519.978C236.246 520.509 235.457 520.774 234.465 520.774V517.364L235.262 516.649C235.98 516.649 236.484 516.481 236.773 516.146C237.062 515.802 237.207 515.231 237.207 514.435V502.704H241.051V514.435C241.051 515.333 241.18 515.927 241.438 516.216C241.703 516.505 242.23 516.649 243.02 516.649V519.978ZM244.941 520.774H242.223V517.364L243.02 516.649H246.711C246.258 516.165 245.891 515.747 245.609 515.396L244.555 514.083V510.263C246.727 509.716 248.773 509.442 250.695 509.442C252.812 509.442 254.34 509.724 255.277 510.286C256.215 510.849 256.688 511.802 256.695 513.146C256.719 514.356 256.266 515.524 255.336 516.649H258.23V519.978L257.445 520.774H256.848C254.535 520.774 252.551 520.415 250.895 519.696C249.004 520.415 247.02 520.774 244.941 520.774ZM250.695 513.263C249.609 513.263 248.516 513.333 247.414 513.474C248.078 514.255 248.695 514.864 249.266 515.302C249.836 515.731 250.473 516.052 251.176 516.263C252.121 516.06 252.848 515.794 253.355 515.466C253.871 515.138 254.121 514.778 254.105 514.388C254.098 513.981 253.824 513.692 253.285 513.521C252.754 513.349 251.891 513.263 250.695 513.263ZM264.828 507.239C264.828 507.669 264.684 508.024 264.395 508.306C264.113 508.587 263.754 508.728 263.316 508.728C262.887 508.728 262.527 508.587 262.238 508.306C261.949 508.017 261.805 507.661 261.805 507.239C261.805 506.794 261.945 506.427 262.227 506.138C262.516 505.849 262.879 505.704 263.316 505.704C263.762 505.704 264.125 505.849 264.406 506.138C264.688 506.427 264.828 506.794 264.828 507.239ZM261.254 507.239C261.254 507.661 261.109 508.017 260.82 508.306C260.531 508.587 260.172 508.728 259.742 508.728C259.297 508.728 258.93 508.587 258.641 508.306C258.352 508.017 258.207 507.661 258.207 507.239C258.207 506.794 258.352 506.427 258.641 506.138C258.93 505.849 259.297 505.704 259.742 505.704C260.18 505.704 260.539 505.849 260.82 506.138C261.109 506.427 261.254 506.794 261.254 507.239ZM258.57 520.774H257.434V517.364L258.23 516.649C259.004 516.649 259.535 516.466 259.824 516.099C260.121 515.724 260.27 515.083 260.27 514.177C260.27 513.31 260.156 511.95 259.93 510.099H263.539C263.742 512.005 263.844 513.579 263.844 514.821C263.844 516.751 263.395 518.228 262.496 519.251C261.598 520.267 260.289 520.774 258.57 520.774ZM280.121 503.442C280.121 503.95 279.953 504.376 279.617 504.72C279.281 505.056 278.855 505.224 278.34 505.224C277.824 505.224 277.395 505.056 277.051 504.72C276.707 504.376 276.535 503.95 276.535 503.442C276.535 502.927 276.707 502.501 277.051 502.165C277.395 501.821 277.824 501.649 278.34 501.649C278.855 501.649 279.281 501.821 279.617 502.165C279.953 502.501 280.121 502.927 280.121 503.442ZM275.984 503.442C275.984 503.95 275.812 504.376 275.469 504.72C275.133 505.056 274.707 505.224 274.191 505.224C273.684 505.224 273.254 505.052 272.902 504.708C272.559 504.364 272.387 503.942 272.387 503.442C272.387 502.927 272.559 502.501 272.902 502.165C273.254 501.821 273.684 501.649 274.191 501.649C274.707 501.649 275.133 501.821 275.469 502.165C275.812 502.501 275.984 502.927 275.984 503.442ZM282.992 519.978L282.207 520.774C280.785 520.774 279.73 520.524 279.043 520.024C278.363 519.517 277.93 518.696 277.742 517.563C277.445 518.454 276.988 519.11 276.371 519.532C275.754 519.946 274.953 520.153 273.969 520.153C272.609 520.153 271.555 519.759 270.805 518.97C270.055 518.181 269.68 517.079 269.68 515.665C269.68 514.431 270.039 513.356 270.758 512.442C271.484 511.521 272.523 510.794 273.875 510.263L277.402 508.892V506.571H281.246V514.681C281.246 515.399 281.375 515.907 281.633 516.204C281.898 516.501 282.352 516.649 282.992 516.649V519.978ZM272.48 514.868C272.48 515.235 272.633 515.517 272.938 515.712C273.25 515.899 273.77 515.993 274.496 515.993C275.449 515.993 276.172 515.833 276.664 515.513C277.156 515.192 277.402 514.665 277.402 513.931V511.938L274.379 513.146C273.676 513.427 273.184 513.696 272.902 513.954C272.621 514.212 272.48 514.517 272.48 514.868ZM283.344 520.774H282.207V517.364L283.004 516.649C283.777 516.649 284.309 516.466 284.598 516.099C284.895 515.724 285.043 515.083 285.043 514.177C285.043 513.31 284.93 511.95 284.703 510.099H288.312C288.516 512.005 288.617 513.579 288.617 514.821C288.617 516.751 288.168 518.228 287.27 519.251C286.371 520.267 285.062 520.774 283.344 520.774ZM288.934 523.153C289.223 523.442 289.367 523.802 289.367 524.231C289.367 524.661 289.223 525.021 288.934 525.31C288.652 525.599 288.293 525.743 287.855 525.743C287.418 525.743 287.051 525.599 286.754 525.31C286.465 525.021 286.32 524.661 286.32 524.231C286.32 523.802 286.465 523.442 286.754 523.153C287.051 522.864 287.418 522.72 287.855 522.72C288.293 522.72 288.652 522.864 288.934 523.153ZM285.336 523.153C285.625 523.442 285.77 523.802 285.77 524.231C285.77 524.661 285.625 525.021 285.336 525.31C285.047 525.599 284.684 525.743 284.246 525.743C283.809 525.743 283.445 525.599 283.156 525.31C282.875 525.021 282.734 524.661 282.734 524.231C282.734 523.802 282.875 523.442 283.156 523.153C283.445 522.864 283.809 522.72 284.246 522.72C284.684 522.72 285.047 522.864 285.336 523.153ZM298.121 520.774H297.793C296.129 520.774 294.934 520.345 294.207 519.485C293.488 518.626 293.129 517.271 293.129 515.419V502.704H296.973V514.54C296.973 515.345 297.109 515.899 297.383 516.204C297.664 516.501 298.184 516.649 298.941 516.649V519.978L298.121 520.774ZM300.477 520.774H298.145V517.364L298.941 516.649H301.297C300.289 515.853 299.785 514.763 299.785 513.38C299.785 511.856 300.293 510.591 301.309 509.583C302.332 508.567 303.656 508.06 305.281 508.06C306.969 508.06 308.301 508.536 309.277 509.489C310.262 510.442 310.77 511.86 310.801 513.743H307.602C307.469 513.259 307.176 512.884 306.723 512.618C306.277 512.345 305.738 512.208 305.105 512.208C304.332 512.208 303.727 512.368 303.289 512.688C302.852 513.009 302.633 513.458 302.633 514.036C302.633 514.716 302.977 515.239 303.664 515.606C304.352 515.966 305.32 516.146 306.57 516.146C307.5 516.146 308.523 516.063 309.641 515.899L311.422 515.688V519.673L309.664 519.978C308.18 520.267 306.738 520.474 305.34 520.599C303.949 520.716 302.328 520.774 300.477 520.774ZM318.98 518.009C318.98 520.978 318.473 523.157 317.457 524.548C316.441 525.938 314.836 526.634 312.641 526.634C311.914 526.634 311.188 526.591 310.461 526.505V522.31C311.195 522.435 311.891 522.497 312.547 522.497C313.602 522.497 314.355 522.157 314.809 521.478C315.27 520.806 315.5 519.7 315.5 518.161C315.5 516.349 315.117 513.837 314.352 510.626H318.09C318.684 513.212 318.98 515.673 318.98 518.009Z" fill="#14151A"/>
<g filter="url(#filter0_d_2214_4362)">
<path d="M12 572.774C12 557.863 24.0883 545.774 39 545.774H293C307.912 545.774 320 557.863 320 572.774V572.774C320 587.686 307.912 599.774 293 599.774H39C24.0883 599.774 12 587.686 12 572.774V572.774Z" fill="#2F7266"/>
<path d="M141.936 571.252C141.936 571.574 141.827 571.841 141.608 572.054C141.395 572.267 141.131 572.373 140.815 572.373C140.486 572.373 140.213 572.267 139.994 572.054C139.781 571.841 139.675 571.574 139.675 571.252C139.675 570.923 139.781 570.653 139.994 570.44C140.213 570.221 140.486 570.112 140.815 570.112C141.137 570.112 141.404 570.221 141.617 570.44C141.83 570.653 141.936 570.923 141.936 571.252ZM146.459 576.796C146.459 578.619 145.97 580.002 144.991 580.945C144.012 581.887 142.626 582.358 140.833 582.358C138.93 582.358 137.532 581.905 136.638 580.999C135.751 580.094 135.313 578.78 135.325 577.06C135.344 576.227 135.444 575.337 135.626 574.388H137.496C137.307 575.312 137.213 576.045 137.213 576.586C137.195 577.777 137.471 578.668 138.043 579.258C138.62 579.847 139.584 580.142 140.933 580.142C142.179 580.142 143.094 579.884 143.678 579.367C144.262 578.856 144.553 578.042 144.553 576.923C144.553 575.823 144.435 574.534 144.198 573.057H146.122C146.347 574.553 146.459 575.799 146.459 576.796ZM154.474 578.774H148.894V576.604L152.723 573.395C153.192 572.987 153.447 572.762 153.489 572.72L147.845 568.507L149.058 566.765L154.866 571.17C155.152 570.732 155.347 570.255 155.45 569.738C155.559 569.221 155.614 568.556 155.614 567.741V564.486H157.575V567.741C157.575 568.823 157.483 569.695 157.301 570.358C157.125 571.021 156.781 571.653 156.271 572.255C156.945 572.826 157.429 573.379 157.72 573.914C158.012 574.449 158.158 575.042 158.158 575.692C158.158 577.747 156.93 578.774 154.474 578.774ZM154.009 574.352L151.173 576.604H154.547C155.185 576.604 155.654 576.537 155.951 576.404C156.249 576.264 156.398 576.045 156.398 575.747C156.398 575.486 156.274 575.197 156.024 574.881C155.781 574.565 155.371 574.176 154.793 573.714C154.708 573.787 154.447 573.999 154.009 574.352ZM162.353 578.774H160.392V564.486H162.353V578.774ZM179.058 583.726C178.407 584.024 177.669 584.258 176.842 584.428C176.021 584.604 175.198 584.692 174.371 584.692C172.596 584.692 171.198 584.294 170.176 583.498C169.161 582.701 168.653 581.583 168.653 580.142C168.653 579.091 169.009 578.163 169.72 577.361C170.438 576.553 171.429 575.942 172.693 575.528C171.793 575.236 171.082 574.747 170.559 574.06C170.036 573.373 169.775 572.568 169.775 571.644C169.775 570.489 170.146 569.528 170.888 568.762C171.629 567.99 172.571 567.604 173.714 567.604C174.851 567.604 175.76 567.926 176.441 568.571C177.128 569.209 177.501 570.121 177.562 571.306H175.793C175.672 570.832 175.419 570.461 175.036 570.194C174.66 569.926 174.201 569.793 173.66 569.793C172.967 569.793 172.422 569.972 172.027 570.331C171.638 570.683 171.444 571.188 171.444 571.844C171.444 572.537 171.736 573.1 172.319 573.531C172.909 573.963 173.681 574.179 174.635 574.179C175.201 574.179 175.997 574.094 177.024 573.923L178.109 573.75V575.884L177.079 576.03C174.775 576.37 173.085 576.853 172.009 577.48C170.933 578.106 170.395 578.929 170.395 579.951C170.395 580.777 170.751 581.404 171.462 581.829C172.173 582.261 173.161 582.477 174.425 582.477C175.27 582.477 176.097 582.388 176.906 582.212C177.72 582.036 178.438 581.811 179.058 581.537V583.726ZM185.897 577.206C185.897 579.261 185.535 580.768 184.811 581.729C184.088 582.695 182.951 583.179 181.401 583.179C180.848 583.179 180.292 583.136 179.732 583.051V580.863C180.365 580.966 180.894 581.018 181.319 581.018C182.261 581.018 182.948 580.717 183.38 580.115C183.811 579.513 184.027 578.562 184.027 577.261C184.027 576.677 183.979 575.987 183.881 575.191L183.544 572.41L190.191 571.753L190.547 574.817C190.626 575.534 190.814 576.012 191.112 576.249C191.41 576.486 191.957 576.604 192.754 576.604V578.309L192.289 578.774C191.073 578.774 190.2 578.489 189.672 577.917C189.143 577.34 188.799 576.3 188.641 574.799L188.568 574.088L185.696 574.388L185.769 574.981C185.854 575.942 185.897 576.683 185.897 577.206ZM190.51 581.236C190.51 581.553 190.404 581.817 190.191 582.03C189.979 582.249 189.711 582.358 189.389 582.358C189.061 582.358 188.787 582.252 188.568 582.039C188.355 581.826 188.249 581.559 188.249 581.236C188.249 580.908 188.355 580.635 188.568 580.416C188.787 580.203 189.061 580.097 189.389 580.097C189.711 580.097 189.979 580.203 190.191 580.416C190.404 580.635 190.51 580.908 190.51 581.236ZM197.532 568.881C197.532 569.179 197.434 569.428 197.24 569.629C197.045 569.823 196.796 569.92 196.492 569.92C196.188 569.92 195.936 569.823 195.735 569.629C195.541 569.428 195.444 569.179 195.444 568.881C195.444 568.589 195.544 568.343 195.744 568.142C195.945 567.936 196.194 567.832 196.492 567.832C196.79 567.832 197.036 567.936 197.231 568.142C197.431 568.343 197.532 568.589 197.532 568.881ZM194.942 568.881C194.942 569.179 194.842 569.428 194.641 569.629C194.447 569.823 194.197 569.92 193.893 569.92C193.589 569.92 193.337 569.823 193.137 569.629C192.942 569.428 192.845 569.179 192.845 568.881C192.845 568.589 192.945 568.343 193.146 568.142C193.346 567.936 193.596 567.832 193.893 567.832C194.191 567.832 194.441 567.936 194.641 568.142C194.842 568.343 194.942 568.589 194.942 568.881ZM192.845 578.774H192.289V577.06L192.754 576.604C193.507 576.604 194.027 576.437 194.313 576.103C194.605 575.762 194.751 575.197 194.751 574.407C194.751 573.543 194.65 572.44 194.45 571.097H196.392C196.568 572.477 196.656 573.641 196.656 574.589C196.656 577.379 195.386 578.774 192.845 578.774Z" fill="white"/>
</g>
<path d="M12 642.774C12 627.863 24.0883 615.774 39 615.774H293C307.912 615.774 320 627.863 320 642.774V642.774C320 657.686 307.912 669.774 293 669.774H39C24.0883 669.774 12 657.686 12 642.774V642.774Z" fill="white"/>
<path d="M116.541 636.209C116.541 636.525 116.432 636.793 116.213 637.012C116 637.224 115.736 637.331 115.42 637.331C115.092 637.331 114.818 637.224 114.599 637.012C114.386 636.799 114.28 636.531 114.28 636.209C114.28 635.881 114.386 635.61 114.599 635.398C114.818 635.179 115.092 635.069 115.42 635.069C115.742 635.069 116.009 635.179 116.222 635.398C116.435 635.61 116.541 635.881 116.541 636.209ZM113.778 636.209C113.778 636.531 113.669 636.799 113.45 637.012C113.237 637.224 112.967 637.331 112.639 637.331C112.316 637.331 112.049 637.224 111.836 637.012C111.623 636.793 111.517 636.525 111.517 636.209C111.517 635.881 111.623 635.61 111.836 635.398C112.049 635.179 112.316 635.069 112.639 635.069C112.967 635.069 113.237 635.179 113.45 635.398C113.669 635.61 113.778 635.881 113.778 636.209ZM118.839 648.309L118.374 648.774C117.499 648.774 116.836 648.604 116.386 648.264C115.943 647.923 115.651 647.37 115.511 646.604C115.079 647.765 114.158 648.346 112.748 648.346C111.745 648.346 110.961 648.066 110.395 647.507C109.836 646.942 109.557 646.163 109.557 645.173C109.557 643.568 110.52 642.328 112.447 641.452L115.31 640.112V638.507H117.289V644.781C117.289 645.443 117.408 645.914 117.645 646.194C117.882 646.467 118.28 646.604 118.839 646.604V648.309ZM111.198 644.926C111.198 645.322 111.344 645.629 111.636 645.847C111.927 646.066 112.356 646.176 112.921 646.176C113.724 646.176 114.323 646.024 114.718 645.72C115.113 645.416 115.31 644.932 115.31 644.27V641.826L113.031 642.893C112.392 643.197 111.927 643.51 111.636 643.832C111.344 644.148 111.198 644.513 111.198 644.926ZM124.584 648.309L124.119 648.774C122.386 648.774 121.389 648.109 121.128 646.777C120.86 648.109 119.94 648.774 118.365 648.774V647.06L118.83 646.604C119.523 646.604 120.009 646.437 120.289 646.103C120.575 645.768 120.718 645.203 120.718 644.407V634.486H122.678V644.407C122.678 644.875 122.705 645.249 122.76 645.528C122.815 645.802 122.918 646.024 123.07 646.194C123.228 646.358 123.42 646.467 123.645 646.522C123.876 646.577 124.189 646.604 124.584 646.604V648.309ZM139.383 648.774C138.617 648.774 137.988 648.607 137.496 648.273C137.003 647.939 136.681 647.464 136.529 646.85C136.426 647.549 136.176 648.075 135.781 648.428C135.386 648.78 134.876 648.957 134.249 648.957C133.642 648.957 133.119 648.79 132.681 648.455C132.249 648.121 131.964 647.65 131.824 647.042C131.599 648.318 130.851 648.957 129.581 648.957C128.863 648.957 128.274 648.78 127.812 648.428C127.35 648.075 127.049 647.574 126.909 646.923C126.66 648.157 125.727 648.774 124.11 648.774V647.06L124.575 646.604C125.857 646.604 126.499 645.963 126.499 644.68L126.481 643.714H128.386V644.68C128.386 645.391 128.511 645.917 128.76 646.258C129.009 646.592 129.401 646.759 129.936 646.759C130.362 646.759 130.699 646.586 130.949 646.239C131.204 645.887 131.332 645.367 131.332 644.68V643.714H133.219L133.237 644.68C133.237 645.367 133.365 645.887 133.62 646.239C133.882 646.586 134.222 646.759 134.642 646.759C135.085 646.759 135.429 646.58 135.672 646.221C135.915 645.856 136.037 645.343 136.037 644.68V643.057H137.924V644.68C137.924 645.343 138.076 645.829 138.38 646.139C138.69 646.449 139.18 646.604 139.848 646.604V648.309L139.383 648.774ZM140.158 648.774H139.392V647.06L139.857 646.604C140.623 646.604 141.131 646.44 141.38 646.112C141.635 645.784 141.763 645.121 141.763 644.124V634.486H143.742V644.407C143.742 645.902 143.45 647.005 142.866 647.717C142.283 648.422 141.38 648.774 140.158 648.774ZM148.301 648.774H146.341V634.486H148.301V648.774ZM167.787 649.768C167.787 650.741 167.195 651.562 166.009 652.23C164.824 652.899 163.295 653.233 161.423 653.233C159.228 653.233 157.599 652.817 156.535 651.984C155.471 651.151 154.939 649.902 154.939 648.236C154.939 647.404 155.046 646.543 155.258 645.656H157.109C156.933 646.622 156.845 647.346 156.845 647.826C156.845 648.89 157.231 649.686 158.003 650.215C158.775 650.75 159.964 651.018 161.568 651.018C162.979 651.018 164.082 650.872 164.878 650.58C165.675 650.294 166.073 649.893 166.073 649.376C166.073 649.078 165.915 648.814 165.599 648.583C165.289 648.352 164.836 648.236 164.24 648.236H162.188V646.066H164.076C164.86 646.066 165.395 645.936 165.681 645.674C165.967 645.413 166.109 644.966 166.109 644.334V634.486H168.088V644.334C168.088 645.288 167.957 646.048 167.696 646.613C167.435 647.179 167.024 647.577 166.465 647.808C167.346 648.203 167.787 648.856 167.787 649.768ZM172.702 648.774H170.742V634.486H172.702V648.774ZM173.66 653.552L169.666 654.118V652.805L170.486 652.695C170.134 652.397 169.957 652.011 169.957 651.537C169.97 651.039 170.143 650.625 170.477 650.297C170.818 649.969 171.243 649.805 171.754 649.805C172.21 649.805 172.581 649.945 172.866 650.224C173.158 650.51 173.322 650.899 173.359 651.391L172.447 651.519C172.283 651.246 172.033 651.109 171.699 651.109C171.48 651.109 171.307 651.157 171.179 651.255C171.052 651.358 170.988 651.501 170.988 651.683C170.988 651.945 171.119 652.148 171.38 652.294C171.641 652.446 171.957 652.492 172.328 652.431L173.66 652.249V653.552ZM185.86 636.209C185.86 636.525 185.751 636.793 185.532 637.012C185.319 637.224 185.055 637.331 184.738 637.331C184.41 637.331 184.137 637.224 183.918 637.012C183.705 636.799 183.599 636.531 183.599 636.209C183.599 635.881 183.705 635.61 183.918 635.398C184.137 635.179 184.41 635.069 184.738 635.069C185.061 635.069 185.328 635.179 185.541 635.398C185.754 635.61 185.86 635.881 185.86 636.209ZM183.097 636.209C183.097 636.531 182.988 636.799 182.769 637.012C182.556 637.224 182.286 637.331 181.957 637.331C181.635 637.331 181.368 637.224 181.155 637.012C180.942 636.793 180.836 636.525 180.836 636.209C180.836 635.881 180.942 635.61 181.155 635.398C181.368 635.179 181.635 635.069 181.957 635.069C182.286 635.069 182.556 635.179 182.769 635.398C182.988 635.61 183.097 635.881 183.097 636.209ZM188.158 648.309L187.693 648.774C186.817 648.774 186.155 648.604 185.705 648.264C185.261 647.923 184.969 647.37 184.83 646.604C184.398 647.765 183.477 648.346 182.067 648.346C181.064 648.346 180.28 648.066 179.714 647.507C179.155 646.942 178.875 646.163 178.875 645.173C178.875 643.568 179.839 642.328 181.766 641.452L184.629 640.112V638.507H186.608V644.781C186.608 645.443 186.726 645.914 186.963 646.194C187.2 646.467 187.599 646.604 188.158 646.604V648.309ZM180.517 644.926C180.517 645.322 180.663 645.629 180.954 645.847C181.246 646.066 181.675 646.176 182.24 646.176C183.042 646.176 183.641 646.024 184.036 645.72C184.431 645.416 184.629 644.932 184.629 644.27V641.826L182.349 642.893C181.711 643.197 181.246 643.51 180.954 643.832C180.663 644.148 180.517 644.513 180.517 644.926ZM193.246 635.607C193.246 635.936 193.14 636.206 192.927 636.419C192.714 636.626 192.447 636.729 192.124 636.729C191.796 636.729 191.523 636.626 191.304 636.419C191.091 636.206 190.985 635.936 190.985 635.607C190.985 635.285 191.091 635.018 191.304 634.805C191.523 634.592 191.796 634.486 192.124 634.486C192.441 634.486 192.705 634.595 192.918 634.814C193.137 635.027 193.246 635.291 193.246 635.607ZM191.158 648.774H187.684V647.06L188.149 646.604H191.231C191.687 646.604 192.051 646.601 192.325 646.595C192.599 646.583 192.872 646.559 193.146 646.522C193.425 646.486 193.638 646.434 193.784 646.367C193.936 646.3 194.076 646.209 194.203 646.094C194.337 645.972 194.434 645.829 194.495 645.665C194.556 645.495 194.602 645.285 194.632 645.036C194.073 645.236 193.295 645.337 192.298 645.337C191.143 645.337 190.225 645.048 189.544 644.47C188.863 643.893 188.523 643.1 188.523 642.091C188.523 641.367 188.687 640.686 189.015 640.048C189.349 639.404 189.799 638.89 190.365 638.507C190.936 638.118 191.547 637.923 192.197 637.923C193.413 637.923 194.389 638.461 195.124 639.537C195.866 640.607 196.237 642.054 196.237 643.878C196.237 644.534 196.2 645.106 196.127 645.592C196.055 646.078 195.933 646.507 195.763 646.878C195.593 647.243 195.38 647.546 195.124 647.79C194.875 648.027 194.556 648.221 194.167 648.373C193.778 648.519 193.343 648.622 192.863 648.683C192.383 648.744 191.814 648.774 191.158 648.774ZM190.127 641.999C190.127 642.498 190.325 642.866 190.72 643.103C191.121 643.334 191.665 643.449 192.352 643.449C193.222 643.449 193.988 643.376 194.65 643.23C194.547 642.233 194.258 641.452 193.784 640.887C193.31 640.322 192.726 640.039 192.033 640.039C191.474 640.039 191.015 640.227 190.656 640.604C190.304 640.975 190.127 641.44 190.127 641.999ZM201.644 648.774H201.471C200.334 648.774 199.507 648.458 198.991 647.826C198.48 647.188 198.225 646.185 198.225 644.817V634.486H200.203V644.534C200.203 645.312 200.34 645.853 200.614 646.157C200.893 646.455 201.392 646.604 202.109 646.604V648.309L201.644 648.774ZM214.328 638.352C214.328 638.674 214.225 638.942 214.018 639.154C213.811 639.367 213.544 639.474 213.215 639.474C212.893 639.474 212.626 639.367 212.413 639.154C212.2 638.942 212.094 638.674 212.094 638.352C212.094 638.024 212.2 637.753 212.413 637.54C212.626 637.322 212.893 637.212 213.215 637.212C213.544 637.212 213.811 637.322 214.018 637.54C214.225 637.753 214.328 638.024 214.328 638.352ZM217.656 644.516C217.656 645.963 217.009 647.066 215.714 647.826C214.419 648.58 212.459 648.957 209.833 648.957C206.665 648.957 204.872 648.16 204.453 646.568C204.228 648.039 203.289 648.774 201.635 648.774V647.06L202.1 646.604C202.805 646.604 203.301 646.449 203.586 646.139C203.878 645.823 204.024 645.288 204.024 644.534V643.714H205.82V644.534C205.82 645.367 206.106 645.942 206.678 646.258C207.516 644.507 208.541 643.136 209.75 642.145C210.96 641.148 212.276 640.65 213.699 640.65C214.325 640.65 214.893 640.759 215.404 640.978C215.915 641.191 216.331 641.48 216.653 641.844C216.975 642.203 217.222 642.613 217.392 643.075C217.568 643.531 217.656 644.012 217.656 644.516ZM213.626 642.838C212.55 642.838 211.532 643.179 210.571 643.86C209.617 644.534 208.772 645.47 208.036 646.668C208.595 646.753 209.349 646.796 210.298 646.796C212.273 646.796 213.717 646.607 214.629 646.23C215.541 645.853 215.997 645.294 215.997 644.553C215.997 644.109 215.79 643.714 215.377 643.367C214.963 643.015 214.38 642.838 213.626 642.838ZM221.541 648.774H219.58V634.486H221.541V648.774ZM222.498 653.552L218.504 654.118V652.805L219.325 652.695C218.972 652.397 218.796 652.011 218.796 651.537C218.808 651.039 218.981 650.625 219.316 650.297C219.656 649.969 220.082 649.805 220.592 649.805C221.048 649.805 221.419 649.945 221.705 650.224C221.997 650.51 222.161 650.899 222.197 651.391L221.285 651.519C221.121 651.246 220.872 651.109 220.538 651.109C220.319 651.109 220.146 651.157 220.018 651.255C219.89 651.358 219.826 651.501 219.826 651.683C219.826 651.945 219.957 652.148 220.218 652.294C220.48 652.446 220.796 652.492 221.167 652.431L222.498 652.249V653.552Z" fill="#0F1324" fill-opacity="0.6"/>
<rect x="12" y="685.774" width="308" height="40" rx="8" fill="#27574F" fill-opacity="0.04"/>
<g clip-path="url(#clip3_2214_4362)">
<g clip-path="url(#clip4_2214_4362)">
<rect x="22" y="701.091" width="217" height="10" rx="5" fill="#0A0F29" fill-opacity="0.04"/>
</g>
<g clip-path="url(#clip5_2214_4362)">
<rect x="153" y="701.1" width="116" height="10" rx="5" fill="#2F7266"/>
</g>
</g>
<path d="M284.137 709.932C283.549 709.932 283.02 709.859 282.551 709.713C282.086 709.562 281.696 709.355 281.382 709.091C281.067 708.822 280.805 708.496 280.596 708.113C280.391 707.73 280.24 707.313 280.145 706.862C280.053 706.407 280.008 705.908 280.008 705.365V705.112C280.008 704.356 280.115 703.672 280.329 703.062C280.543 702.446 280.84 701.936 281.218 701.53C281.596 701.125 282.043 700.812 282.558 700.594C283.077 700.375 283.64 700.266 284.246 700.266C285.294 700.266 286.121 700.496 286.728 700.956C287.334 701.412 287.689 702.089 287.794 702.986H285.422C285.363 702.717 285.249 702.512 285.08 702.371C284.916 702.23 284.663 702.159 284.321 702.159C283.774 702.159 283.348 702.382 283.043 702.829C282.738 703.276 282.576 703.916 282.558 704.75C283.027 704.012 283.777 703.643 284.807 703.643C285.404 703.643 285.939 703.757 286.413 703.984C286.887 704.208 287.268 704.552 287.555 705.017C287.842 705.477 287.985 706.021 287.985 706.65C287.985 707.644 287.641 708.439 286.953 709.036C286.265 709.633 285.326 709.932 284.137 709.932ZM284.123 708.106C284.529 708.106 284.857 707.974 285.107 707.71C285.358 707.446 285.483 707.102 285.483 706.678C285.483 706.249 285.36 705.905 285.114 705.646C284.868 705.381 284.533 705.249 284.109 705.249C283.695 705.249 283.357 705.381 283.098 705.646C282.838 705.91 282.708 706.24 282.708 706.637C282.708 707.079 282.836 707.434 283.091 707.703C283.351 707.972 283.695 708.106 284.123 708.106ZM293.208 709.932C291.882 709.932 290.834 709.524 290.063 708.708C289.293 707.888 288.908 706.751 288.908 705.297V704.887C288.908 704.167 289.015 703.515 289.229 702.932C289.448 702.344 289.751 701.856 290.139 701.469C290.526 701.081 290.986 700.785 291.52 700.58C292.053 700.37 292.634 700.266 293.263 700.266C293.896 700.266 294.475 700.364 294.999 700.56C295.528 700.756 295.986 701.043 296.373 701.421C296.76 701.795 297.061 702.273 297.275 702.856C297.494 703.435 297.604 704.094 297.604 704.832V705.208C297.604 706.68 297.209 707.835 296.421 708.674C295.637 709.512 294.566 709.932 293.208 709.932ZM293.29 707.942C293.896 707.942 294.338 707.724 294.616 707.286C294.899 706.844 295.04 706.172 295.04 705.27V704.873C295.04 703.091 294.448 702.2 293.263 702.2C292.657 702.2 292.208 702.424 291.916 702.87C291.629 703.312 291.485 703.98 291.485 704.873V705.283C291.485 706.181 291.631 706.849 291.923 707.286C292.219 707.724 292.675 707.942 293.29 707.942ZM300.994 704.634C300.224 704.634 299.602 704.399 299.128 703.93C298.654 703.456 298.417 702.856 298.417 702.132C298.417 701.425 298.665 700.835 299.162 700.361C299.659 699.887 300.274 699.65 301.008 699.65C301.742 699.65 302.357 699.883 302.854 700.348C303.35 700.808 303.599 701.389 303.599 702.091C303.599 702.82 303.355 703.426 302.867 703.909C302.384 704.392 301.76 704.634 300.994 704.634ZM299.736 709.774L306.538 699.767H307.857L301.049 709.774H299.736ZM300.352 702.973C300.511 703.169 300.73 703.267 301.008 703.267C301.286 703.267 301.5 703.166 301.65 702.966C301.801 702.761 301.876 702.483 301.876 702.132C301.876 701.781 301.801 701.505 301.65 701.305C301.5 701.1 301.286 700.997 301.008 700.997C300.734 700.997 300.516 701.097 300.352 701.298C300.192 701.498 300.112 701.772 300.112 702.118C300.112 702.487 300.192 702.772 300.352 702.973ZM306.552 709.932C305.772 709.932 305.146 709.697 304.672 709.228C304.198 708.758 303.961 708.161 303.961 707.437C303.961 706.726 304.209 706.135 304.706 705.666C305.207 705.192 305.827 704.955 306.565 704.955C307.299 704.955 307.912 705.185 308.404 705.646C308.896 706.106 309.143 706.689 309.143 707.396C309.143 708.125 308.901 708.731 308.418 709.214C307.939 709.692 307.317 709.932 306.552 709.932ZM305.916 708.271C306.071 708.462 306.287 708.558 306.565 708.558C306.843 708.558 307.06 708.457 307.215 708.257C307.37 708.056 307.447 707.774 307.447 707.409C307.447 707.063 307.37 706.792 307.215 706.596C307.06 706.4 306.843 706.302 306.565 706.302C306.292 706.302 306.076 706.4 305.916 706.596C305.761 706.792 305.684 707.067 305.684 707.423C305.684 707.792 305.761 708.075 305.916 708.271Z" fill="#0D1126" fill-opacity="0.4"/>
<g clip-path="url(#clip6_2214_4362)">
<rect x="83" y="741.774" width="237" height="10" rx="5" fill="#0A0F29" fill-opacity="0.25"/>
</g>
</g>
<rect x="474" y="693" width="272" height="80" rx="24" fill="white"/>
<rect x="498" y="721" width="24" height="24" rx="12" fill="#DAEDE8"/>
<rect x="546" y="717" width="32" height="32" rx="16" fill="#428277"/>
<rect x="602" y="721" width="24" height="24" rx="12" fill="#A5CF4C"/>
<rect x="650" y="721" width="24" height="24" rx="12" fill="#C0B765"/>
<rect x="698" y="721" width="24" height="24" rx="12" fill="#A78BFA"/>
<defs>
<filter id="filter0_d_2214_4362" x="9.66567" y="544.607" width="312.669" height="58.6687" filterUnits="userSpaceOnUse" color-interpolation-filters="sRGB">
<feFlood flood-opacity="0" result="BackgroundImageFix"/>
<feColorMatrix in="SourceAlpha" type="matrix" values="0 0 0 0 0 0 0 0 0 0 0 0 0 0 0 0 0 0 127 0" result="hardAlpha"/>
<feOffset dy="1.16717"/>
<feGaussianBlur stdDeviation="1.16717"/>
<feComposite in2="hardAlpha" operator="out"/>
<feColorMatrix type="matrix" values="0 0 0 0 0.0784314 0 0 0 0 0.0823529 0 0 0 0 0.101961 0 0 0 0.05 0"/>
<feBlend mode="normal" in2="BackgroundImageFix" result="effect1_dropShadow_2214_4362"/>
<feBlend mode="normal" in="SourceGraphic" in2="effect1_dropShadow_2214_4362" result="shape"/>
</filter>
<clipPath id="clip0_2214_4362">
<rect width="71.3341" height="63.41" fill="white" transform="translate(532.846 15.812)"/>
</clipPath>
<clipPath id="clip1_2214_4362">
<rect y="123" width="332" height="623" rx="24" fill="white"/>
</clipPath>
<clipPath id="clip2_2214_4362">
<rect width="53.2841" height="47.3651" fill="white" transform="translate(253.432 148.317)"/>
</clipPath>
<clipPath id="clip3_2214_4362">
<rect width="247" height="10" fill="white" transform="translate(22 700.774)"/>
</clipPath>
<clipPath id="clip4_2214_4362">
<rect x="22" y="701.091" width="217" height="10" rx="5" fill="white"/>
</clipPath>
<clipPath id="clip5_2214_4362">
<rect x="153" y="701.1" width="116" height="10" rx="5" fill="white"/>
</clipPath>
<clipPath id="clip6_2214_4362">
<rect x="83" y="741.774" width="237" height="10" rx="5" fill="white"/>
</clipPath>
</defs>
</svg>
