<svg width="746" height="773" viewBox="0 0 746 773" fill="none" xmlns="http://www.w3.org/2000/svg">
<rect x="521" width="95.115" height="95.115" rx="20" fill="#428277"/>
<g clip-path="url(#clip0_2214_4362)">
<path d="M588.324 47.5138C588.324 53.3801 591.512 58.4969 596.248 61.2371V63.3621H588.324V79.216C597.082 79.216 604.178 72.1195 604.178 63.3621V31.6655H588.324V47.5194V47.5138Z" fill="white"/>
<path d="M540.77 31.6653C540.77 37.5315 543.957 42.6483 548.694 45.3885V47.5136H532.846V63.3675H540.77C549.527 63.3675 556.624 56.271 556.624 47.5136V31.6597H540.77V31.6653Z" fill="white"/>
<path d="M604.178 15.812H588.324V23.7362H604.178V15.812Z" fill="white"/>
<path d="M564.547 15.812C564.547 21.6782 567.734 26.7951 572.471 29.5353V31.6603H564.547V63.3625C573.304 63.3625 580.401 56.266 580.401 47.5086V15.812H564.547Z" fill="white"/>
</g>
<g clip-path="url(#clip1_2214_4362)">
<rect y="123" width="261" height="623" rx="24" fill="#FAFAF9"/>
<path d="M43.4217 159.01C46.3282 159.01 48.6845 161.366 48.6845 164.273C48.6845 165.232 48.4278 166.131 47.9796 166.905L53.9473 166.904V169.535H51.3159V182.692C51.3159 183.419 50.7269 184.008 50.0002 184.008H28.949C28.2224 184.008 27.6333 183.419 27.6333 182.692V169.535H25.002V166.904L30.9697 166.905C30.5214 166.131 30.2647 165.232 30.2647 164.273C30.2647 161.366 32.621 159.01 35.5275 159.01C37.1001 159.01 38.5116 159.699 39.4758 160.793C40.4377 159.699 41.8492 159.01 43.4217 159.01ZM38.1589 169.535H30.2647V181.377H38.1589V169.535ZM48.6845 169.535H40.7903V181.377H48.6845V169.535ZM35.5275 161.641C34.0742 161.641 32.8961 162.819 32.8961 164.273C32.8961 165.66 33.9696 166.796 35.3311 166.897L35.5275 166.904H38.1589V164.273C38.1589 162.955 37.1902 161.863 35.9259 161.671L35.7239 161.648L35.5275 161.641ZM43.4217 161.641C42.0345 161.641 40.898 162.715 40.7976 164.076L40.7903 164.273V166.904H43.4217C44.8089 166.904 45.9454 165.83 46.0459 164.469L46.0531 164.273C46.0531 162.819 44.8751 161.641 43.4217 161.641Z" fill="#2F7266"/>
<path d="M84.2051 185.32C84.2051 179.507 88.9175 174.794 94.7307 174.794C100.544 174.794 105.256 179.507 105.256 185.32H102.625C102.625 180.96 99.0905 177.426 94.7307 177.426C90.3708 177.426 86.8365 180.96 86.8365 185.32H84.2051ZM94.7307 173.479C90.3691 173.479 86.8365 169.946 86.8365 165.585C86.8365 161.223 90.3691 157.69 94.7307 157.69C99.0922 157.69 102.625 161.223 102.625 165.585C102.625 169.946 99.0922 173.479 94.7307 173.479ZM94.7307 170.847C97.6383 170.847 99.9934 168.492 99.9934 165.585C99.9934 162.677 97.6383 160.322 94.7307 160.322C91.823 160.322 89.4679 162.677 89.4679 165.585C89.4679 168.492 91.823 170.847 94.7307 170.847Z" fill="#2F7266"/>
<g clip-path="url(#clip2_2214_4362)">
<path d="M223.873 171.998C223.873 176.38 226.254 180.202 229.792 182.249V183.836H223.873V195.678C230.415 195.678 235.715 190.377 235.715 183.836V160.16H223.873V172.002V171.998Z" fill="#428277"/>
<path d="M188.351 160.16C188.351 164.542 190.732 168.364 194.27 170.411V171.998H182.432V183.84H188.351C194.892 183.84 200.193 178.54 200.193 171.998V160.156H188.351V160.16Z" fill="#428277"/>
<path d="M235.715 148.317H223.873V154.236H235.715V148.317Z" fill="#428277"/>
<path d="M206.111 148.317C206.111 152.699 208.492 156.521 212.03 158.568V160.156H206.111V183.836C212.653 183.836 217.954 178.535 217.954 171.994V148.317H206.111Z" fill="#428277"/>
</g>
<rect x="12" y="221.325" width="237" height="177.221" rx="16" fill="#0A0F29" fill-opacity="0.04"/>
<path d="M218.289 420.777C218.289 417.336 221.079 414.546 224.52 414.546H242.769C246.21 414.546 249 417.336 249 420.777V420.777C249 424.218 246.21 427.008 242.769 427.008H224.52C221.079 427.008 218.289 424.218 218.289 420.777V420.777Z" fill="#A5CF4C"/>
<path d="M138.897 461.008C137.948 461.008 137.233 460.733 136.753 460.182C136.671 461.53 136.196 462.584 135.329 463.346C134.462 464.114 133.217 464.498 131.594 464.498C129.654 464.498 128.213 464.014 127.27 463.047C126.332 462.086 125.869 460.692 125.881 458.864C125.881 458.079 125.972 457.173 126.153 456.148H128.781C128.635 457.003 128.562 457.663 128.562 458.125C128.55 459.168 128.787 459.957 129.273 460.49C129.76 461.017 130.568 461.281 131.699 461.281C132.906 461.281 133.779 461.076 134.318 460.666C134.863 460.25 135.136 459.608 135.136 458.741V447.456H138.019V456.253C138.019 456.892 138.124 457.329 138.335 457.563C138.552 457.797 138.938 457.915 139.495 457.915V460.411L138.897 461.008ZM145.05 448.493C145.308 448.745 145.437 449.064 145.437 449.451C145.437 449.837 145.308 450.157 145.05 450.409C144.792 450.661 144.47 450.787 144.083 450.787C143.702 450.787 143.383 450.661 143.125 450.409C142.867 450.157 142.738 449.837 142.738 449.451C142.738 449.064 142.867 448.745 143.125 448.493C143.383 448.235 143.702 448.106 144.083 448.106C144.47 448.106 144.792 448.235 145.05 448.493ZM140.049 461.008H138.897V458.451L139.495 457.915H140.576C140.225 457.317 140.049 456.681 140.049 456.007C140.049 454.853 140.45 453.866 141.253 453.045C142.062 452.219 143.034 451.806 144.171 451.806C144.915 451.806 145.592 452 146.201 452.386C146.816 452.767 147.294 453.277 147.634 453.916C147.979 454.554 148.152 455.246 148.152 455.99C148.152 456.646 147.936 457.288 147.502 457.915H148.75V460.411L148.152 461.008H147.634C146.263 461.008 145.009 460.803 143.872 460.393C142.642 460.803 141.367 461.008 140.049 461.008ZM142.141 456.13C142.141 456.482 142.328 456.79 142.703 457.053C143.084 457.311 143.629 457.513 144.338 457.66C145.492 457.373 146.069 456.898 146.069 456.236C146.069 455.861 145.876 455.544 145.489 455.287C145.103 455.029 144.616 454.903 144.03 454.909C143.462 454.909 143.005 455.026 142.659 455.26C142.313 455.495 142.141 455.785 142.141 456.13ZM153.382 461.008H148.144V458.503L148.741 457.915H149.655C149.761 457.698 149.931 457.384 150.165 456.974V447.456H153.039V453.538C154.229 452.624 155.526 452.167 156.933 452.167C158.21 452.167 159.244 452.583 160.035 453.415C160.832 454.241 161.23 455.26 161.23 456.473C161.23 459.497 158.614 461.008 153.382 461.008ZM156.862 455.287C154.976 455.287 153.259 456.163 151.712 457.915H153.997C155.31 457.915 156.335 457.871 157.073 457.783C157.817 457.695 158.348 457.557 158.664 457.37C158.986 457.176 159.147 456.913 159.147 456.579C159.147 456.227 158.937 455.925 158.515 455.673C158.099 455.416 157.548 455.287 156.862 455.287ZM169.026 466.862H166.144V461.21C166.144 459.886 166.416 458.867 166.961 458.152C167.506 457.431 168.35 456.986 169.492 456.816C169.592 455.621 170.002 454.657 170.723 453.924C171.449 453.186 172.366 452.817 173.474 452.817C174.476 452.817 175.284 453.04 175.899 453.485C176.521 453.93 177.08 454.692 177.578 455.77L177.736 456.113C178.064 456.828 178.346 457.308 178.58 457.554C178.82 457.794 179.151 457.915 179.573 457.915V460.411L178.984 461.008C178.328 461.008 177.783 460.862 177.35 460.569C176.916 460.27 176.518 459.757 176.154 459.031C175.943 459.792 175.589 460.349 175.091 460.701C174.593 461.052 173.934 461.228 173.113 461.228C171.824 461.228 170.852 460.777 170.195 459.875C169.75 459.916 169.442 460.044 169.272 460.261C169.108 460.472 169.026 460.824 169.026 461.316V466.862ZM171.461 457.141C171.461 457.458 171.596 457.701 171.865 457.871C172.141 458.041 172.521 458.125 173.008 458.125C174.291 458.125 175.111 457.929 175.469 457.537C174.959 456.417 174.18 455.858 173.131 455.858C172.615 455.858 172.208 455.981 171.909 456.227C171.61 456.473 171.461 456.778 171.461 457.141ZM185.312 460.411L184.724 461.008C183.845 461.008 183.142 460.818 182.614 460.437C182.087 460.05 181.756 459.491 181.621 458.758C181.521 459.491 181.246 460.05 180.795 460.437C180.344 460.818 179.737 461.008 178.976 461.008V458.451L179.573 457.915C180.147 457.915 180.549 457.789 180.777 457.537C181.006 457.279 181.12 456.851 181.12 456.253V454.258H183.801V456.253C183.801 456.892 183.909 457.329 184.126 457.563C184.343 457.797 184.738 457.915 185.312 457.915V460.411ZM184.398 462.792C184.615 463.009 184.724 463.279 184.724 463.601C184.724 463.923 184.615 464.193 184.398 464.41C184.182 464.626 183.912 464.735 183.59 464.735C183.268 464.735 182.998 464.626 182.781 464.41C182.564 464.193 182.456 463.923 182.456 463.601C182.456 463.279 182.564 463.009 182.781 462.792C182.998 462.576 183.268 462.467 183.59 462.467C183.912 462.467 184.182 462.576 184.398 462.792ZM181.7 462.792C181.917 463.009 182.025 463.279 182.025 463.601C182.025 463.923 181.917 464.193 181.7 464.41C181.489 464.626 181.22 464.735 180.892 464.735C180.563 464.735 180.291 464.626 180.074 464.41C179.857 464.193 179.749 463.923 179.749 463.601C179.749 463.279 179.857 463.009 180.074 462.792C180.291 462.576 180.563 462.467 180.892 462.467C181.22 462.467 181.489 462.576 181.7 462.792ZM191.14 460.411L190.542 461.008C188.673 461.008 187.598 460.235 187.316 458.688C187.217 459.438 186.944 460.012 186.499 460.411C186.06 460.809 185.468 461.008 184.724 461.008V458.451L185.321 457.915C185.86 457.915 186.238 457.789 186.455 457.537C186.672 457.279 186.78 456.851 186.78 456.253V447.456H189.663V456.253C189.663 456.927 189.76 457.373 189.953 457.589C190.152 457.806 190.548 457.915 191.14 457.915V460.411ZM192.581 461.008H190.542V458.451L191.14 457.915H193.908C193.568 457.551 193.293 457.238 193.082 456.974L192.291 455.99V453.125C193.92 452.714 195.455 452.509 196.896 452.509C198.484 452.509 199.63 452.72 200.333 453.142C201.036 453.564 201.391 454.279 201.396 455.287C201.414 456.195 201.074 457.071 200.377 457.915H202.548V460.411L201.959 461.008H201.511C199.776 461.008 198.288 460.739 197.046 460.2C195.628 460.739 194.14 461.008 192.581 461.008ZM196.896 455.375C196.082 455.375 195.262 455.427 194.436 455.533C194.934 456.119 195.396 456.576 195.824 456.904C196.252 457.226 196.729 457.466 197.257 457.625C197.966 457.472 198.511 457.273 198.892 457.027C199.278 456.781 199.466 456.511 199.454 456.218C199.448 455.914 199.243 455.697 198.839 455.568C198.44 455.439 197.793 455.375 196.896 455.375ZM207.496 450.857C207.496 451.179 207.388 451.446 207.171 451.657C206.96 451.868 206.69 451.973 206.362 451.973C206.04 451.973 205.771 451.868 205.554 451.657C205.337 451.44 205.229 451.173 205.229 450.857C205.229 450.523 205.334 450.248 205.545 450.031C205.762 449.814 206.034 449.706 206.362 449.706C206.696 449.706 206.969 449.814 207.18 450.031C207.391 450.248 207.496 450.523 207.496 450.857ZM204.815 450.857C204.815 451.173 204.707 451.44 204.49 451.657C204.273 451.868 204.004 451.973 203.682 451.973C203.348 451.973 203.072 451.868 202.855 451.657C202.639 451.44 202.53 451.173 202.53 450.857C202.53 450.523 202.639 450.248 202.855 450.031C203.072 449.814 203.348 449.706 203.682 449.706C204.01 449.706 204.279 449.814 204.49 450.031C204.707 450.248 204.815 450.523 204.815 450.857ZM202.803 461.008H201.95V458.451L202.548 457.915C203.128 457.915 203.526 457.777 203.743 457.501C203.966 457.22 204.077 456.74 204.077 456.06C204.077 455.41 203.992 454.39 203.822 453.001H206.529C206.682 454.431 206.758 455.612 206.758 456.543C206.758 457.991 206.421 459.098 205.747 459.866C205.073 460.627 204.092 461.008 202.803 461.008ZM218.966 448.009C218.966 448.39 218.84 448.709 218.588 448.967C218.336 449.219 218.017 449.345 217.63 449.345C217.243 449.345 216.921 449.219 216.663 448.967C216.405 448.709 216.276 448.39 216.276 448.009C216.276 447.623 216.405 447.303 216.663 447.051C216.921 446.793 217.243 446.665 217.63 446.665C218.017 446.665 218.336 446.793 218.588 447.051C218.84 447.303 218.966 447.623 218.966 448.009ZM215.863 448.009C215.863 448.39 215.734 448.709 215.477 448.967C215.225 449.219 214.905 449.345 214.519 449.345C214.138 449.345 213.815 449.216 213.552 448.958C213.294 448.701 213.165 448.384 213.165 448.009C213.165 447.623 213.294 447.303 213.552 447.051C213.815 446.793 214.138 446.665 214.519 446.665C214.905 446.665 215.225 446.793 215.477 447.051C215.734 447.303 215.863 447.623 215.863 448.009ZM221.119 460.411L220.53 461.008C219.464 461.008 218.673 460.821 218.157 460.446C217.647 460.065 217.322 459.45 217.182 458.6C216.959 459.268 216.616 459.76 216.153 460.077C215.69 460.387 215.09 460.542 214.352 460.542C213.332 460.542 212.541 460.247 211.979 459.655C211.416 459.063 211.135 458.237 211.135 457.176C211.135 456.25 211.404 455.445 211.943 454.759C212.488 454.068 213.268 453.523 214.281 453.125L216.927 452.096V450.356H219.81V456.438C219.81 456.977 219.906 457.358 220.1 457.581C220.299 457.803 220.639 457.915 221.119 457.915V460.411ZM213.235 456.579C213.235 456.854 213.35 457.065 213.578 457.211C213.812 457.352 214.202 457.422 214.747 457.422C215.462 457.422 216.004 457.302 216.373 457.062C216.742 456.822 216.927 456.426 216.927 455.875V454.381L214.659 455.287C214.132 455.498 213.763 455.7 213.552 455.893C213.341 456.086 213.235 456.315 213.235 456.579ZM221.383 461.008H220.53V458.451L221.128 457.915C221.708 457.915 222.106 457.777 222.323 457.501C222.546 457.22 222.657 456.74 222.657 456.06C222.657 455.41 222.572 454.39 222.402 453.001H225.109C225.262 454.431 225.338 455.612 225.338 456.543C225.338 457.991 225.001 459.098 224.327 459.866C223.653 460.627 222.672 461.008 221.383 461.008ZM225.575 462.792C225.792 463.009 225.9 463.279 225.9 463.601C225.9 463.923 225.792 464.193 225.575 464.41C225.364 464.626 225.095 464.735 224.767 464.735C224.438 464.735 224.163 464.626 223.94 464.41C223.724 464.193 223.615 463.923 223.615 463.601C223.615 463.279 223.724 463.009 223.94 462.792C224.163 462.576 224.438 462.467 224.767 462.467C225.095 462.467 225.364 462.576 225.575 462.792ZM222.877 462.792C223.094 463.009 223.202 463.279 223.202 463.601C223.202 463.923 223.094 464.193 222.877 464.41C222.66 464.626 222.388 464.735 222.06 464.735C221.731 464.735 221.459 464.626 221.242 464.41C221.031 464.193 220.926 463.923 220.926 463.601C220.926 463.279 221.031 463.009 221.242 462.792C221.459 462.576 221.731 462.467 222.06 462.467C222.388 462.467 222.66 462.576 222.877 462.792ZM232.466 461.008H232.22C230.972 461.008 230.075 460.686 229.53 460.042C228.991 459.397 228.722 458.38 228.722 456.992V447.456H231.604V456.333C231.604 456.936 231.707 457.352 231.912 457.581C232.123 457.803 232.513 457.915 233.081 457.915V460.411L232.466 461.008ZM234.232 461.008H232.483V458.451L233.081 457.915H234.848C234.092 457.317 233.714 456.5 233.714 455.462C233.714 454.32 234.095 453.371 234.856 452.615C235.624 451.853 236.617 451.472 237.836 451.472C239.102 451.472 240.101 451.83 240.833 452.544C241.571 453.259 241.952 454.323 241.976 455.735H239.576C239.477 455.372 239.257 455.09 238.917 454.891C238.583 454.686 238.179 454.583 237.704 454.583C237.124 454.583 236.67 454.704 236.342 454.944C236.014 455.184 235.85 455.521 235.85 455.955C235.85 456.464 236.107 456.857 236.623 457.132C237.139 457.402 237.865 457.537 238.803 457.537C239.5 457.537 240.268 457.475 241.105 457.352L242.441 457.194V460.182L241.123 460.411C240.01 460.627 238.929 460.783 237.88 460.876C236.837 460.964 235.621 461.008 234.232 461.008ZM248.11 458.934C248.11 461.161 247.729 462.795 246.968 463.838C246.206 464.881 245.002 465.403 243.355 465.403C242.811 465.403 242.266 465.371 241.721 465.306V462.16C242.271 462.253 242.793 462.3 243.285 462.3C244.076 462.3 244.642 462.045 244.981 461.536C245.327 461.032 245.5 460.203 245.5 459.048C245.5 457.689 245.213 455.805 244.639 453.397H247.442C247.888 455.336 248.11 457.182 248.11 458.934Z" fill="#14151A"/>
<g filter="url(#filter0_d_2214_4362)">
<path d="M12 511.008C12 496.097 24.0883 484.008 39 484.008H222C236.912 484.008 249 496.097 249 511.008V511.008C249 525.92 236.912 538.008 222 538.008H39C24.0883 538.008 12 525.92 12 511.008V511.008Z" fill="#2F7266"/>
<path d="M106.436 509.486C106.436 509.808 106.327 510.075 106.108 510.288C105.895 510.501 105.631 510.607 105.315 510.607C104.986 510.607 104.713 510.501 104.494 510.288C104.281 510.075 104.175 509.808 104.175 509.486C104.175 509.157 104.281 508.887 104.494 508.674C104.713 508.455 104.986 508.346 105.315 508.346C105.637 508.346 105.904 508.455 106.117 508.674C106.33 508.887 106.436 509.157 106.436 509.486ZM110.959 515.03C110.959 516.853 110.47 518.236 109.491 519.178C108.512 520.121 107.126 520.592 105.333 520.592C103.43 520.592 102.032 520.139 101.138 519.233C100.251 518.327 99.8133 517.014 99.8254 515.294C99.8437 514.461 99.944 513.571 100.126 512.622H101.996C101.807 513.546 101.713 514.279 101.713 514.82C101.695 516.011 101.971 516.902 102.543 517.492C103.12 518.081 104.084 518.376 105.433 518.376C106.679 518.376 107.594 518.118 108.178 517.601C108.762 517.09 109.053 516.276 109.053 515.157C109.053 514.057 108.935 512.768 108.698 511.291H110.622C110.847 512.786 110.959 514.033 110.959 515.03ZM118.974 517.008H113.394V514.838L117.223 511.628C117.692 511.221 117.947 510.996 117.989 510.954L112.345 506.741L113.558 504.999L119.366 509.403C119.652 508.966 119.847 508.489 119.95 507.972C120.059 507.455 120.114 506.79 120.114 505.975V502.72H122.075V505.975C122.075 507.057 121.983 507.929 121.801 508.592C121.625 509.255 121.281 509.887 120.771 510.489C121.445 511.06 121.929 511.613 122.22 512.148C122.512 512.683 122.658 513.276 122.658 513.926C122.658 515.981 121.43 517.008 118.974 517.008ZM118.509 512.586L115.673 514.838H119.047C119.685 514.838 120.154 514.771 120.451 514.637C120.749 514.498 120.898 514.279 120.898 513.981C120.898 513.72 120.774 513.431 120.524 513.115C120.281 512.799 119.871 512.41 119.293 511.948C119.208 512.02 118.947 512.233 118.509 512.586ZM126.853 517.008H124.892V502.72H126.853V517.008ZM143.558 521.96C142.907 522.258 142.169 522.492 141.342 522.662C140.521 522.838 139.698 522.926 138.871 522.926C137.096 522.926 135.698 522.528 134.676 521.732C133.661 520.935 133.153 519.817 133.153 518.376C133.153 517.324 133.509 516.397 134.22 515.595C134.938 514.786 135.929 514.175 137.193 513.762C136.293 513.47 135.582 512.981 135.059 512.294C134.536 511.607 134.275 510.802 134.275 509.878C134.275 508.723 134.646 507.762 135.388 506.996C136.129 506.224 137.071 505.838 138.214 505.838C139.351 505.838 140.26 506.16 140.941 506.805C141.628 507.443 142.001 508.355 142.062 509.54H140.293C140.172 509.066 139.919 508.695 139.536 508.428C139.16 508.16 138.701 508.027 138.16 508.027C137.467 508.027 136.922 508.206 136.527 508.565C136.138 508.917 135.944 509.422 135.944 510.078C135.944 510.771 136.236 511.334 136.819 511.765C137.409 512.197 138.181 512.413 139.135 512.413C139.701 512.413 140.497 512.327 141.524 512.157L142.609 511.984V514.118L141.579 514.264C139.275 514.604 137.585 515.087 136.509 515.713C135.433 516.34 134.895 517.163 134.895 518.185C134.895 519.011 135.251 519.637 135.962 520.063C136.673 520.495 137.661 520.71 138.925 520.71C139.77 520.71 140.597 520.622 141.406 520.446C142.22 520.27 142.938 520.045 143.558 519.771V521.96ZM150.397 515.44C150.397 517.495 150.035 519.002 149.311 519.963C148.588 520.929 147.451 521.413 145.901 521.413C145.348 521.413 144.792 521.37 144.232 521.285V519.096C144.865 519.2 145.394 519.251 145.819 519.251C146.761 519.251 147.448 518.951 147.88 518.349C148.311 517.747 148.527 516.796 148.527 515.495C148.527 514.911 148.479 514.221 148.381 513.425L148.044 510.644L154.691 509.987L155.047 513.051C155.126 513.768 155.314 514.245 155.612 514.482C155.91 514.72 156.457 514.838 157.254 514.838V516.543L156.789 517.008C155.573 517.008 154.7 516.723 154.172 516.151C153.643 515.574 153.299 514.534 153.141 513.033L153.068 512.321L150.196 512.622L150.269 513.215C150.354 514.175 150.397 514.917 150.397 515.44ZM155.01 519.47C155.01 519.786 154.904 520.051 154.691 520.264C154.479 520.482 154.211 520.592 153.889 520.592C153.561 520.592 153.287 520.485 153.068 520.273C152.855 520.06 152.749 519.792 152.749 519.47C152.749 519.142 152.855 518.868 153.068 518.65C153.287 518.437 153.561 518.33 153.889 518.33C154.211 518.33 154.479 518.437 154.691 518.65C154.904 518.868 155.01 519.142 155.01 519.47ZM162.032 507.115C162.032 507.413 161.934 507.662 161.74 507.862C161.545 508.057 161.296 508.154 160.992 508.154C160.688 508.154 160.436 508.057 160.235 507.862C160.041 507.662 159.944 507.413 159.944 507.115C159.944 506.823 160.044 506.577 160.244 506.376C160.445 506.169 160.694 506.066 160.992 506.066C161.29 506.066 161.536 506.169 161.731 506.376C161.931 506.577 162.032 506.823 162.032 507.115ZM159.442 507.115C159.442 507.413 159.342 507.662 159.141 507.862C158.947 508.057 158.697 508.154 158.393 508.154C158.089 508.154 157.837 508.057 157.637 507.862C157.442 507.662 157.345 507.413 157.345 507.115C157.345 506.823 157.445 506.577 157.646 506.376C157.846 506.169 158.096 506.066 158.393 506.066C158.691 506.066 158.941 506.169 159.141 506.376C159.342 506.577 159.442 506.823 159.442 507.115ZM157.345 517.008H156.789V515.294L157.254 514.838C158.007 514.838 158.527 514.671 158.813 514.337C159.105 513.996 159.251 513.431 159.251 512.641C159.251 511.777 159.15 510.674 158.95 509.331H160.892C161.068 510.71 161.156 511.875 161.156 512.823C161.156 515.613 159.886 517.008 157.345 517.008Z" fill="white"/>
</g>
<path d="M12 581.008C12 566.097 24.0883 554.008 39 554.008H222C236.912 554.008 249 566.097 249 581.008V581.008C249 595.92 236.912 608.008 222 608.008H39C24.0883 608.008 12 595.92 12 581.008V581.008Z" fill="white"/>
<path d="M81.0414 574.443C81.0414 574.759 80.9319 575.027 80.7131 575.245C80.5003 575.458 80.2359 575.565 79.9198 575.565C79.5915 575.565 79.318 575.458 79.0991 575.245C78.8864 575.033 78.78 574.765 78.78 574.443C78.78 574.115 78.8864 573.844 79.0991 573.631C79.318 573.413 79.5915 573.303 79.9198 573.303C80.242 573.303 80.5094 573.413 80.7222 573.631C80.935 573.844 81.0414 574.115 81.0414 574.443ZM78.2785 574.443C78.2785 574.765 78.169 575.033 77.9502 575.245C77.7374 575.458 77.4669 575.565 77.1386 575.565C76.8165 575.565 76.549 575.458 76.3362 575.245C76.1235 575.027 76.0171 574.759 76.0171 574.443C76.0171 574.115 76.1235 573.844 76.3362 573.631C76.549 573.413 76.8165 573.303 77.1386 573.303C77.4669 573.303 77.7374 573.413 77.9502 573.631C78.169 573.844 78.2785 574.115 78.2785 574.443ZM83.3392 586.543L82.8742 587.008C81.9988 587.008 81.3362 586.838 80.8863 586.498C80.4426 586.157 80.1508 585.604 80.011 584.838C79.5794 585.999 78.6584 586.58 77.2481 586.58C76.245 586.58 75.4608 586.3 74.8955 585.741C74.3362 585.175 74.0566 584.397 74.0566 583.407C74.0566 581.802 75.0201 580.562 76.9472 579.686L79.8104 578.346V576.741H81.7891V583.014C81.7891 583.677 81.9076 584.148 82.1447 584.428C82.3818 584.701 82.7799 584.838 83.3392 584.838V586.543ZM75.6979 583.16C75.6979 583.555 75.8438 583.862 76.1356 584.081C76.4274 584.3 76.856 584.41 77.4213 584.41C78.2237 584.41 78.8225 584.258 79.2177 583.954C79.6128 583.65 79.8104 583.166 79.8104 582.504V580.06L77.5307 581.127C76.8924 581.431 76.4274 581.744 76.1356 582.066C75.8438 582.382 75.6979 582.747 75.6979 583.16ZM89.0839 586.543L88.6188 587.008C86.8863 587.008 85.8893 586.343 85.628 585.011C85.3605 586.343 84.4395 587.008 82.8651 587.008V585.294L83.3301 584.838C84.0231 584.838 84.5094 584.671 84.7891 584.337C85.0748 584.002 85.2176 583.437 85.2176 582.641V572.72H87.1781V582.641C87.1781 583.109 87.2054 583.482 87.2602 583.762C87.3149 584.036 87.4182 584.258 87.5702 584.428C87.7282 584.592 87.9197 584.701 88.1447 584.756C88.3757 584.811 88.6887 584.838 89.0839 584.838V586.543ZM103.883 587.008C103.117 587.008 102.488 586.841 101.996 586.507C101.503 586.172 101.181 585.698 101.029 585.084C100.926 585.783 100.676 586.309 100.281 586.662C99.8862 587.014 99.3756 587.191 98.7494 587.191C98.1415 587.191 97.6188 587.023 97.1811 586.689C96.7495 586.355 96.4637 585.884 96.3239 585.276C96.099 586.552 95.3513 587.191 94.0808 587.191C93.3635 587.191 92.7738 587.014 92.3118 586.662C91.8498 586.309 91.5489 585.808 91.4091 585.157C91.1598 586.391 90.2267 587.008 88.6097 587.008V585.294L89.0747 584.838C90.3574 584.838 90.9987 584.197 90.9987 582.914L90.9805 581.948H92.8863V582.914C92.8863 583.625 93.0109 584.151 93.2601 584.492C93.5094 584.826 93.9015 584.993 94.4364 584.993C94.8619 584.993 95.1993 584.82 95.4486 584.473C95.7039 584.121 95.8315 583.601 95.8315 582.914V581.948H97.7191L97.7373 582.914C97.7373 583.601 97.865 584.121 98.1203 584.473C98.3817 584.82 98.7221 584.993 99.1415 584.993C99.5853 584.993 99.9288 584.814 100.172 584.455C100.415 584.09 100.537 583.577 100.537 582.914V581.291H102.424V582.914C102.424 583.577 102.576 584.063 102.88 584.373C103.19 584.683 103.68 584.838 104.348 584.838V586.543L103.883 587.008ZM104.658 587.008H103.892V585.294L104.357 584.838C105.123 584.838 105.631 584.674 105.88 584.346C106.135 584.017 106.263 583.355 106.263 582.358V572.72H108.242V582.641C108.242 584.136 107.95 585.239 107.366 585.951C106.783 586.656 105.88 587.008 104.658 587.008ZM112.801 587.008H110.841V572.72H112.801V587.008ZM132.287 588.002C132.287 588.975 131.695 589.796 130.509 590.464C129.324 591.133 127.795 591.467 125.923 591.467C123.728 591.467 122.099 591.051 121.035 590.218C119.971 589.385 119.439 588.136 119.439 586.47C119.439 585.637 119.546 584.777 119.758 583.89H121.609C121.433 584.856 121.345 585.58 121.345 586.06C121.345 587.124 121.731 587.92 122.503 588.449C123.275 588.984 124.464 589.251 126.068 589.251C127.479 589.251 128.582 589.106 129.378 588.814C130.175 588.528 130.573 588.127 130.573 587.61C130.573 587.312 130.415 587.048 130.099 586.817C129.789 586.586 129.336 586.47 128.74 586.47H126.688V584.3H128.576C129.36 584.3 129.895 584.169 130.181 583.908C130.467 583.647 130.609 583.2 130.609 582.568V572.72H132.588V582.568C132.588 583.522 132.457 584.282 132.196 584.847C131.935 585.413 131.524 585.811 130.965 586.042C131.846 586.437 132.287 587.09 132.287 588.002ZM137.202 587.008H135.242V572.72H137.202V587.008ZM138.16 591.786L134.166 592.352V591.039L134.986 590.929C134.634 590.631 134.457 590.245 134.457 589.771C134.47 589.273 134.643 588.859 134.977 588.531C135.318 588.203 135.743 588.039 136.254 588.039C136.71 588.039 137.081 588.179 137.366 588.458C137.658 588.744 137.822 589.133 137.859 589.625L136.947 589.753C136.783 589.479 136.533 589.343 136.199 589.343C135.98 589.343 135.807 589.391 135.679 589.489C135.552 589.592 135.488 589.735 135.488 589.917C135.488 590.178 135.619 590.382 135.88 590.528C136.141 590.68 136.457 590.726 136.828 590.665L138.16 590.482V591.786ZM150.36 574.443C150.36 574.759 150.251 575.027 150.032 575.245C149.819 575.458 149.555 575.565 149.238 575.565C148.91 575.565 148.637 575.458 148.418 575.245C148.205 575.033 148.099 574.765 148.099 574.443C148.099 574.115 148.205 573.844 148.418 573.631C148.637 573.413 148.91 573.303 149.238 573.303C149.561 573.303 149.828 573.413 150.041 573.631C150.254 573.844 150.36 574.115 150.36 574.443ZM147.597 574.443C147.597 574.765 147.488 575.033 147.269 575.245C147.056 575.458 146.786 575.565 146.457 575.565C146.135 575.565 145.868 575.458 145.655 575.245C145.442 575.027 145.336 574.759 145.336 574.443C145.336 574.115 145.442 573.844 145.655 573.631C145.868 573.413 146.135 573.303 146.457 573.303C146.786 573.303 147.056 573.413 147.269 573.631C147.488 573.844 147.597 574.115 147.597 574.443ZM152.658 586.543L152.193 587.008C151.317 587.008 150.655 586.838 150.205 586.498C149.761 586.157 149.469 585.604 149.33 584.838C148.898 585.999 147.977 586.58 146.567 586.58C145.564 586.58 144.78 586.3 144.214 585.741C143.655 585.175 143.375 584.397 143.375 583.407C143.375 581.802 144.339 580.562 146.266 579.686L149.129 578.346V576.741H151.108V583.014C151.108 583.677 151.226 584.148 151.463 584.428C151.7 584.701 152.099 584.838 152.658 584.838V586.543ZM145.017 583.16C145.017 583.555 145.163 583.862 145.454 584.081C145.746 584.3 146.175 584.41 146.74 584.41C147.542 584.41 148.141 584.258 148.536 583.954C148.931 583.65 149.129 583.166 149.129 582.504V580.06L146.849 581.127C146.211 581.431 145.746 581.744 145.454 582.066C145.163 582.382 145.017 582.747 145.017 583.16ZM157.746 573.841C157.746 574.169 157.64 574.44 157.427 574.653C157.214 574.859 156.947 574.963 156.624 574.963C156.296 574.963 156.023 574.859 155.804 574.653C155.591 574.44 155.485 574.169 155.485 573.841C155.485 573.519 155.591 573.252 155.804 573.039C156.023 572.826 156.296 572.72 156.624 572.72C156.941 572.72 157.205 572.829 157.418 573.048C157.637 573.261 157.746 573.525 157.746 573.841ZM155.658 587.008H152.184V585.294L152.649 584.838H155.731C156.187 584.838 156.551 584.835 156.825 584.829C157.099 584.817 157.372 584.793 157.646 584.756C157.925 584.72 158.138 584.668 158.284 584.601C158.436 584.534 158.576 584.443 158.703 584.327C158.837 584.206 158.934 584.063 158.995 583.899C159.056 583.729 159.102 583.519 159.132 583.27C158.573 583.47 157.795 583.571 156.798 583.571C155.643 583.571 154.725 583.282 154.044 582.704C153.363 582.127 153.023 581.334 153.023 580.324C153.023 579.601 153.187 578.92 153.515 578.282C153.849 577.638 154.299 577.124 154.865 576.741C155.436 576.352 156.047 576.157 156.697 576.157C157.913 576.157 158.889 576.695 159.624 577.771C160.366 578.841 160.737 580.288 160.737 582.112C160.737 582.768 160.7 583.34 160.627 583.826C160.555 584.312 160.433 584.741 160.263 585.112C160.093 585.476 159.88 585.78 159.624 586.024C159.375 586.261 159.056 586.455 158.667 586.607C158.278 586.753 157.843 586.856 157.363 586.917C156.883 586.978 156.314 587.008 155.658 587.008ZM154.627 580.233C154.627 580.732 154.825 581.1 155.22 581.337C155.621 581.568 156.165 581.683 156.852 581.683C157.722 581.683 158.488 581.61 159.15 581.464C159.047 580.467 158.758 579.686 158.284 579.121C157.81 578.555 157.226 578.273 156.533 578.273C155.974 578.273 155.515 578.461 155.156 578.838C154.804 579.209 154.627 579.674 154.627 580.233ZM166.144 587.008H165.971C164.834 587.008 164.007 586.692 163.491 586.06C162.98 585.422 162.725 584.419 162.725 583.051V572.72H164.703V582.768C164.703 583.546 164.84 584.087 165.114 584.391C165.393 584.689 165.892 584.838 166.609 584.838V586.543L166.144 587.008ZM178.828 576.586C178.828 576.908 178.725 577.176 178.518 577.388C178.311 577.601 178.044 577.707 177.715 577.707C177.393 577.707 177.126 577.601 176.913 577.388C176.7 577.176 176.594 576.908 176.594 576.586C176.594 576.258 176.7 575.987 176.913 575.774C177.126 575.555 177.393 575.446 177.715 575.446C178.044 575.446 178.311 575.555 178.518 575.774C178.725 575.987 178.828 576.258 178.828 576.586ZM182.156 582.75C182.156 584.197 181.509 585.3 180.214 586.06C178.919 586.814 176.959 587.191 174.333 587.191C171.165 587.191 169.372 586.394 168.953 584.802C168.728 586.273 167.789 587.008 166.135 587.008V585.294L166.6 584.838C167.305 584.838 167.801 584.683 168.086 584.373C168.378 584.057 168.524 583.522 168.524 582.768V581.948H170.32V582.768C170.32 583.601 170.606 584.175 171.178 584.492C172.016 582.741 173.041 581.37 174.25 580.379C175.46 579.382 176.776 578.884 178.199 578.884C178.825 578.884 179.393 578.993 179.904 579.212C180.415 579.425 180.831 579.714 181.153 580.078C181.475 580.437 181.722 580.847 181.892 581.309C182.068 581.765 182.156 582.245 182.156 582.75ZM178.126 581.072C177.05 581.072 176.032 581.413 175.071 582.093C174.117 582.768 173.272 583.704 172.536 584.902C173.095 584.987 173.849 585.03 174.798 585.03C176.773 585.03 178.217 584.841 179.129 584.464C180.041 584.087 180.497 583.528 180.497 582.786C180.497 582.343 180.29 581.948 179.877 581.601C179.463 581.248 178.88 581.072 178.126 581.072ZM186.041 587.008H184.08V572.72H186.041V587.008ZM186.998 591.786L183.004 592.352V591.039L183.825 590.929C183.472 590.631 183.296 590.245 183.296 589.771C183.308 589.273 183.481 588.859 183.816 588.531C184.156 588.203 184.582 588.039 185.092 588.039C185.548 588.039 185.919 588.179 186.205 588.458C186.497 588.744 186.661 589.133 186.697 589.625L185.785 589.753C185.621 589.479 185.372 589.343 185.038 589.343C184.819 589.343 184.646 589.391 184.518 589.489C184.39 589.592 184.326 589.735 184.326 589.917C184.326 590.178 184.457 590.382 184.718 590.528C184.98 590.68 185.296 590.726 185.667 590.665L186.998 590.482V591.786Z" fill="#0F1324" fill-opacity="0.6"/>
<rect x="12" y="624.008" width="237" height="40" rx="8" fill="#27574F" fill-opacity="0.04"/>
<g clip-path="url(#clip3_2214_4362)">
<rect x="22" y="639" width="217" height="10" rx="5" fill="#0A0F29" fill-opacity="0.04"/>
<g clip-path="url(#clip4_2214_4362)">
<rect x="82" y="639.008" width="116" height="10" rx="5" fill="#2F7266"/>
</g>
</g>
<path d="M213.137 648.166C212.549 648.166 212.02 648.093 211.551 647.947C211.086 647.796 210.696 647.589 210.382 647.325C210.067 647.056 209.805 646.73 209.596 646.347C209.391 645.964 209.24 645.547 209.145 645.096C209.053 644.64 209.008 644.141 209.008 643.599V643.346C209.008 642.59 209.115 641.906 209.329 641.295C209.543 640.68 209.84 640.17 210.218 639.764C210.596 639.359 211.043 639.046 211.558 638.828C212.077 638.609 212.64 638.5 213.246 638.5C214.294 638.5 215.121 638.73 215.728 639.19C216.334 639.646 216.689 640.322 216.794 641.22H214.422C214.363 640.951 214.249 640.746 214.08 640.605C213.916 640.464 213.663 640.393 213.321 640.393C212.774 640.393 212.348 640.616 212.043 641.063C211.738 641.51 211.576 642.15 211.558 642.984C212.027 642.246 212.777 641.876 213.807 641.876C214.404 641.876 214.939 641.99 215.413 642.218C215.887 642.442 216.268 642.786 216.555 643.25C216.842 643.711 216.985 644.255 216.985 644.884C216.985 645.878 216.641 646.673 215.953 647.27C215.265 647.867 214.326 648.166 213.137 648.166ZM213.123 646.34C213.529 646.34 213.857 646.208 214.107 645.944C214.358 645.68 214.483 645.335 214.483 644.912C214.483 644.483 214.36 644.139 214.114 643.879C213.868 643.615 213.533 643.483 213.109 643.483C212.695 643.483 212.357 643.615 212.098 643.879C211.838 644.144 211.708 644.474 211.708 644.871C211.708 645.313 211.836 645.668 212.091 645.937C212.351 646.206 212.695 646.34 213.123 646.34ZM222.208 648.166C220.882 648.166 219.834 647.758 219.063 646.942C218.293 646.122 217.908 644.985 217.908 643.531V643.121C217.908 642.401 218.015 641.749 218.229 641.166C218.448 640.578 218.751 640.09 219.139 639.703C219.526 639.315 219.986 639.019 220.52 638.814C221.053 638.604 221.634 638.5 222.263 638.5C222.896 638.5 223.475 638.597 223.999 638.793C224.528 638.989 224.986 639.277 225.373 639.655C225.76 640.028 226.061 640.507 226.275 641.09C226.494 641.669 226.604 642.328 226.604 643.066V643.442C226.604 644.914 226.209 646.069 225.421 646.908C224.637 647.746 223.566 648.166 222.208 648.166ZM222.29 646.176C222.896 646.176 223.338 645.958 223.616 645.52C223.899 645.078 224.04 644.406 224.04 643.503V643.107C224.04 641.325 223.448 640.434 222.263 640.434C221.657 640.434 221.208 640.657 220.916 641.104C220.629 641.546 220.485 642.214 220.485 643.107V643.517C220.485 644.415 220.631 645.083 220.923 645.52C221.219 645.958 221.675 646.176 222.29 646.176ZM229.994 642.868C229.224 642.868 228.602 642.633 228.128 642.164C227.654 641.69 227.417 641.09 227.417 640.366C227.417 639.659 227.665 639.069 228.162 638.595C228.659 638.121 229.274 637.884 230.008 637.884C230.742 637.884 231.357 638.117 231.854 638.582C232.35 639.042 232.599 639.623 232.599 640.325C232.599 641.054 232.355 641.66 231.867 642.143C231.384 642.626 230.76 642.868 229.994 642.868ZM228.736 648.008L235.538 638H236.857L230.049 648.008H228.736ZM229.352 641.207C229.511 641.403 229.73 641.5 230.008 641.5C230.286 641.5 230.5 641.4 230.65 641.2C230.801 640.995 230.876 640.717 230.876 640.366C230.876 640.015 230.801 639.739 230.65 639.539C230.5 639.333 230.286 639.231 230.008 639.231C229.734 639.231 229.516 639.331 229.352 639.532C229.192 639.732 229.112 640.006 229.112 640.352C229.112 640.721 229.192 641.006 229.352 641.207ZM235.552 648.166C234.772 648.166 234.146 647.931 233.672 647.461C233.198 646.992 232.961 646.395 232.961 645.67C232.961 644.959 233.209 644.369 233.706 643.9C234.207 643.426 234.827 643.189 235.565 643.189C236.299 643.189 236.912 643.419 237.404 643.879C237.896 644.34 238.143 644.923 238.143 645.629C238.143 646.359 237.901 646.965 237.418 647.448C236.939 647.926 236.317 648.166 235.552 648.166ZM234.916 646.504C235.071 646.696 235.287 646.792 235.565 646.792C235.843 646.792 236.06 646.691 236.215 646.491C236.37 646.29 236.447 646.008 236.447 645.643C236.447 645.297 236.37 645.026 236.215 644.83C236.06 644.634 235.843 644.536 235.565 644.536C235.292 644.536 235.076 644.634 234.916 644.83C234.761 645.026 234.684 645.301 234.684 645.657C234.684 646.026 234.761 646.308 234.916 646.504Z" fill="#0D1126" fill-opacity="0.4"/>
<g clip-path="url(#clip5_2214_4362)">
<rect x="12" y="680.008" width="237" height="10" rx="5" fill="#0A0F29" fill-opacity="0.25"/>
</g>
<g clip-path="url(#clip6_2214_4362)">
<rect x="12" y="702.008" width="237" height="10" rx="5" fill="#0A0F29" fill-opacity="0.25"/>
</g>
<g clip-path="url(#clip7_2214_4362)">
<rect x="133" y="724.008" width="116" height="10" rx="5" fill="#0A0F29" fill-opacity="0.25"/>
</g>
</g>
<rect x="474" y="693" width="272" height="80" rx="24" fill="white"/>
<rect x="498" y="721" width="24" height="24" rx="12" fill="#DAEDE8"/>
<rect x="546" y="717" width="32" height="32" rx="16" fill="#428277"/>
<rect x="602" y="721" width="24" height="24" rx="12" fill="#A5CF4C"/>
<rect x="650" y="721" width="24" height="24" rx="12" fill="#C0B765"/>
<rect x="698" y="721" width="24" height="24" rx="12" fill="#A78BFA"/>
<defs>
<filter id="filter0_d_2214_4362" x="9.66567" y="482.841" width="241.669" height="58.6687" filterUnits="userSpaceOnUse" color-interpolation-filters="sRGB">
<feFlood flood-opacity="0" result="BackgroundImageFix"/>
<feColorMatrix in="SourceAlpha" type="matrix" values="0 0 0 0 0 0 0 0 0 0 0 0 0 0 0 0 0 0 127 0" result="hardAlpha"/>
<feOffset dy="1.16717"/>
<feGaussianBlur stdDeviation="1.16717"/>
<feComposite in2="hardAlpha" operator="out"/>
<feColorMatrix type="matrix" values="0 0 0 0 0.0784314 0 0 0 0 0.0823529 0 0 0 0 0.101961 0 0 0 0.05 0"/>
<feBlend mode="normal" in2="BackgroundImageFix" result="effect1_dropShadow_2214_4362"/>
<feBlend mode="normal" in="SourceGraphic" in2="effect1_dropShadow_2214_4362" result="shape"/>
</filter>
<clipPath id="clip0_2214_4362">
<rect width="71.3341" height="63.41" fill="white" transform="translate(532.846 15.812)"/>
</clipPath>
<clipPath id="clip1_2214_4362">
<rect y="123" width="261" height="623" rx="24" fill="white"/>
</clipPath>
<clipPath id="clip2_2214_4362">
<rect width="53.2841" height="47.3651" fill="white" transform="translate(182.432 148.317)"/>
</clipPath>
<clipPath id="clip3_2214_4362">
<rect width="176" height="10" fill="white" transform="translate(22 639.008)"/>
</clipPath>
<clipPath id="clip4_2214_4362">
<rect x="82" y="639.008" width="116" height="10" rx="5" fill="white"/>
</clipPath>
<clipPath id="clip5_2214_4362">
<rect x="12" y="680.008" width="237" height="10" rx="5" fill="white"/>
</clipPath>
<clipPath id="clip6_2214_4362">
<rect x="12" y="702.008" width="237" height="10" rx="5" fill="white"/>
</clipPath>
<clipPath id="clip7_2214_4362">
<rect x="133" y="724.008" width="116" height="10" rx="5" fill="white"/>
</clipPath>
</defs>
</svg>
