<svg width="746" height="746" viewBox="0 0 746 746" fill="none" xmlns="http://www.w3.org/2000/svg">
<rect width="578" height="375.394" transform="translate(168)" fill="white"/>
<rect x="176.027" y="7.91309" width="4.81667" height="4.81667" rx="2.40833" fill="#0A0F29" fill-opacity="0.25"/>
<rect x="184.055" y="7.91309" width="4.81667" height="4.81667" rx="2.40833" fill="#0A0F29" fill-opacity="0.25"/>
<rect x="192.082" y="7.91309" width="4.81667" height="4.81667" rx="2.40833" fill="#0A0F29" fill-opacity="0.25"/>
<rect x="343.846" y="3.82275" width="225.925" height="12.9974" rx="3.21111" fill="#0A0F29" fill-opacity="0.04"/>
<path d="M348.857 12.3854H350.877C351.205 12.3854 351.375 12.2107 351.375 11.8572V10.3286C351.375 10.0182 351.242 9.84572 350.983 9.81123V9.29812C350.983 8.5026 350.457 8.09082 349.869 8.09082C349.28 8.09082 348.754 8.5026 348.754 9.29812V9.81123C348.495 9.84572 348.359 10.0182 348.359 10.3286V11.8572C348.359 12.2107 348.53 12.3854 348.857 12.3854ZM349.157 9.25932C349.157 8.75268 349.483 8.47673 349.869 8.47673C350.252 8.47673 350.58 8.75268 350.58 9.25932V9.8026H349.157V9.25932Z" fill="#0D1126" fill-opacity="0.4"/>
<g clip-path="url(#clip0_2214_4028)">
<path d="M563.414 11.2L563.772 10.8401C563.49 10.8143 563.292 10.7249 563.146 10.5791C562.749 10.1816 562.749 9.61716 563.144 9.22205L563.925 8.44122C564.322 8.04375 564.884 8.04375 565.282 8.44122C565.682 8.84339 565.679 9.40314 565.284 9.79826L564.88 10.2028C564.955 10.3745 564.978 10.5838 564.938 10.7649L565.613 10.0922C566.192 9.51603 566.194 8.69758 565.611 8.11431C565.028 7.52869 564.209 7.53339 563.633 8.1096L562.815 8.93041C562.238 9.50663 562.234 10.3251 562.817 10.9084C562.956 11.0448 563.142 11.1482 563.414 11.2ZM563.621 9.21734L563.266 9.57718C563.546 9.60305 563.746 9.69478 563.89 9.83824C564.289 10.2381 564.289 10.8002 563.892 11.1953L563.111 11.9761C562.714 12.3736 562.154 12.3736 561.754 11.9761C561.354 11.5763 561.357 11.0142 561.754 10.6191L562.156 10.2145C562.083 10.0429 562.057 9.83589 562.097 9.65244L561.425 10.3251C560.846 10.9013 560.844 11.7221 561.427 12.3054C562.01 12.8886 562.829 12.8839 563.405 12.3077L564.221 11.4893C564.8 10.9107 564.802 10.0922 564.219 9.51133C564.082 9.37257 563.897 9.26909 563.621 9.21734Z" fill="#0D1126" fill-opacity="0.4"/>
</g>
<g clip-path="url(#clip1_2214_4028)">
<path d="M206.33 13.1657H211.555C212.213 13.1657 212.555 12.8241 212.555 12.1745V8.46287C212.555 7.81021 212.213 7.47168 211.555 7.47168H206.33C205.672 7.47168 205.33 7.81021 205.33 8.46287V12.1745C205.33 12.8271 205.672 13.1657 206.33 13.1657ZM206.367 12.5679C206.083 12.5679 205.928 12.4185 205.928 12.1226V8.51166C205.928 8.21583 206.083 8.06944 206.367 8.06944H207.755V12.5679H206.367ZM211.518 8.06944C211.799 8.06944 211.957 8.21583 211.957 8.51166V12.1226C211.957 12.4185 211.799 12.5679 211.518 12.5679H208.322V8.06944H211.518ZM207.157 9.18567C207.264 9.18567 207.355 9.09418 207.355 8.99049C207.355 8.88679 207.264 8.79835 207.157 8.79835H206.532C206.422 8.79835 206.33 8.88679 206.33 8.99049C206.33 9.09418 206.422 9.18567 206.532 9.18567H207.157ZM207.157 10.003C207.264 10.003 207.355 9.91153 207.355 9.80783C207.355 9.70414 207.264 9.6157 207.157 9.6157H206.532C206.422 9.6157 206.33 9.70414 206.33 9.80783C206.33 9.91153 206.422 10.003 206.532 10.003H207.157ZM207.157 10.8173C207.264 10.8173 207.355 10.7289 207.355 10.6252C207.355 10.5215 207.264 10.433 207.157 10.433H206.532C206.422 10.433 206.33 10.5215 206.33 10.6252C206.33 10.7289 206.422 10.8173 206.532 10.8173H207.157Z" fill="#0D1126" fill-opacity="0.4"/>
</g>
<path d="M226.846 10.4628C226.846 10.5569 226.886 10.6478 226.959 10.7168L229.025 12.7833C229.1 12.8554 229.185 12.8899 229.27 12.8899C229.467 12.8899 229.608 12.7488 229.608 12.5607C229.608 12.4635 229.571 12.3788 229.508 12.3192L228.806 11.6074L227.877 10.7607L228.611 10.8046H232.424C232.628 10.8046 232.772 10.6635 232.772 10.4628C232.772 10.259 232.628 10.121 232.424 10.121H228.611L227.881 10.1649L228.806 9.31821L229.508 8.60637C229.571 8.54365 229.608 8.45898 229.608 8.36177C229.608 8.17362 229.467 8.03564 229.27 8.03564C229.185 8.03564 229.1 8.067 229.019 8.1454L226.959 10.2088C226.886 10.2746 226.846 10.3687 226.846 10.4628Z" fill="#0D1126" fill-opacity="0.4"/>
<path d="M247.222 10.4628C247.222 10.3687 247.181 10.2746 247.109 10.2088L245.045 8.1454C244.967 8.067 244.882 8.03564 244.795 8.03564C244.6 8.03564 244.459 8.17362 244.459 8.36177C244.459 8.45898 244.497 8.54365 244.559 8.60637L245.262 9.31821L246.184 10.1649L245.456 10.121H241.643C241.436 10.121 241.295 10.259 241.295 10.4628C241.295 10.6635 241.436 10.8046 241.643 10.8046H245.456L246.187 10.7607L245.262 11.6074L244.559 12.3192C244.497 12.3788 244.459 12.4635 244.459 12.5607C244.459 12.7488 244.6 12.8899 244.795 12.8899C244.882 12.8899 244.964 12.8554 245.039 12.7833L247.109 10.7168C247.181 10.6478 247.222 10.5569 247.222 10.4628Z" fill="#0A0F29" fill-opacity="0.25"/>
<g clip-path="url(#clip2_2214_4028)">
<path d="M255.904 10.6884C255.904 12.2438 257.152 13.495 258.705 13.495C260.257 13.495 261.505 12.2438 261.505 10.6884C261.505 10.5034 261.376 10.3717 261.191 10.3717C261.013 10.3717 260.893 10.5034 260.893 10.6884C260.893 11.9051 259.918 12.8804 258.705 12.8804C257.491 12.8804 256.519 11.9051 256.519 10.6884C256.519 9.46543 257.485 8.49645 258.695 8.49645C258.902 8.49645 259.093 8.51213 259.253 8.54663L258.4 9.39331C258.344 9.45289 258.316 9.51874 258.316 9.60027C258.316 9.77274 258.444 9.90445 258.614 9.90445C258.701 9.90445 258.774 9.87623 258.827 9.81978L260.116 8.52154C260.182 8.45569 260.213 8.38043 260.213 8.29576C260.213 8.21423 260.178 8.13269 260.116 8.06998L258.827 6.76233C258.774 6.70275 258.701 6.67139 258.614 6.67139C258.444 6.67139 258.316 6.80936 258.316 6.9787C258.316 7.06023 258.344 7.13236 258.397 7.1888L259.156 7.93827C259.018 7.91005 258.858 7.89437 258.695 7.89437C257.146 7.89437 255.904 9.13617 255.904 10.6884Z" fill="#0D1126" fill-opacity="0.4"/>
</g>
<path d="M731.211 10.3245C731.211 10.4877 731.348 10.621 731.507 10.621H733.663V12.7767C733.663 12.9366 733.796 13.0732 733.96 13.0732C734.123 13.0732 734.26 12.9366 734.26 12.7767V10.621H736.412C736.572 10.621 736.708 10.4877 736.708 10.3245C736.708 10.1612 736.572 10.0246 736.412 10.0246H734.26V7.87222C734.26 7.71229 734.123 7.57568 733.96 7.57568C733.796 7.57568 733.663 7.71229 733.663 7.87222V10.0246H731.507C731.348 10.0246 731.211 10.1612 731.211 10.3245Z" fill="#0D1126" fill-opacity="0.4"/>
<g clip-path="url(#clip3_2214_4028)">
<path d="M719.508 13.7227C721.367 13.7227 722.906 12.1801 722.906 10.3243C722.906 8.46509 721.364 6.92578 719.505 6.92578C717.649 6.92578 716.109 8.46509 716.109 10.3243C716.109 12.1801 717.652 13.7227 719.508 13.7227ZM719.508 13.1563C717.935 13.1563 716.679 11.8969 716.679 10.3243C716.679 8.75163 717.932 7.49219 719.505 7.49219C721.077 7.49219 722.34 8.75163 722.34 10.3243C722.34 11.8969 721.08 13.1563 719.508 13.1563ZM719.508 8.62835C719.365 8.62835 719.258 8.73164 719.258 8.87824V10.5442L719.285 11.2472L718.951 10.8474L718.555 10.4475C718.508 10.4009 718.448 10.3742 718.378 10.3742C718.242 10.3742 718.138 10.4775 718.138 10.6141C718.138 10.6841 718.158 10.7441 718.202 10.7874L719.315 11.8936C719.381 11.9602 719.438 11.9902 719.508 11.9902C719.581 11.9902 719.641 11.9569 719.704 11.8936L720.814 10.7874C720.857 10.7441 720.884 10.6841 720.884 10.6141C720.884 10.4775 720.777 10.3742 720.641 10.3742C720.567 10.3742 720.507 10.3976 720.464 10.4475L720.071 10.8474L719.731 11.2505L719.758 10.5442V8.87824C719.758 8.73164 719.654 8.62835 719.508 8.62835Z" fill="#0D1126" fill-opacity="0.4"/>
</g>
<g clip-path="url(#clip4_2214_4028)">
<rect x="171.822" y="24.8477" width="570.354" height="346.724" rx="3.82275" fill="#FAFAF9"/>
<path d="M192.209 61.5462C192.209 60.6649 192.321 59.8097 192.531 58.9941C193.642 59.0517 194.746 58.4985 195.34 57.4686C195.935 56.4394 195.863 55.2085 195.258 54.275C196.474 53.0805 197.987 52.1885 199.677 51.7207C200.183 52.7121 201.214 53.391 202.403 53.391C203.592 53.391 204.623 52.7121 205.129 51.7207C206.819 52.1885 208.332 53.0805 209.548 54.275C208.943 55.2085 208.871 56.4394 209.466 57.4686C210.06 58.4985 211.164 59.0517 212.275 58.9941C212.485 59.8097 212.597 60.6649 212.597 61.5462C212.597 62.4274 212.485 63.2826 212.275 64.0982C211.164 64.0406 210.06 64.5939 209.466 65.6238C208.871 66.653 208.943 67.8839 209.548 68.8173C208.332 70.0118 206.819 70.9039 205.129 71.3717C204.623 70.3803 203.592 69.7014 202.403 69.7014C201.214 69.7014 200.183 70.3803 199.677 71.3717C197.987 70.9039 196.474 70.0118 195.258 68.8173C195.863 67.8839 195.935 66.653 195.34 65.6238C194.746 64.5939 193.642 64.0406 192.531 64.0982C192.321 63.2826 192.209 62.4274 192.209 61.5462ZM197.106 64.6044C197.748 65.7169 197.932 66.996 197.681 68.1965C198.097 68.4924 198.54 68.7486 199.003 68.9616C199.917 68.1431 201.118 67.6626 202.403 67.6626C203.688 67.6626 204.888 68.1431 205.803 68.9616C206.266 68.7486 206.709 68.4924 207.125 68.1965C206.873 66.996 207.058 65.7169 207.7 64.6044C208.342 63.4919 209.358 62.693 210.523 62.3102C210.546 62.0576 210.558 61.8028 210.558 61.5462C210.558 61.2896 210.546 61.0347 210.523 60.7822C209.358 60.3994 208.342 59.6005 207.7 58.488C207.058 57.3754 206.873 56.0964 207.125 54.8959C206.709 54.6001 206.266 54.3438 205.803 54.1308C204.888 54.9493 203.688 55.4298 202.403 55.4298C201.118 55.4298 199.917 54.9493 199.003 54.1308C198.54 54.3438 198.097 54.6001 197.681 54.8959C197.932 56.0964 197.748 57.3754 197.106 58.488C196.464 59.6005 195.448 60.3994 194.283 60.7822C194.26 61.0347 194.248 61.2896 194.248 61.5462C194.248 61.8028 194.26 62.0576 194.283 62.3102C195.448 62.693 196.464 63.4919 197.106 64.6044ZM202.403 64.6044C200.714 64.6044 199.345 63.2352 199.345 61.5462C199.345 59.8572 200.714 58.488 202.403 58.488C204.092 58.488 205.461 59.8572 205.461 61.5462C205.461 63.2352 204.092 64.6044 202.403 64.6044ZM202.403 62.5656C202.966 62.5656 203.422 62.1092 203.422 61.5462C203.422 60.9831 202.966 60.5268 202.403 60.5268C201.84 60.5268 201.384 60.9831 201.384 61.5462C201.384 62.1092 201.84 62.5656 202.403 62.5656Z" fill="#2F7266"/>
<path d="M224.832 71.7404C224.832 67.2364 228.483 63.5852 232.987 63.5852C237.491 63.5852 241.142 67.2364 241.142 71.7404H239.104C239.104 68.3624 236.365 65.624 232.987 65.624C229.609 65.624 226.871 68.3624 226.871 71.7404H224.832ZM232.987 62.5658C229.608 62.5658 226.871 59.8287 226.871 56.4494C226.871 53.0701 229.608 50.333 232.987 50.333C236.367 50.333 239.104 53.0701 239.104 56.4494C239.104 59.8287 236.367 62.5658 232.987 62.5658ZM232.987 60.527C235.24 60.527 237.065 58.7023 237.065 56.4494C237.065 54.1965 235.24 52.3718 232.987 52.3718C230.734 52.3718 228.91 54.1965 228.91 56.4494C228.91 58.7023 230.734 60.527 232.987 60.527Z" fill="#2F7266"/>
<g clip-path="url(#clip5_2214_4028)">
<path d="M713.715 61.0477C713.715 64.4427 715.56 67.4041 718.301 68.99V70.2198H713.715V79.3952C718.783 79.3952 722.89 75.2882 722.89 70.2198V51.8755H713.715V61.0509V61.0477Z" fill="#428277"/>
<path d="M686.192 51.8763C686.192 55.2713 688.036 58.2327 690.778 59.8186V61.0485H681.605V70.2239H686.192C691.26 70.2239 695.367 66.1168 695.367 61.0485V51.873H686.192V51.8763Z" fill="#428277"/>
<path d="M722.89 42.7007H713.715V47.2868H722.89V42.7007Z" fill="#428277"/>
<path d="M699.953 42.7007C699.953 46.0957 701.798 49.0571 704.539 50.643V51.8729H699.953V70.2204C705.021 70.2204 709.129 66.1134 709.129 61.045V42.7007H699.953Z" fill="#428277"/>
</g>
<g clip-path="url(#clip6_2214_4028)">
<path d="M674.495 108.634C674.495 109.023 674.364 109.348 674.101 109.611C673.844 109.868 673.524 109.996 673.142 109.996C672.748 109.996 672.416 109.865 672.148 109.602C671.879 109.339 671.745 109.017 671.745 108.634C671.745 108.24 671.879 107.912 672.148 107.649C672.416 107.38 672.748 107.246 673.142 107.246C673.524 107.246 673.844 107.38 674.101 107.649C674.364 107.912 674.495 108.24 674.495 108.634ZM671.323 108.634C671.323 109.023 671.192 109.348 670.929 109.611C670.672 109.868 670.35 109.996 669.962 109.996C669.567 109.996 669.236 109.868 668.967 109.611C668.704 109.348 668.573 109.023 668.573 108.634C668.573 108.24 668.704 107.912 668.967 107.649C669.236 107.38 669.567 107.246 669.962 107.246C670.35 107.246 670.672 107.38 670.929 107.649C671.192 107.912 671.323 108.24 671.323 108.634ZM679.306 112.568C679.306 114.258 678.679 115.498 677.425 116.286C676.177 117.074 674.223 117.469 671.565 117.469C668.848 117.469 666.882 117.056 665.67 116.232C664.457 115.402 663.851 114.07 663.851 112.236C663.851 111.322 663.956 110.483 664.165 109.719H666.862C666.694 110.459 666.611 111.089 666.611 111.609C666.611 112.541 666.987 113.204 667.74 113.598C668.498 113.986 669.773 114.18 671.565 114.18C673.453 114.18 674.758 114.04 675.481 113.759C676.209 113.473 676.574 112.953 676.574 112.2C676.574 111.46 676.469 110.42 676.26 109.082H679.029C679.214 110.408 679.306 111.57 679.306 112.568ZM684.61 117.245H684.36C683.087 117.245 682.173 116.916 681.618 116.259C681.068 115.602 680.794 114.566 680.794 113.15V103.429H683.732V112.478C683.732 113.093 683.837 113.517 684.046 113.75C684.261 113.977 684.658 114.091 685.238 114.091V116.635L684.61 117.245ZM686.411 117.245H684.628V114.637L685.238 114.091H687.039C686.268 113.482 685.883 112.648 685.883 111.591C685.883 110.426 686.271 109.459 687.047 108.688C687.83 107.912 688.842 107.523 690.085 107.523C691.375 107.523 692.393 107.888 693.14 108.617C693.893 109.345 694.281 110.429 694.305 111.869H691.859C691.757 111.499 691.533 111.212 691.187 111.009C690.846 110.8 690.434 110.695 689.95 110.695C689.359 110.695 688.896 110.818 688.562 111.063C688.227 111.307 688.06 111.651 688.06 112.093C688.06 112.613 688.323 113.013 688.848 113.293C689.374 113.568 690.115 113.706 691.07 113.706C691.781 113.706 692.564 113.643 693.418 113.517L694.78 113.356V116.402L693.436 116.635C692.301 116.856 691.199 117.015 690.13 117.11C689.066 117.2 687.827 117.245 686.411 117.245ZM700.576 115.3C700.576 117.51 700.185 119.132 699.403 120.165C698.62 121.205 697.39 121.724 695.711 121.724C695.156 121.724 694.6 121.692 694.045 121.626V118.418C694.606 118.514 695.138 118.562 695.64 118.562C696.452 118.562 697.031 118.317 697.378 117.827C697.724 117.337 697.898 116.531 697.898 115.408C697.898 114.751 697.841 113.986 697.727 113.114L697.405 110.364L705.164 109.719L705.477 112.586C705.543 113.165 705.692 113.562 705.925 113.777C706.158 113.986 706.576 114.091 707.18 114.091V116.635L706.579 117.245C705.379 117.245 704.501 116.94 703.945 116.331C703.39 115.716 703.007 114.631 702.798 113.078L700.469 113.267C700.541 114.198 700.576 114.876 700.576 115.3ZM705.379 119.682C705.379 120.07 705.247 120.392 704.985 120.649C704.728 120.912 704.402 121.043 704.008 121.043C703.62 121.043 703.291 120.912 703.022 120.649C702.76 120.386 702.628 120.064 702.628 119.682C702.628 119.287 702.76 118.959 703.022 118.696C703.291 118.439 703.62 118.311 704.008 118.311C704.402 118.311 704.728 118.439 704.985 118.696C705.247 118.959 705.379 119.287 705.379 119.682ZM712.672 108.178C712.672 108.5 712.561 108.772 712.34 108.993C712.119 109.208 711.845 109.315 711.516 109.315C711.188 109.315 710.913 109.208 710.692 108.993C710.471 108.772 710.36 108.5 710.36 108.178C710.36 107.837 710.468 107.556 710.683 107.335C710.904 107.114 711.182 107.004 711.516 107.004C711.851 107.004 712.125 107.114 712.34 107.335C712.561 107.556 712.672 107.837 712.672 108.178ZM709.921 108.178C709.921 108.5 709.811 108.772 709.59 108.993C709.375 109.208 709.1 109.315 708.765 109.315C708.437 109.315 708.162 109.208 707.941 108.993C707.72 108.772 707.61 108.5 707.61 108.178C707.61 107.837 707.717 107.556 707.932 107.335C708.153 107.114 708.431 107.004 708.765 107.004C709.106 107.004 709.384 107.114 709.599 107.335C709.814 107.556 709.921 107.837 709.921 108.178ZM713.039 116.635L712.439 117.245C711.543 117.245 710.826 117.051 710.289 116.662C709.751 116.268 709.414 115.698 709.276 114.951C709.175 115.698 708.894 116.268 708.434 116.662C707.974 117.051 707.356 117.245 706.579 117.245V114.637L707.189 114.091C707.774 114.091 708.183 113.962 708.416 113.706C708.649 113.443 708.765 113.007 708.765 112.398V110.364H711.498V112.398C711.498 113.049 711.609 113.494 711.83 113.732C712.051 113.971 712.454 114.091 713.039 114.091V116.635ZM713.505 117.245H712.439V114.637L713.048 114.091C713.645 114.091 714.046 113.968 714.249 113.724C714.452 113.479 714.553 112.995 714.553 112.272V103.429H717.474V112.398C717.474 114.058 717.152 115.282 716.507 116.071C715.861 116.853 714.861 117.245 713.505 117.245ZM722.366 117.245H719.454V103.429H722.366V117.245Z" fill="#14151A"/>
<g clip-path="url(#clip7_2214_4028)">
<rect x="190.172" y="133.419" width="533.656" height="167.819" rx="9.1746" fill="white"/>
<g clip-path="url(#clip8_2214_4028)">
<mask id="path-22-inside-1_2214_4028" fill="white">
<path d="M190.172 133.419H323.586V301.238H190.172V133.419Z"/>
</mask>
<mask id="path-24-inside-2_2214_4028" fill="white">
<path d="M190.172 133.419H323.586V175.374H190.172V133.419Z"/>
</mask>
<path d="M190.172 175.565H193.204V175.183H190.172V175.565ZM199.268 175.565H205.333V175.183H199.268V175.565ZM211.397 175.565H217.461V175.183H211.397V175.565ZM223.525 175.565H229.59V175.183H223.525V175.565ZM235.654 175.565H241.718V175.183H235.654V175.565ZM247.782 175.565H253.847V175.183H247.782V175.565ZM259.911 175.565H265.975V175.183H259.911V175.565ZM272.04 175.565H278.104V175.183H272.04V175.565ZM284.168 175.565H290.232V175.183H284.168V175.565ZM296.297 175.565H302.361V175.183H296.297V175.565ZM308.425 175.565H314.489V175.183H308.425V175.565ZM320.554 175.565H323.586V175.183H320.554V175.565ZM190.172 175.756H193.204V174.992H190.172V175.756ZM199.268 175.756H205.333V174.992H199.268V175.756ZM211.397 175.756H217.461V174.992H211.397V175.756ZM223.525 175.756H229.59V174.992H223.525V175.756ZM235.654 175.756H241.718V174.992H235.654V175.756ZM247.782 175.756H253.847V174.992H247.782V175.756ZM259.911 175.756H265.975V174.992H259.911V175.756ZM272.04 175.756H278.104V174.992H272.04V175.756ZM284.168 175.756H290.232V174.992H284.168V175.756ZM296.297 175.756H302.361V174.992H296.297V175.756ZM308.425 175.756H314.489V174.992H308.425V175.756ZM320.554 175.756H323.586V174.992H320.554V175.756Z" fill="#0D1126" fill-opacity="0.4" mask="url(#path-24-inside-2_2214_4028)"/>
<mask id="path-26-inside-3_2214_4028" fill="white">
<path d="M190.172 175.374H323.586V217.329H190.172V175.374Z"/>
</mask>
<path d="M190.172 217.52H193.204V217.138H190.172V217.52ZM199.268 217.52H205.333V217.138H199.268V217.52ZM211.397 217.52H217.461V217.138H211.397V217.52ZM223.525 217.52H229.59V217.138H223.525V217.52ZM235.654 217.52H241.718V217.138H235.654V217.52ZM247.782 217.52H253.847V217.138H247.782V217.52ZM259.911 217.52H265.975V217.138H259.911V217.52ZM272.04 217.52H278.104V217.138H272.04V217.52ZM284.168 217.52H290.232V217.138H284.168V217.52ZM296.297 217.52H302.361V217.138H296.297V217.52ZM308.425 217.52H314.489V217.138H308.425V217.52ZM320.554 217.52H323.586V217.138H320.554V217.52ZM190.172 217.711H193.204V216.946H190.172V217.711ZM199.268 217.711H205.333V216.946H199.268V217.711ZM211.397 217.711H217.461V216.946H211.397V217.711ZM223.525 217.711H229.59V216.946H223.525V217.711ZM235.654 217.711H241.718V216.946H235.654V217.711ZM247.782 217.711H253.847V216.946H247.782V217.711ZM259.911 217.711H265.975V216.946H259.911V217.711ZM272.04 217.711H278.104V216.946H272.04V217.711ZM284.168 217.711H290.232V216.946H284.168V217.711ZM296.297 217.711H302.361V216.946H296.297V217.711ZM308.425 217.711H314.489V216.946H308.425V217.711ZM320.554 217.711H323.586V216.946H320.554V217.711Z" fill="#0D1126" fill-opacity="0.4" mask="url(#path-26-inside-3_2214_4028)"/>
<mask id="path-28-inside-4_2214_4028" fill="white">
<path d="M190.172 217.329H323.586V259.283H190.172V217.329Z"/>
</mask>
<path d="M190.172 259.474H193.204V259.092H190.172V259.474ZM199.268 259.474H205.333V259.092H199.268V259.474ZM211.397 259.474H217.461V259.092H211.397V259.474ZM223.525 259.474H229.59V259.092H223.525V259.474ZM235.654 259.474H241.718V259.092H235.654V259.474ZM247.782 259.474H253.847V259.092H247.782V259.474ZM259.911 259.474H265.975V259.092H259.911V259.474ZM272.04 259.474H278.104V259.092H272.04V259.474ZM284.168 259.474H290.232V259.092H284.168V259.474ZM296.297 259.474H302.361V259.092H296.297V259.474ZM308.425 259.474H314.489V259.092H308.425V259.474ZM320.554 259.474H323.586V259.092H320.554V259.474ZM190.172 259.666H193.204V258.901H190.172V259.666ZM199.268 259.666H205.333V258.901H199.268V259.666ZM211.397 259.666H217.461V258.901H211.397V259.666ZM223.525 259.666H229.59V258.901H223.525V259.666ZM235.654 259.666H241.718V258.901H235.654V259.666ZM247.782 259.666H253.847V258.901H247.782V259.666ZM259.911 259.666H265.975V258.901H259.911V259.666ZM272.04 259.666H278.104V258.901H272.04V259.666ZM284.168 259.666H290.232V258.901H284.168V259.666ZM296.297 259.666H302.361V258.901H296.297V259.666ZM308.425 259.666H314.489V258.901H308.425V259.666ZM320.554 259.666H323.586V258.901H320.554V259.666Z" fill="#0D1126" fill-opacity="0.4" mask="url(#path-28-inside-4_2214_4028)"/>
</g>
<path d="M323.777 301.238V298.241H323.395V301.238H323.777ZM323.777 292.248V286.254H323.395V292.248H323.777ZM323.777 280.261V274.267H323.395V280.261H323.777ZM323.777 268.274V262.28H323.395V268.274H323.777ZM323.777 256.287V250.293H323.395V256.287H323.777ZM323.777 244.3V238.306H323.395V244.3H323.777ZM323.777 232.313V226.319H323.395V232.313H323.777ZM323.777 220.326V214.332H323.395V220.326H323.777ZM323.777 208.339V202.345H323.395V208.339H323.777ZM323.777 196.351V190.358H323.395V196.351H323.777ZM323.777 184.364V178.371H323.395V184.364H323.777ZM323.777 172.377V166.384H323.395V172.377H323.777ZM323.777 160.39V154.397H323.395V160.39H323.777ZM323.777 148.403V142.41H323.395V148.403H323.777ZM323.777 136.416V133.419H323.395V136.416H323.777ZM323.968 301.238V298.241H323.204V301.238H323.968ZM323.968 292.248V286.254H323.204V292.248H323.968ZM323.968 280.261V274.267H323.204V280.261H323.968ZM323.968 268.274V262.28H323.204V268.274H323.968ZM323.968 256.287V250.293H323.204V256.287H323.968ZM323.968 244.3V238.306H323.204V244.3H323.968ZM323.968 232.313V226.319H323.204V232.313H323.968ZM323.968 220.326V214.332H323.204V220.326H323.968ZM323.968 208.339V202.345H323.204V208.339H323.968ZM323.968 196.351V190.358H323.204V196.351H323.968ZM323.968 184.364V178.371H323.204V184.364H323.968ZM323.968 172.377V166.384H323.204V172.377H323.968ZM323.968 160.39V154.397H323.204V160.39H323.968ZM323.968 148.403V142.41H323.204V148.403H323.968ZM323.968 136.416V133.419H323.204V136.416H323.968Z" fill="#0D1126" fill-opacity="0.4" mask="url(#path-22-inside-1_2214_4028)"/>
<g clip-path="url(#clip9_2214_4028)">
<mask id="path-30-inside-5_2214_4028" fill="white">
<path d="M323.586 133.419H457V301.238H323.586V133.419Z"/>
</mask>
<mask id="path-32-inside-6_2214_4028" fill="white">
<path d="M323.586 133.419H457V175.374H323.586V133.419Z"/>
</mask>
<path d="M323.586 175.565H326.618V175.183H323.586V175.565ZM332.682 175.565H338.747V175.183H332.682V175.565ZM344.811 175.565H350.875V175.183H344.811V175.565ZM356.939 175.565H363.004V175.183H356.939V175.565ZM369.068 175.565H375.132V175.183H369.068V175.565ZM381.197 175.565H387.261V175.183H381.197V175.565ZM393.325 175.565H399.389V175.183H393.325V175.565ZM405.454 175.565H411.518V175.183H405.454V175.565ZM417.582 175.565H423.646V175.183H417.582V175.565ZM429.711 175.565H435.775V175.183H429.711V175.565ZM441.839 175.565H447.904V175.183H441.839V175.565ZM453.968 175.565H457V175.183H453.968V175.565ZM323.586 175.756H326.618V174.992H323.586V175.756ZM332.682 175.756H338.747V174.992H332.682V175.756ZM344.811 175.756H350.875V174.992H344.811V175.756ZM356.939 175.756H363.004V174.992H356.939V175.756ZM369.068 175.756H375.132V174.992H369.068V175.756ZM381.197 175.756H387.261V174.992H381.197V175.756ZM393.325 175.756H399.389V174.992H393.325V175.756ZM405.454 175.756H411.518V174.992H405.454V175.756ZM417.582 175.756H423.646V174.992H417.582V175.756ZM429.711 175.756H435.775V174.992H429.711V175.756ZM441.839 175.756H447.904V174.992H441.839V175.756ZM453.968 175.756H457V174.992H453.968V175.756Z" fill="#0D1126" fill-opacity="0.4" mask="url(#path-32-inside-6_2214_4028)"/>
<mask id="path-34-inside-7_2214_4028" fill="white">
<path d="M323.586 175.374H457V217.329H323.586V175.374Z"/>
</mask>
<path d="M323.586 217.52H326.618V217.138H323.586V217.52ZM332.682 217.52H338.747V217.138H332.682V217.52ZM344.811 217.52H350.875V217.138H344.811V217.52ZM356.939 217.52H363.004V217.138H356.939V217.52ZM369.068 217.52H375.132V217.138H369.068V217.52ZM381.197 217.52H387.261V217.138H381.197V217.52ZM393.325 217.52H399.389V217.138H393.325V217.52ZM405.454 217.52H411.518V217.138H405.454V217.52ZM417.582 217.52H423.646V217.138H417.582V217.52ZM429.711 217.52H435.775V217.138H429.711V217.52ZM441.839 217.52H447.904V217.138H441.839V217.52ZM453.968 217.52H457V217.138H453.968V217.52ZM323.586 217.711H326.618V216.946H323.586V217.711ZM332.682 217.711H338.747V216.946H332.682V217.711ZM344.811 217.711H350.875V216.946H344.811V217.711ZM356.939 217.711H363.004V216.946H356.939V217.711ZM369.068 217.711H375.132V216.946H369.068V217.711ZM381.197 217.711H387.261V216.946H381.197V217.711ZM393.325 217.711H399.389V216.946H393.325V217.711ZM405.454 217.711H411.518V216.946H405.454V217.711ZM417.582 217.711H423.646V216.946H417.582V217.711ZM429.711 217.711H435.775V216.946H429.711V217.711ZM441.839 217.711H447.904V216.946H441.839V217.711ZM453.968 217.711H457V216.946H453.968V217.711Z" fill="#0D1126" fill-opacity="0.4" mask="url(#path-34-inside-7_2214_4028)"/>
<mask id="path-36-inside-8_2214_4028" fill="white">
<path d="M323.586 217.329H457V259.283H323.586V217.329Z"/>
</mask>
<path d="M323.586 259.474H326.618V259.092H323.586V259.474ZM332.682 259.474H338.747V259.092H332.682V259.474ZM344.811 259.474H350.875V259.092H344.811V259.474ZM356.939 259.474H363.004V259.092H356.939V259.474ZM369.068 259.474H375.132V259.092H369.068V259.474ZM381.197 259.474H387.261V259.092H381.197V259.474ZM393.325 259.474H399.389V259.092H393.325V259.474ZM405.454 259.474H411.518V259.092H405.454V259.474ZM417.582 259.474H423.646V259.092H417.582V259.474ZM429.711 259.474H435.775V259.092H429.711V259.474ZM441.839 259.474H447.904V259.092H441.839V259.474ZM453.968 259.474H457V259.092H453.968V259.474ZM323.586 259.666H326.618V258.901H323.586V259.666ZM332.682 259.666H338.747V258.901H332.682V259.666ZM344.811 259.666H350.875V258.901H344.811V259.666ZM356.939 259.666H363.004V258.901H356.939V259.666ZM369.068 259.666H375.132V258.901H369.068V259.666ZM381.197 259.666H387.261V258.901H381.197V259.666ZM393.325 259.666H399.389V258.901H393.325V259.666ZM405.454 259.666H411.518V258.901H405.454V259.666ZM417.582 259.666H423.646V258.901H417.582V259.666ZM429.711 259.666H435.775V258.901H429.711V259.666ZM441.839 259.666H447.904V258.901H441.839V259.666ZM453.968 259.666H457V258.901H453.968V259.666Z" fill="#0D1126" fill-opacity="0.4" mask="url(#path-36-inside-8_2214_4028)"/>
</g>
<path d="M457.191 301.238V298.241H456.809V301.238H457.191ZM457.191 292.248V286.254H456.809V292.248H457.191ZM457.191 280.261V274.267H456.809V280.261H457.191ZM457.191 268.274V262.28H456.809V268.274H457.191ZM457.191 256.287V250.293H456.809V256.287H457.191ZM457.191 244.3V238.306H456.809V244.3H457.191ZM457.191 232.313V226.319H456.809V232.313H457.191ZM457.191 220.326V214.332H456.809V220.326H457.191ZM457.191 208.339V202.345H456.809V208.339H457.191ZM457.191 196.351V190.358H456.809V196.351H457.191ZM457.191 184.364V178.371H456.809V184.364H457.191ZM457.191 172.377V166.384H456.809V172.377H457.191ZM457.191 160.39V154.397H456.809V160.39H457.191ZM457.191 148.403V142.41H456.809V148.403H457.191ZM457.191 136.416V133.419H456.809V136.416H457.191ZM457.382 301.238V298.241H456.618V301.238H457.382ZM457.382 292.248V286.254H456.618V292.248H457.382ZM457.382 280.261V274.267H456.618V280.261H457.382ZM457.382 268.274V262.28H456.618V268.274H457.382ZM457.382 256.287V250.293H456.618V256.287H457.382ZM457.382 244.3V238.306H456.618V244.3H457.382ZM457.382 232.313V226.319H456.618V232.313H457.382ZM457.382 220.326V214.332H456.618V220.326H457.382ZM457.382 208.339V202.345H456.618V208.339H457.382ZM457.382 196.351V190.358H456.618V196.351H457.382ZM457.382 184.364V178.371H456.618V184.364H457.382ZM457.382 172.377V166.384H456.618V172.377H457.382ZM457.382 160.39V154.397H456.618V160.39H457.382ZM457.382 148.403V142.41H456.618V148.403H457.382ZM457.382 136.416V133.419H456.618V136.416H457.382Z" fill="#0D1126" fill-opacity="0.4" mask="url(#path-30-inside-5_2214_4028)"/>
<g clip-path="url(#clip10_2214_4028)">
<mask id="path-38-inside-9_2214_4028" fill="white">
<path d="M457 133.419H590.414V301.238H457V133.419Z"/>
</mask>
<mask id="path-40-inside-10_2214_4028" fill="white">
<path d="M457 133.419H590.414V175.374H457V133.419Z"/>
</mask>
<path d="M457 175.565H460.032V175.183H457V175.565ZM466.096 175.565H472.161V175.183H466.096V175.565ZM478.225 175.565H484.289V175.183H478.225V175.565ZM490.354 175.565H496.418V175.183H490.354V175.565ZM502.482 175.565H508.546V175.183H502.482V175.565ZM514.611 175.565H520.675V175.183H514.611V175.565ZM526.739 175.565H532.803V175.183H526.739V175.565ZM538.868 175.565H544.932V175.183H538.868V175.565ZM550.996 175.565H557.06V175.183H550.996V175.565ZM563.125 175.565H569.189V175.183H563.125V175.565ZM575.253 175.565H581.318V175.183H575.253V175.565ZM587.382 175.565H590.414V175.183H587.382V175.565ZM457 175.756H460.032V174.992H457V175.756ZM466.096 175.756H472.161V174.992H466.096V175.756ZM478.225 175.756H484.289V174.992H478.225V175.756ZM490.354 175.756H496.418V174.992H490.354V175.756ZM502.482 175.756H508.546V174.992H502.482V175.756ZM514.611 175.756H520.675V174.992H514.611V175.756ZM526.739 175.756H532.803V174.992H526.739V175.756ZM538.868 175.756H544.932V174.992H538.868V175.756ZM550.996 175.756H557.06V174.992H550.996V175.756ZM563.125 175.756H569.189V174.992H563.125V175.756ZM575.253 175.756H581.318V174.992H575.253V175.756ZM587.382 175.756H590.414V174.992H587.382V175.756Z" fill="#0D1126" fill-opacity="0.4" mask="url(#path-40-inside-10_2214_4028)"/>
<mask id="path-42-inside-11_2214_4028" fill="white">
<path d="M457 175.374H590.414V217.329H457V175.374Z"/>
</mask>
<path d="M457 217.52H460.032V217.138H457V217.52ZM466.096 217.52H472.161V217.138H466.096V217.52ZM478.225 217.52H484.289V217.138H478.225V217.52ZM490.354 217.52H496.418V217.138H490.354V217.52ZM502.482 217.52H508.546V217.138H502.482V217.52ZM514.611 217.52H520.675V217.138H514.611V217.52ZM526.739 217.52H532.803V217.138H526.739V217.52ZM538.868 217.52H544.932V217.138H538.868V217.52ZM550.996 217.52H557.06V217.138H550.996V217.52ZM563.125 217.52H569.189V217.138H563.125V217.52ZM575.253 217.52H581.318V217.138H575.253V217.52ZM587.382 217.52H590.414V217.138H587.382V217.52ZM457 217.711H460.032V216.946H457V217.711ZM466.096 217.711H472.161V216.946H466.096V217.711ZM478.225 217.711H484.289V216.946H478.225V217.711ZM490.354 217.711H496.418V216.946H490.354V217.711ZM502.482 217.711H508.546V216.946H502.482V217.711ZM514.611 217.711H520.675V216.946H514.611V217.711ZM526.739 217.711H532.803V216.946H526.739V217.711ZM538.868 217.711H544.932V216.946H538.868V217.711ZM550.996 217.711H557.06V216.946H550.996V217.711ZM563.125 217.711H569.189V216.946H563.125V217.711ZM575.253 217.711H581.318V216.946H575.253V217.711ZM587.382 217.711H590.414V216.946H587.382V217.711Z" fill="#0D1126" fill-opacity="0.4" mask="url(#path-42-inside-11_2214_4028)"/>
<mask id="path-44-inside-12_2214_4028" fill="white">
<path d="M457 217.329H590.414V259.283H457V217.329Z"/>
</mask>
<path d="M457 259.474H460.032V259.092H457V259.474ZM466.096 259.474H472.161V259.092H466.096V259.474ZM478.225 259.474H484.289V259.092H478.225V259.474ZM490.354 259.474H496.418V259.092H490.354V259.474ZM502.482 259.474H508.546V259.092H502.482V259.474ZM514.611 259.474H520.675V259.092H514.611V259.474ZM526.739 259.474H532.803V259.092H526.739V259.474ZM538.868 259.474H544.932V259.092H538.868V259.474ZM550.996 259.474H557.06V259.092H550.996V259.474ZM563.125 259.474H569.189V259.092H563.125V259.474ZM575.253 259.474H581.318V259.092H575.253V259.474ZM587.382 259.474H590.414V259.092H587.382V259.474ZM457 259.666H460.032V258.901H457V259.666ZM466.096 259.666H472.161V258.901H466.096V259.666ZM478.225 259.666H484.289V258.901H478.225V259.666ZM490.354 259.666H496.418V258.901H490.354V259.666ZM502.482 259.666H508.546V258.901H502.482V259.666ZM514.611 259.666H520.675V258.901H514.611V259.666ZM526.739 259.666H532.803V258.901H526.739V259.666ZM538.868 259.666H544.932V258.901H538.868V259.666ZM550.996 259.666H557.06V258.901H550.996V259.666ZM563.125 259.666H569.189V258.901H563.125V259.666ZM575.253 259.666H581.318V258.901H575.253V259.666ZM587.382 259.666H590.414V258.901H587.382V259.666Z" fill="#0D1126" fill-opacity="0.4" mask="url(#path-44-inside-12_2214_4028)"/>
</g>
<path d="M590.605 301.238V298.241H590.223V301.238H590.605ZM590.605 292.248V286.254H590.223V292.248H590.605ZM590.605 280.261V274.267H590.223V280.261H590.605ZM590.605 268.274V262.28H590.223V268.274H590.605ZM590.605 256.287V250.293H590.223V256.287H590.605ZM590.605 244.3V238.306H590.223V244.3H590.605ZM590.605 232.313V226.319H590.223V232.313H590.605ZM590.605 220.326V214.332H590.223V220.326H590.605ZM590.605 208.339V202.345H590.223V208.339H590.605ZM590.605 196.351V190.358H590.223V196.351H590.605ZM590.605 184.364V178.371H590.223V184.364H590.605ZM590.605 172.377V166.384H590.223V172.377H590.605ZM590.605 160.39V154.397H590.223V160.39H590.605ZM590.605 148.403V142.41H590.223V148.403H590.605ZM590.605 136.416V133.419H590.223V136.416H590.605ZM590.796 301.238V298.241H590.032V301.238H590.796ZM590.796 292.248V286.254H590.032V292.248H590.796ZM590.796 280.261V274.267H590.032V280.261H590.796ZM590.796 268.274V262.28H590.032V268.274H590.796ZM590.796 256.287V250.293H590.032V256.287H590.796ZM590.796 244.3V238.306H590.032V244.3H590.796ZM590.796 232.313V226.319H590.032V232.313H590.796ZM590.796 220.326V214.332H590.032V220.326H590.796ZM590.796 208.339V202.345H590.032V208.339H590.796ZM590.796 196.351V190.358H590.032V196.351H590.796ZM590.796 184.364V178.371H590.032V184.364H590.796ZM590.796 172.377V166.384H590.032V172.377H590.796ZM590.796 160.39V154.397H590.032V160.39H590.796ZM590.796 148.403V142.41H590.032V148.403H590.796ZM590.796 136.416V133.419H590.032V136.416H590.796Z" fill="#0D1126" fill-opacity="0.4" mask="url(#path-38-inside-9_2214_4028)"/>
<g clip-path="url(#clip11_2214_4028)">
<mask id="path-47-inside-13_2214_4028" fill="white">
<path d="M590.414 133.419H723.828V175.374H590.414V133.419Z"/>
</mask>
<path d="M590.414 175.565H593.446V175.183H590.414V175.565ZM599.51 175.565H605.575V175.183H599.51V175.565ZM611.639 175.565H617.703V175.183H611.639V175.565ZM623.768 175.565H629.832V175.183H623.768V175.565ZM635.896 175.565H641.96V175.183H635.896V175.565ZM648.025 175.565H654.089V175.183H648.025V175.565ZM660.153 175.565H666.217V175.183H660.153V175.565ZM672.282 175.565H678.346V175.183H672.282V175.565ZM684.41 175.565H690.475V175.183H684.41V175.565ZM696.539 175.565H702.603V175.183H696.539V175.565ZM708.667 175.565H714.732V175.183H708.667V175.565ZM720.796 175.565H723.828V175.183H720.796V175.565ZM590.414 175.756H593.446V174.992H590.414V175.756ZM599.51 175.756H605.575V174.992H599.51V175.756ZM611.639 175.756H617.703V174.992H611.639V175.756ZM623.768 175.756H629.832V174.992H623.768V175.756ZM635.896 175.756H641.96V174.992H635.896V175.756ZM648.025 175.756H654.089V174.992H648.025V175.756ZM660.153 175.756H666.217V174.992H660.153V175.756ZM672.282 175.756H678.346V174.992H672.282V175.756ZM684.41 175.756H690.475V174.992H684.41V175.756ZM696.539 175.756H702.603V174.992H696.539V175.756ZM708.667 175.756H714.732V174.992H708.667V175.756ZM720.796 175.756H723.828V174.992H720.796V175.756Z" fill="#0D1126" fill-opacity="0.4" mask="url(#path-47-inside-13_2214_4028)"/>
<mask id="path-49-inside-14_2214_4028" fill="white">
<path d="M590.414 175.374H723.828V217.329H590.414V175.374Z"/>
</mask>
<path d="M590.414 217.52H593.446V217.138H590.414V217.52ZM599.51 217.52H605.575V217.138H599.51V217.52ZM611.639 217.52H617.703V217.138H611.639V217.52ZM623.768 217.52H629.832V217.138H623.768V217.52ZM635.896 217.52H641.96V217.138H635.896V217.52ZM648.025 217.52H654.089V217.138H648.025V217.52ZM660.153 217.52H666.217V217.138H660.153V217.52ZM672.282 217.52H678.346V217.138H672.282V217.52ZM684.41 217.52H690.475V217.138H684.41V217.52ZM696.539 217.52H702.603V217.138H696.539V217.52ZM708.667 217.52H714.732V217.138H708.667V217.52ZM720.796 217.52H723.828V217.138H720.796V217.52ZM590.414 217.711H593.446V216.946H590.414V217.711ZM599.51 217.711H605.575V216.946H599.51V217.711ZM611.639 217.711H617.703V216.946H611.639V217.711ZM623.768 217.711H629.832V216.946H623.768V217.711ZM635.896 217.711H641.96V216.946H635.896V217.711ZM648.025 217.711H654.089V216.946H648.025V217.711ZM660.153 217.711H666.217V216.946H660.153V217.711ZM672.282 217.711H678.346V216.946H672.282V217.711ZM684.41 217.711H690.475V216.946H684.41V217.711ZM696.539 217.711H702.603V216.946H696.539V217.711ZM708.667 217.711H714.732V216.946H708.667V217.711ZM720.796 217.711H723.828V216.946H720.796V217.711Z" fill="#0D1126" fill-opacity="0.4" mask="url(#path-49-inside-14_2214_4028)"/>
<mask id="path-51-inside-15_2214_4028" fill="white">
<path d="M590.414 217.329H723.828V259.283H590.414V217.329Z"/>
</mask>
<path d="M590.414 259.474H593.446V259.092H590.414V259.474ZM599.51 259.474H605.575V259.092H599.51V259.474ZM611.639 259.474H617.703V259.092H611.639V259.474ZM623.768 259.474H629.832V259.092H623.768V259.474ZM635.896 259.474H641.96V259.092H635.896V259.474ZM648.025 259.474H654.089V259.092H648.025V259.474ZM660.153 259.474H666.217V259.092H660.153V259.474ZM672.282 259.474H678.346V259.092H672.282V259.474ZM684.41 259.474H690.475V259.092H684.41V259.474ZM696.539 259.474H702.603V259.092H696.539V259.474ZM708.667 259.474H714.732V259.092H708.667V259.474ZM720.796 259.474H723.828V259.092H720.796V259.474ZM590.414 259.666H593.446V258.901H590.414V259.666ZM599.51 259.666H605.575V258.901H599.51V259.666ZM611.639 259.666H617.703V258.901H611.639V259.666ZM623.768 259.666H629.832V258.901H623.768V259.666ZM635.896 259.666H641.96V258.901H635.896V259.666ZM648.025 259.666H654.089V258.901H648.025V259.666ZM660.153 259.666H666.217V258.901H660.153V259.666ZM672.282 259.666H678.346V258.901H672.282V259.666ZM684.41 259.666H690.475V258.901H684.41V259.666ZM696.539 259.666H702.603V258.901H696.539V259.666ZM708.667 259.666H714.732V258.901H708.667V259.666ZM720.796 259.666H723.828V258.901H720.796V259.666Z" fill="#0D1126" fill-opacity="0.4" mask="url(#path-51-inside-15_2214_4028)"/>
</g>
<g clip-path="url(#clip12_2214_4028)">
<path d="M724.209 259.953L548.634 193.122L434.471 242.144L298.94 184.888L190.553 156.356" stroke="#428277" stroke-width="1.5291"/>
</g>
</g>
<path d="M644.076 329.977C644.076 330.366 643.944 330.691 643.681 330.954C643.425 331.211 643.105 331.339 642.723 331.339C642.329 331.339 641.997 331.208 641.728 330.945C641.459 330.682 641.325 330.36 641.325 329.977C641.325 329.583 641.459 329.255 641.728 328.992C641.997 328.723 642.329 328.589 642.723 328.589C643.105 328.589 643.425 328.723 643.681 328.992C643.944 329.255 644.076 329.583 644.076 329.977ZM640.904 329.977C640.904 330.366 640.773 330.691 640.51 330.954C640.253 331.211 639.93 331.339 639.542 331.339C639.148 331.339 638.816 331.211 638.548 330.954C638.285 330.691 638.153 330.366 638.153 329.977C638.153 329.583 638.285 329.255 638.548 328.992C638.816 328.723 639.148 328.589 639.542 328.589C639.93 328.589 640.253 328.723 640.51 328.992C640.773 329.255 640.904 329.583 640.904 329.977ZM648.887 333.911C648.887 335.601 648.26 336.84 647.005 337.629C645.757 338.417 643.804 338.811 641.146 338.811C638.428 338.811 636.463 338.399 635.25 337.575C634.038 336.745 633.432 335.413 633.432 333.579C633.432 332.665 633.536 331.826 633.745 331.061H636.442C636.275 331.802 636.191 332.432 636.191 332.952C636.191 333.884 636.568 334.547 637.32 334.941C638.079 335.329 639.354 335.523 641.146 335.523C643.033 335.523 644.338 335.383 645.061 335.102C645.79 334.815 646.154 334.296 646.154 333.543C646.154 332.803 646.05 331.763 645.841 330.425H648.609C648.794 331.751 648.887 332.913 648.887 333.911ZM653.277 338.534L649.828 338.883V335.783L652.247 335.523L651.019 327.263H654.191L655.186 335.138C655.592 335.054 655.917 334.962 656.162 334.86C656.413 334.753 656.604 334.618 656.736 334.457C656.873 334.29 656.963 334.114 657.004 333.928C657.052 333.737 657.076 333.492 657.076 333.194V324.772H660.015V333.821C660.015 334.442 660.116 334.866 660.319 335.093C660.528 335.32 660.92 335.434 661.493 335.434V337.978L660.893 338.587H660.615C659.635 338.587 658.898 338.381 658.402 337.969C657.906 337.551 657.587 336.9 657.443 336.016C657.258 336.781 656.852 337.354 656.225 337.736C655.598 338.119 654.615 338.384 653.277 338.534ZM672.899 338.587C672.248 338.587 671.68 338.426 671.196 338.104C670.718 337.781 670.3 337.258 669.942 336.536C669.745 337.324 669.395 337.901 668.894 338.265C668.392 338.629 667.72 338.811 666.878 338.811C665.301 338.811 664.315 338.211 663.921 337.011C663.593 337.56 663.183 337.96 662.694 338.211C662.204 338.462 661.604 338.587 660.893 338.587V335.98L661.502 335.434C661.932 335.434 662.264 335.344 662.497 335.165C662.735 334.986 662.971 334.657 663.204 334.179L663.832 332.88C664.244 332.008 664.748 331.351 665.346 330.909C665.949 330.461 666.624 330.237 667.371 330.237C668.332 330.237 669.127 330.467 669.754 330.927C670.381 331.381 670.945 332.154 671.447 333.247L671.608 333.597C671.931 334.32 672.221 334.806 672.478 335.057C672.74 335.308 673.081 335.434 673.499 335.434V337.978L672.899 338.587ZM665.175 334.609C665.175 335.302 665.773 335.649 666.967 335.649C668.18 335.649 668.95 335.431 669.279 334.995C669.01 334.403 668.688 333.979 668.311 333.722C667.941 333.466 667.469 333.337 666.896 333.337C666.394 333.337 665.982 333.466 665.659 333.722C665.337 333.973 665.175 334.269 665.175 334.609ZM675.237 338.587H672.899V335.98L673.508 335.434H675.363C676.276 335.434 677.032 335.401 677.629 335.335C678.233 335.263 678.976 335.129 679.86 334.932L681.052 334.663C681.667 334.52 682.088 334.427 682.315 334.385C681.993 334.35 681.455 334.275 680.702 334.161L679.233 333.911C678.253 333.761 676.951 333.687 675.327 333.687H674.171V330.828H676.312C677.28 330.828 677.925 330.709 678.247 330.47C678.576 330.225 678.74 329.744 678.74 329.028V324.772H681.67V328.804C681.67 329.532 681.56 330.13 681.339 330.595C681.124 331.061 680.783 331.426 680.317 331.689L681.106 331.814C682.892 332.095 684.37 332.235 685.541 332.235H685.971V335.138H685.451C684.86 335.138 684.316 335.222 683.82 335.389C683.331 335.556 682.602 335.9 681.634 336.419L680.245 337.172C679.212 337.733 678.361 338.11 677.692 338.301C677.023 338.492 676.205 338.587 675.237 338.587ZM690.244 338.587H687.332V324.772H690.244V338.587ZM703.621 338.345L695.307 338.847L695.324 335.926L696.704 335.873C696.25 335.359 696.023 334.717 696.023 333.946C696.023 332.997 696.355 332.193 697.018 331.536C697.687 330.879 698.535 330.551 699.562 330.551C700.685 330.551 701.554 330.879 702.17 331.536C702.791 332.187 703.128 333.062 703.182 334.161L700.736 334.26C700.688 334.027 700.563 333.839 700.36 333.695C700.157 333.546 699.879 333.471 699.526 333.471C698.636 333.471 698.191 333.806 698.191 334.475C698.191 334.756 698.284 334.98 698.469 335.147C698.654 335.308 698.986 335.425 699.464 335.496C699.948 335.568 700.605 335.583 701.435 335.541L703.621 335.434V338.345ZM708.146 338.587H705.234V324.772H708.146V338.587ZM718.53 334.753C718.53 336.15 718.112 337.181 717.275 337.844C716.445 338.501 715.149 338.829 713.387 338.829C712.634 338.829 712.004 338.746 711.496 338.578C710.995 338.411 710.595 338.148 710.296 337.79C709.997 337.426 709.785 336.99 709.66 336.482C709.534 335.974 709.469 335.35 709.463 334.609H711.953C711.971 334.872 712.022 335.075 712.106 335.219C712.195 335.362 712.357 335.472 712.59 335.55C712.828 335.628 713.163 335.667 713.593 335.667C714.453 335.667 715.074 335.598 715.457 335.461C715.839 335.323 716.03 335.111 716.03 334.824C716.042 334.454 715.761 334.012 715.188 333.498C714.614 332.985 713.53 332.199 711.935 331.142L713.575 328.382C715.498 329.72 716.807 330.837 717.499 331.733C718.198 332.623 718.542 333.63 718.53 334.753ZM722.786 338.587H719.874V324.772H722.786V338.587Z" fill="#14151A"/>
<rect x="190.555" y="354.762" width="165.525" height="104.696" rx="9.1746" fill="white"/>
<path d="M277.009 375.937C276.404 375.937 275.948 375.762 275.642 375.411C275.59 376.269 275.288 376.941 274.735 377.427C274.183 377.916 273.389 378.16 272.355 378.16C271.12 378.16 270.201 377.852 269.6 377.236C269.003 376.624 268.708 375.735 268.715 374.571C268.715 374.07 268.773 373.494 268.889 372.84H270.563C270.47 373.385 270.423 373.805 270.423 374.1C270.416 374.765 270.567 375.267 270.877 375.607C271.187 375.943 271.702 376.111 272.422 376.111C273.191 376.111 273.748 375.98 274.091 375.719C274.438 375.454 274.612 375.045 274.612 374.492V367.302H276.449V372.908C276.449 373.314 276.516 373.593 276.65 373.742C276.788 373.891 277.035 373.966 277.389 373.966V375.556L277.009 375.937ZM280.928 367.963C281.093 368.124 281.175 368.327 281.175 368.573C281.175 368.82 281.093 369.023 280.928 369.184C280.764 369.344 280.559 369.425 280.312 369.425C280.07 369.425 279.866 369.344 279.702 369.184C279.538 369.023 279.456 368.82 279.456 368.573C279.456 368.327 279.538 368.124 279.702 367.963C279.866 367.799 280.07 367.717 280.312 367.717C280.559 367.717 280.764 367.799 280.928 367.963ZM277.742 375.937H277.009V374.307L277.389 373.966H278.078C277.854 373.585 277.742 373.18 277.742 372.751C277.742 372.015 277.998 371.386 278.509 370.864C279.024 370.337 279.644 370.074 280.368 370.074C280.843 370.074 281.274 370.197 281.662 370.444C282.054 370.686 282.358 371.011 282.575 371.418C282.795 371.825 282.905 372.265 282.905 372.74C282.905 373.158 282.767 373.566 282.491 373.966H283.286V375.556L282.905 375.937H282.575C281.701 375.937 280.902 375.806 280.178 375.545C279.394 375.806 278.582 375.937 277.742 375.937ZM279.075 372.829C279.075 373.053 279.194 373.249 279.433 373.417C279.676 373.581 280.023 373.71 280.475 373.804C281.21 373.621 281.578 373.318 281.578 372.896C281.578 372.657 281.455 372.456 281.208 372.292C280.962 372.127 280.652 372.047 280.279 372.051C279.917 372.051 279.626 372.125 279.405 372.275C279.185 372.424 279.075 372.609 279.075 372.829ZM286.237 375.937H282.899V374.341L283.28 373.966H283.863C283.93 373.828 284.038 373.628 284.187 373.367V367.302H286.019V371.177C286.776 370.595 287.603 370.304 288.499 370.304C289.313 370.304 289.972 370.569 290.476 371.099C290.984 371.625 291.238 372.275 291.238 373.048C291.238 374.974 289.571 375.937 286.237 375.937ZM288.454 372.292C287.252 372.292 286.159 372.85 285.173 373.966H286.629C287.465 373.966 288.118 373.938 288.589 373.882C289.063 373.826 289.401 373.738 289.602 373.619C289.808 373.496 289.91 373.328 289.91 373.115C289.91 372.891 289.776 372.698 289.507 372.538C289.242 372.374 288.891 372.292 288.454 372.292ZM296.204 379.666H294.368V376.066C294.368 375.222 294.541 374.573 294.889 374.117C295.236 373.658 295.773 373.374 296.501 373.266C296.565 372.504 296.826 371.89 297.285 371.424C297.748 370.953 298.332 370.718 299.038 370.718C299.676 370.718 300.191 370.86 300.583 371.144C300.979 371.427 301.336 371.913 301.653 372.6L301.754 372.818C301.963 373.273 302.142 373.58 302.291 373.736C302.444 373.889 302.655 373.966 302.924 373.966V375.556L302.549 375.937C302.131 375.937 301.784 375.844 301.507 375.657C301.231 375.467 300.977 375.14 300.746 374.677C300.611 375.162 300.386 375.517 300.068 375.741C299.751 375.965 299.331 376.077 298.808 376.077C297.987 376.077 297.367 375.79 296.949 375.215C296.666 375.241 296.47 375.323 296.361 375.461C296.257 375.595 296.204 375.819 296.204 376.133V379.666ZM297.756 373.473C297.756 373.675 297.841 373.83 298.013 373.938C298.189 374.046 298.431 374.1 298.741 374.1C299.559 374.1 300.081 373.975 300.309 373.725C299.984 373.012 299.488 372.656 298.82 372.656C298.491 372.656 298.232 372.734 298.041 372.891C297.851 373.048 297.756 373.242 297.756 373.473ZM306.581 375.556L306.206 375.937C305.646 375.937 305.198 375.816 304.862 375.573C304.526 375.327 304.315 374.97 304.229 374.503C304.165 374.97 303.99 375.327 303.703 375.573C303.415 375.816 303.029 375.937 302.543 375.937V374.307L302.924 373.966C303.29 373.966 303.546 373.886 303.691 373.725C303.837 373.561 303.91 373.288 303.91 372.908V371.636H305.618V372.908C305.618 373.314 305.687 373.593 305.825 373.742C305.963 373.891 306.215 373.966 306.581 373.966V375.556ZM305.998 377.074C306.137 377.212 306.206 377.384 306.206 377.589C306.206 377.794 306.137 377.966 305.998 378.104C305.86 378.242 305.689 378.311 305.483 378.311C305.278 378.311 305.106 378.242 304.968 378.104C304.83 377.966 304.761 377.794 304.761 377.589C304.761 377.384 304.83 377.212 304.968 377.074C305.106 376.936 305.278 376.867 305.483 376.867C305.689 376.867 305.86 376.936 305.998 377.074ZM304.279 377.074C304.417 377.212 304.486 377.384 304.486 377.589C304.486 377.794 304.417 377.966 304.279 378.104C304.145 378.242 303.973 378.311 303.764 378.311C303.555 378.311 303.381 378.242 303.243 378.104C303.105 377.966 303.036 377.794 303.036 377.589C303.036 377.384 303.105 377.212 303.243 377.074C303.381 376.936 303.555 376.867 303.764 376.867C303.973 376.867 304.145 376.936 304.279 377.074ZM310.293 375.556L309.913 375.937C308.722 375.937 308.037 375.444 307.858 374.459C307.794 374.937 307.62 375.302 307.337 375.556C307.057 375.81 306.68 375.937 306.206 375.937V374.307L306.586 373.966C306.93 373.966 307.171 373.886 307.309 373.725C307.447 373.561 307.516 373.288 307.516 372.908V367.302H309.353V372.908C309.353 373.337 309.414 373.621 309.537 373.759C309.664 373.897 309.916 373.966 310.293 373.966V375.556ZM311.212 375.937H309.913V374.307L310.293 373.966H312.057C311.841 373.734 311.665 373.535 311.531 373.367L311.027 372.74V370.914C312.065 370.653 313.043 370.522 313.961 370.522C314.973 370.522 315.703 370.656 316.151 370.925C316.599 371.194 316.825 371.649 316.828 372.292C316.839 372.87 316.623 373.428 316.179 373.966H317.562V375.556L317.187 375.937H316.901C315.796 375.937 314.848 375.765 314.056 375.422C313.153 375.765 312.205 375.937 311.212 375.937ZM313.961 372.348C313.442 372.348 312.92 372.381 312.393 372.448C312.711 372.822 313.006 373.113 313.278 373.322C313.551 373.527 313.855 373.68 314.191 373.781C314.643 373.684 314.99 373.557 315.232 373.4C315.479 373.244 315.598 373.072 315.591 372.885C315.587 372.691 315.456 372.553 315.199 372.471C314.945 372.389 314.532 372.348 313.961 372.348ZM320.714 369.469C320.714 369.675 320.645 369.845 320.507 369.979C320.373 370.113 320.201 370.18 319.992 370.18C319.787 370.18 319.615 370.113 319.477 369.979C319.339 369.841 319.27 369.671 319.27 369.469C319.27 369.257 319.337 369.081 319.471 368.943C319.609 368.805 319.783 368.736 319.992 368.736C320.205 368.736 320.379 368.805 320.513 368.943C320.647 369.081 320.714 369.257 320.714 369.469ZM319.007 369.469C319.007 369.671 318.938 369.841 318.799 369.979C318.661 370.113 318.49 370.18 318.284 370.18C318.071 370.18 317.896 370.113 317.758 369.979C317.62 369.841 317.551 369.671 317.551 369.469C317.551 369.257 317.62 369.081 317.758 368.943C317.896 368.805 318.071 368.736 318.284 368.736C318.493 368.736 318.665 368.805 318.799 368.943C318.938 369.081 319.007 369.257 319.007 369.469ZM317.724 375.937H317.181V374.307L317.562 373.966C317.931 373.966 318.185 373.878 318.323 373.703C318.465 373.524 318.536 373.217 318.536 372.784C318.536 372.37 318.482 371.72 318.374 370.836H320.099C320.196 371.747 320.244 372.499 320.244 373.092C320.244 374.014 320.029 374.72 319.6 375.209C319.171 375.694 318.546 375.937 317.724 375.937ZM328.022 367.655C328.022 367.898 327.942 368.101 327.781 368.265C327.621 368.426 327.417 368.506 327.171 368.506C326.925 368.506 326.719 368.426 326.555 368.265C326.391 368.101 326.309 367.898 326.309 367.655C326.309 367.409 326.391 367.205 326.555 367.045C326.719 366.88 326.925 366.798 327.171 366.798C327.417 366.798 327.621 366.88 327.781 367.045C327.942 367.205 328.022 367.409 328.022 367.655ZM326.045 367.655C326.045 367.898 325.963 368.101 325.799 368.265C325.639 368.426 325.435 368.506 325.189 368.506C324.946 368.506 324.741 368.424 324.573 368.26C324.408 368.096 324.326 367.894 324.326 367.655C324.326 367.409 324.408 367.205 324.573 367.045C324.741 366.88 324.946 366.798 325.189 366.798C325.435 366.798 325.639 366.88 325.799 367.045C325.963 367.205 326.045 367.409 326.045 367.655ZM329.394 375.556L329.019 375.937C328.339 375.937 327.835 375.818 327.507 375.579C327.182 375.336 326.975 374.944 326.885 374.403C326.744 374.828 326.525 375.142 326.23 375.343C325.935 375.541 325.553 375.64 325.082 375.64C324.433 375.64 323.929 375.452 323.57 375.075C323.212 374.698 323.033 374.171 323.033 373.496C323.033 372.906 323.205 372.392 323.548 371.956C323.895 371.515 324.392 371.168 325.037 370.914L326.723 370.259V369.15H328.56V373.025C328.56 373.369 328.621 373.611 328.745 373.753C328.871 373.895 329.088 373.966 329.394 373.966V375.556ZM324.371 373.115C324.371 373.29 324.444 373.425 324.59 373.518C324.739 373.608 324.987 373.652 325.334 373.652C325.79 373.652 326.135 373.576 326.37 373.423C326.605 373.27 326.723 373.018 326.723 372.667V371.715L325.278 372.292C324.942 372.426 324.707 372.555 324.573 372.678C324.438 372.801 324.371 372.947 324.371 373.115ZM329.562 375.937H329.019V374.307L329.4 373.966C329.769 373.966 330.023 373.878 330.161 373.703C330.303 373.524 330.374 373.217 330.374 372.784C330.374 372.37 330.32 371.72 330.212 370.836H331.936C332.033 371.747 332.082 372.499 332.082 373.092C332.082 374.014 331.867 374.72 331.438 375.209C331.009 375.694 330.383 375.937 329.562 375.937ZM332.233 377.074C332.371 377.212 332.44 377.384 332.44 377.589C332.44 377.794 332.371 377.966 332.233 378.104C332.099 378.242 331.927 378.311 331.718 378.311C331.509 378.311 331.333 378.242 331.192 378.104C331.053 377.966 330.984 377.794 330.984 377.589C330.984 377.384 331.053 377.212 331.192 377.074C331.333 376.936 331.509 376.867 331.718 376.867C331.927 376.867 332.099 376.936 332.233 377.074ZM330.514 377.074C330.652 377.212 330.721 377.384 330.721 377.589C330.721 377.794 330.652 377.966 330.514 378.104C330.376 378.242 330.202 378.311 329.993 378.311C329.784 378.311 329.611 378.242 329.472 378.104C329.338 377.966 329.271 377.794 329.271 377.589C329.271 377.384 329.338 377.212 329.472 377.074C329.611 376.936 329.784 376.867 329.993 376.867C330.202 376.867 330.376 376.936 330.514 377.074ZM336.623 375.937H336.467C335.671 375.937 335.1 375.732 334.753 375.321C334.41 374.91 334.238 374.263 334.238 373.378V367.302H336.075V372.958C336.075 373.342 336.14 373.608 336.271 373.753C336.405 373.895 336.653 373.966 337.015 373.966V375.556L336.623 375.937ZM337.749 375.937H336.635V374.307L337.015 373.966H338.141C337.659 373.585 337.419 373.064 337.419 372.404C337.419 371.676 337.661 371.071 338.146 370.589C338.636 370.104 339.268 369.861 340.045 369.861C340.851 369.861 341.488 370.089 341.954 370.544C342.425 371 342.667 371.677 342.682 372.577H341.154C341.09 372.346 340.95 372.167 340.734 372.04C340.521 371.909 340.263 371.844 339.961 371.844C339.591 371.844 339.302 371.92 339.093 372.073C338.884 372.226 338.779 372.441 338.779 372.717C338.779 373.042 338.943 373.292 339.272 373.468C339.601 373.639 340.063 373.725 340.661 373.725C341.105 373.725 341.594 373.686 342.128 373.608L342.979 373.507V375.411L342.139 375.556C341.43 375.694 340.741 375.793 340.073 375.853C339.408 375.909 338.634 375.937 337.749 375.937ZM346.591 374.615C346.591 376.034 346.348 377.076 345.863 377.74C345.378 378.405 344.61 378.737 343.561 378.737C343.214 378.737 342.867 378.716 342.52 378.675V376.671C342.871 376.73 343.203 376.76 343.517 376.76C344.021 376.76 344.381 376.598 344.597 376.273C344.818 375.952 344.928 375.424 344.928 374.688C344.928 373.822 344.745 372.622 344.379 371.088H346.165C346.449 372.323 346.591 373.499 346.591 374.615Z" fill="#14151A"/>
<rect x="374.43" y="354.762" width="165.525" height="104.696" rx="9.1746" fill="white"/>
<path d="M440.265 367.655C440.265 367.898 440.185 368.101 440.025 368.265C439.864 368.426 439.661 368.506 439.414 368.506C439.168 368.506 438.962 368.426 438.798 368.265C438.634 368.101 438.552 367.898 438.552 367.655C438.552 367.409 438.634 367.205 438.798 367.045C438.962 366.88 439.168 366.798 439.414 366.798C439.661 366.798 439.864 366.88 440.025 367.045C440.185 367.205 440.265 367.409 440.265 367.655ZM438.289 367.655C438.289 367.898 438.207 368.101 438.042 368.265C437.882 368.426 437.678 368.506 437.432 368.506C437.189 368.506 436.984 368.424 436.816 368.26C436.652 368.096 436.57 367.894 436.57 367.655C436.57 367.409 436.652 367.205 436.816 367.045C436.984 366.88 437.189 366.798 437.432 366.798C437.678 366.798 437.882 366.88 438.042 367.045C438.207 367.205 438.289 367.409 438.289 367.655ZM441.637 375.556L441.262 375.937C440.583 375.937 440.079 375.818 439.75 375.579C439.425 375.336 439.218 374.944 439.129 374.403C438.987 374.828 438.768 375.142 438.473 375.343C438.179 375.541 437.796 375.64 437.325 375.64C436.676 375.64 436.172 375.452 435.814 375.075C435.455 374.698 435.276 374.171 435.276 373.496C435.276 372.906 435.448 372.392 435.791 371.956C436.138 371.515 436.635 371.168 437.281 370.914L438.966 370.259V369.15H440.803V373.025C440.803 373.369 440.865 373.611 440.988 373.753C441.115 373.895 441.331 373.966 441.637 373.966V375.556ZM436.614 373.115C436.614 373.29 436.687 373.425 436.833 373.518C436.982 373.608 437.23 373.652 437.577 373.652C438.033 373.652 438.378 373.576 438.613 373.423C438.849 373.27 438.966 373.018 438.966 372.667V371.715L437.521 372.292C437.186 372.426 436.95 372.555 436.816 372.678C436.682 372.801 436.614 372.947 436.614 373.115ZM445.3 375.556L444.924 375.937C444.364 375.937 443.916 375.816 443.58 375.573C443.244 375.327 443.033 374.97 442.948 374.503C442.884 374.97 442.709 375.327 442.421 375.573C442.134 375.816 441.747 375.937 441.262 375.937V374.307L441.643 373.966C442.009 373.966 442.264 373.886 442.41 373.725C442.556 373.561 442.628 373.288 442.628 372.908V371.636H444.336V372.908C444.336 373.314 444.405 373.593 444.544 373.742C444.682 373.891 444.934 373.966 445.3 373.966V375.556ZM444.717 377.074C444.855 377.212 444.924 377.384 444.924 377.589C444.924 377.794 444.855 377.966 444.717 378.104C444.579 378.242 444.407 378.311 444.202 378.311C443.997 378.311 443.825 378.242 443.687 378.104C443.549 377.966 443.48 377.794 443.48 377.589C443.48 377.384 443.549 377.212 443.687 377.074C443.825 376.936 443.997 376.867 444.202 376.867C444.407 376.867 444.579 376.936 444.717 377.074ZM442.998 377.074C443.136 377.212 443.205 377.384 443.205 377.589C443.205 377.794 443.136 377.966 442.998 378.104C442.864 378.242 442.692 378.311 442.483 378.311C442.274 378.311 442.1 378.242 441.962 378.104C441.824 377.966 441.755 377.794 441.755 377.589C441.755 377.384 441.824 377.212 441.962 377.074C442.1 376.936 442.274 376.867 442.483 376.867C442.692 376.867 442.864 376.936 442.998 377.074ZM453.895 373.277C453.895 374.184 453.688 374.879 453.274 375.36C452.863 375.838 452.297 376.077 451.577 376.077C451.121 376.077 450.722 375.967 450.378 375.747C450.035 375.523 449.815 375.218 449.718 374.834C449.654 375.233 449.501 375.541 449.259 375.758C449.016 375.971 448.697 376.077 448.301 376.077C447.86 376.077 447.495 375.958 447.203 375.719C446.916 375.48 446.731 375.144 446.649 374.711C446.578 375.106 446.397 375.411 446.106 375.623C445.815 375.832 445.421 375.937 444.924 375.937V374.307L445.305 373.966C445.656 373.966 445.912 373.889 446.072 373.736C446.233 373.583 446.313 373.335 446.313 372.992V372.437H448.021V372.992C448.021 373.354 448.073 373.619 448.178 373.787C448.282 373.951 448.448 374.033 448.676 374.033C449.091 374.033 449.298 373.686 449.298 372.992L449.287 372.437H450.994L451.006 372.992C451.006 373.339 451.062 373.6 451.174 373.776C451.286 373.947 451.431 374.033 451.61 374.033C451.995 374.033 452.187 373.762 452.187 373.221C452.187 372.814 452.114 372.282 451.969 371.625H453.722C453.837 372.237 453.895 372.788 453.895 373.277ZM457.546 374.615C457.546 376.034 457.303 377.076 456.818 377.74C456.333 378.405 455.566 378.737 454.517 378.737C454.169 378.737 453.822 378.716 453.475 378.675V376.671C453.826 376.73 454.158 376.76 454.472 376.76C454.976 376.76 455.336 376.598 455.553 376.273C455.773 375.952 455.883 375.424 455.883 374.688C455.883 373.822 455.7 372.622 455.334 371.088H457.121C457.404 372.323 457.546 373.499 457.546 374.615ZM465.705 375.556L465.33 375.937C464.945 375.937 464.624 375.877 464.367 375.758C464.113 375.638 463.879 375.427 463.667 375.125C462.935 375.767 462.132 376.088 461.259 376.088C460.43 376.088 459.838 375.879 459.484 375.461C459.129 375.043 458.952 374.373 458.952 373.451H460.508C460.52 373.686 460.592 373.856 460.727 373.96C460.865 374.061 461.113 374.111 461.472 374.111C462.035 374.111 462.552 374.024 463.023 373.848C463 373.781 462.965 373.686 462.916 373.563C462.871 373.44 462.842 373.359 462.827 373.322L461.533 369.777H463.594L464.619 372.667C464.802 373.212 464.956 373.565 465.083 373.725C465.21 373.886 465.417 373.966 465.705 373.966V375.556ZM471.971 373.574C471.971 374.362 471.751 374.976 471.31 375.416C470.873 375.857 470.261 376.077 469.474 376.077C468.992 376.077 468.542 376.006 468.124 375.864C467.71 375.722 467.364 375.513 467.088 375.237C466.875 375.483 466.629 375.663 466.349 375.775C466.069 375.883 465.729 375.937 465.33 375.937V374.307L465.711 373.966C466.005 373.966 466.233 373.902 466.394 373.776C466.558 373.645 466.72 373.402 466.881 373.048L467.189 372.46C467.48 371.862 467.814 371.424 468.191 371.144C468.568 370.86 469.029 370.718 469.574 370.718C470.269 370.718 470.842 370.983 471.293 371.513C471.745 372.04 471.971 372.726 471.971 373.574ZM469.63 372.656C469.212 372.656 468.871 372.732 468.606 372.885C468.341 373.034 468.124 373.283 467.956 373.63C468.18 373.779 468.447 373.895 468.757 373.977C469.07 374.059 469.378 374.1 469.681 374.1C470.043 374.1 470.306 374.05 470.47 373.949C470.638 373.848 470.722 373.686 470.722 373.462C470.722 373.223 470.622 373.029 470.42 372.88C470.222 372.73 469.959 372.656 469.63 372.656ZM481.586 370.556C481.586 370.798 481.504 371.002 481.339 371.166C481.179 371.327 480.979 371.407 480.74 371.407C480.494 371.407 480.287 371.325 480.119 371.16C479.951 370.996 479.867 370.795 479.867 370.556C479.867 370.309 479.951 370.104 480.119 369.94C480.287 369.772 480.494 369.688 480.74 369.688C480.979 369.688 481.179 369.772 481.339 369.94C481.504 370.104 481.586 370.309 481.586 370.556ZM479.603 370.556C479.603 370.798 479.521 371.002 479.357 371.166C479.197 371.327 478.995 371.407 478.752 371.407C478.506 371.407 478.299 371.327 478.131 371.166C477.966 371.002 477.884 370.798 477.884 370.556C477.884 370.309 477.966 370.104 478.131 369.94C478.299 369.772 478.506 369.688 478.752 369.688C478.995 369.688 479.197 369.772 479.357 369.94C479.521 370.104 479.603 370.309 479.603 370.556ZM484.593 373.014C484.593 374.07 484.201 374.845 483.417 375.338C482.637 375.831 481.416 376.077 479.755 376.077C478.056 376.077 476.828 375.819 476.07 375.304C475.312 374.785 474.933 373.953 474.933 372.807C474.933 372.236 474.999 371.711 475.129 371.233H476.815C476.71 371.696 476.658 372.09 476.658 372.415C476.658 372.997 476.893 373.412 477.364 373.658C477.838 373.901 478.635 374.022 479.755 374.022C480.934 374.022 481.75 373.934 482.202 373.759C482.657 373.58 482.885 373.255 482.885 372.784C482.885 372.321 482.82 371.672 482.689 370.836H484.419C484.535 371.664 484.593 372.391 484.593 373.014ZM487.908 375.937H487.751C486.956 375.937 486.385 375.732 486.038 375.321C485.694 374.91 485.522 374.263 485.522 373.378V367.302H487.359V372.958C487.359 373.342 487.424 373.608 487.555 373.753C487.69 373.895 487.938 373.966 488.3 373.966V375.556L487.908 375.937ZM491.956 375.556L491.581 375.937C491.021 375.937 490.573 375.816 490.237 375.573C489.901 375.327 489.69 374.97 489.605 374.503C489.541 374.97 489.366 375.327 489.078 375.573C488.791 375.816 488.404 375.937 487.919 375.937V374.307L488.3 373.966C488.666 373.966 488.921 373.886 489.067 373.725C489.213 373.561 489.285 373.288 489.285 372.908V371.636H490.993V372.908C490.993 373.314 491.062 373.593 491.201 373.742C491.339 373.891 491.591 373.966 491.956 373.966V375.556ZM490.814 377.46C490.814 377.699 490.732 377.901 490.568 378.065C490.407 378.229 490.206 378.311 489.963 378.311C489.717 378.311 489.511 378.229 489.347 378.065C489.183 377.904 489.101 377.703 489.101 377.46C489.101 377.214 489.183 377.008 489.347 376.844C489.511 376.684 489.717 376.603 489.963 376.603C490.206 376.603 490.407 376.684 490.568 376.844C490.732 377.008 490.814 377.214 490.814 377.46ZM492.892 375.937H491.581V374.307L491.962 373.966H492.892C494.038 373.966 494.964 373.802 495.669 373.473L496.447 373.126C496.679 373.021 496.843 372.952 496.94 372.919C496.683 372.866 496.399 372.799 496.089 372.717L495.16 372.437C494.771 372.333 494.482 372.28 494.292 372.28C494.135 372.28 494.004 372.323 493.9 372.409C493.799 372.495 493.733 372.613 493.704 372.762H492.225C492.236 371.993 492.425 371.392 492.791 370.959C493.157 370.522 493.657 370.304 494.292 370.304C494.62 370.304 495.113 370.408 495.77 370.617L497.584 371.155C498.006 371.3 498.342 371.399 498.592 371.452C498.842 371.5 499.135 371.524 499.471 371.524H499.751V373.244H499.371C498.993 373.244 498.663 373.309 498.379 373.44C498.096 373.57 497.67 373.833 497.103 374.229L496.24 374.834C495.609 375.274 495.072 375.569 494.628 375.719C494.183 375.864 493.605 375.937 492.892 375.937ZM496.8 377.46C496.8 377.703 496.72 377.904 496.559 378.065C496.403 378.229 496.201 378.311 495.955 378.311C495.712 378.311 495.507 378.229 495.339 378.065C495.174 377.901 495.092 377.699 495.092 377.46C495.092 377.214 495.174 377.008 495.339 376.844C495.507 376.684 495.712 376.603 495.955 376.603C496.201 376.603 496.403 376.684 496.559 376.844C496.72 377.008 496.8 377.214 496.8 377.46ZM505.485 374.884C505.485 375.347 505.448 375.771 505.373 376.155C505.299 376.54 505.177 376.893 505.009 377.214C504.845 377.535 504.638 377.807 504.388 378.031C504.138 378.255 503.828 378.429 503.458 378.552C503.092 378.675 502.678 378.737 502.215 378.737C501.629 378.737 501.037 378.668 500.44 378.53V376.704C501.049 376.842 501.625 376.911 502.17 376.911C502.82 376.911 503.302 376.831 503.615 376.671C503.932 376.51 504.136 376.228 504.226 375.825C503.904 375.993 503.408 376.077 502.736 376.077C501.948 376.077 501.334 375.864 500.894 375.439C500.453 375.013 500.233 374.418 500.233 373.652C500.233 373.152 500.347 372.678 500.574 372.23C500.806 371.778 501.125 371.414 501.532 371.138C501.939 370.858 502.381 370.718 502.859 370.718C503.643 370.718 504.276 371.086 504.757 371.821C505.243 372.553 505.485 373.574 505.485 374.884ZM501.493 373.44C501.493 373.88 501.883 374.1 502.663 374.1C503.275 374.1 503.781 374.059 504.181 373.977C503.931 373.096 503.369 372.656 502.495 372.656C502.189 372.656 501.945 372.732 501.762 372.885C501.582 373.038 501.493 373.223 501.493 373.44ZM511.908 374.722C511.908 376.103 511.664 377.117 511.175 377.763C510.686 378.412 509.917 378.737 508.868 378.737C508.521 378.737 508.173 378.716 507.826 378.675V376.671C508.177 376.73 508.509 376.76 508.823 376.76C509.331 376.76 509.693 376.607 509.909 376.301C510.126 375.995 510.234 375.491 510.234 374.789C510.234 374.378 510.199 373.901 510.128 373.356L509.926 371.636L514.775 371.233L514.971 373.025C515.012 373.387 515.106 373.636 515.251 373.77C515.397 373.901 515.658 373.966 516.035 373.966V375.556L515.66 375.937C514.91 375.937 514.361 375.747 514.014 375.366C513.667 374.981 513.428 374.304 513.297 373.333L511.841 373.451C511.886 374.033 511.908 374.457 511.908 374.722ZM515.47 377.068C515.604 377.206 515.671 377.38 515.671 377.589C515.671 377.798 515.604 377.97 515.47 378.104C515.335 378.242 515.162 378.311 514.949 378.311C514.744 378.311 514.572 378.242 514.434 378.104C514.296 377.966 514.227 377.794 514.227 377.589C514.227 377.384 514.296 377.212 514.434 377.074C514.572 376.936 514.744 376.867 514.949 376.867C515.162 376.867 515.335 376.934 515.47 377.068ZM513.745 377.068C513.879 377.206 513.947 377.38 513.947 377.589C513.947 377.798 513.879 377.97 513.745 378.104C513.611 378.242 513.437 378.311 513.224 378.311C513.019 378.311 512.847 378.242 512.709 378.104C512.571 377.966 512.502 377.794 512.502 377.589C512.502 377.384 512.571 377.212 512.709 377.074C512.847 376.936 513.019 376.867 513.224 376.867C513.437 376.867 513.611 376.934 513.745 377.068ZM519.261 366.574C519.421 366.735 519.502 366.938 519.502 367.185C519.502 367.431 519.421 367.634 519.261 367.795C519.1 367.956 518.899 368.036 518.656 368.036C518.41 368.036 518.204 367.956 518.04 367.795C517.876 367.634 517.794 367.431 517.794 367.185C517.794 366.938 517.876 366.735 518.04 366.574C518.204 366.41 518.41 366.328 518.656 366.328C518.899 366.328 519.1 366.41 519.261 366.574ZM518.438 375.937H515.66V374.307L516.041 373.966H518.538C519.188 373.966 519.634 373.917 519.877 373.82C520.119 373.72 520.267 373.503 520.319 373.171C519.909 373.331 519.315 373.412 518.538 373.412C517.825 373.412 517.267 373.236 516.864 372.885C516.461 372.531 516.259 372.045 516.259 371.429C516.259 370.955 516.373 370.509 516.601 370.091C516.832 369.669 517.142 369.333 517.53 369.083C517.919 368.829 518.335 368.702 518.779 368.702C519.563 368.702 520.216 369.07 520.739 369.805C521.262 370.541 521.523 371.502 521.523 372.689C521.523 373.835 521.282 374.664 520.801 375.175C520.323 375.683 519.535 375.937 518.438 375.937ZM517.519 371.317C517.519 371.698 517.887 371.888 518.622 371.888C519.25 371.888 519.772 371.862 520.19 371.81C520.052 371.418 519.83 371.112 519.524 370.892C519.218 370.668 518.882 370.556 518.516 370.556C518.202 370.556 517.958 370.63 517.782 370.78C517.607 370.925 517.519 371.104 517.519 371.317ZM527.744 375.556L527.38 375.915C527.242 376.807 526.912 377.499 526.389 377.992C525.867 378.489 525.129 378.737 524.177 378.737C523.591 378.737 523 378.668 522.402 378.53V376.704C523.011 376.842 523.588 376.911 524.133 376.911C524.752 376.911 525.219 376.839 525.532 376.693C525.846 376.547 526.057 376.295 526.165 375.937H524.821C523.974 375.937 523.324 375.734 522.873 375.327C522.421 374.92 522.195 374.358 522.195 373.641C522.195 373.13 522.309 372.65 522.537 372.202C522.768 371.754 523.085 371.396 523.489 371.127C523.896 370.854 524.34 370.718 524.821 370.718C525.504 370.718 526.078 371.002 526.54 371.569C527.003 372.133 527.291 372.932 527.403 373.966H527.744V375.556ZM524.581 373.966H526.132C526.005 373.514 525.792 373.169 525.493 372.93C525.195 372.687 524.833 372.566 524.407 372.566C524.131 372.566 523.903 372.644 523.724 372.801C523.545 372.954 523.455 373.139 523.455 373.356C523.455 373.565 523.545 373.72 523.724 373.82C523.903 373.917 524.189 373.966 524.581 373.966ZM530.897 369.469C530.897 369.675 530.828 369.845 530.69 369.979C530.555 370.113 530.384 370.18 530.175 370.18C529.969 370.18 529.798 370.113 529.659 369.979C529.521 369.841 529.452 369.671 529.452 369.469C529.452 369.257 529.52 369.081 529.654 368.943C529.792 368.805 529.966 368.736 530.175 368.736C530.387 368.736 530.561 368.805 530.695 368.943C530.83 369.081 530.897 369.257 530.897 369.469ZM529.189 369.469C529.189 369.671 529.12 369.841 528.982 369.979C528.844 370.113 528.672 370.18 528.467 370.18C528.254 370.18 528.079 370.113 527.94 369.979C527.802 369.841 527.733 369.671 527.733 369.469C527.733 369.257 527.802 369.081 527.94 368.943C528.079 368.805 528.254 368.736 528.467 368.736C528.676 368.736 528.848 368.805 528.982 368.943C529.12 369.081 529.189 369.257 529.189 369.469ZM527.907 375.937H527.364V374.307L527.744 373.966C528.114 373.966 528.368 373.878 528.506 373.703C528.648 373.524 528.719 373.217 528.719 372.784C528.719 372.37 528.665 371.72 528.556 370.836H530.281C530.378 371.747 530.427 372.499 530.427 373.092C530.427 374.014 530.212 374.72 529.783 375.209C529.353 375.694 528.728 375.937 527.907 375.937Z" fill="#14151A"/>
<rect x="558.303" y="354.762" width="165.525" height="104.696" rx="9.1746" fill="white"/>
<path d="M609.411 367.655C609.411 367.898 609.331 368.101 609.17 368.265C609.01 368.426 608.806 368.506 608.56 368.506C608.314 368.506 608.108 368.426 607.944 368.265C607.78 368.101 607.698 367.898 607.698 367.655C607.698 367.409 607.78 367.205 607.944 367.045C608.108 366.88 608.314 366.798 608.56 366.798C608.806 366.798 609.01 366.88 609.17 367.045C609.331 367.205 609.411 367.409 609.411 367.655ZM607.434 367.655C607.434 367.898 607.352 368.101 607.188 368.265C607.027 368.426 606.824 368.506 606.578 368.506C606.335 368.506 606.13 368.424 605.962 368.26C605.797 368.096 605.715 367.894 605.715 367.655C605.715 367.409 605.797 367.205 605.962 367.045C606.13 366.88 606.335 366.798 606.578 366.798C606.824 366.798 607.027 366.88 607.188 367.045C607.352 367.205 607.434 367.409 607.434 367.655ZM610.783 375.556L610.408 375.937C609.728 375.937 609.224 375.818 608.896 375.579C608.571 375.336 608.364 374.944 608.274 374.403C608.133 374.828 607.914 375.142 607.619 375.343C607.324 375.541 606.942 375.64 606.471 375.64C605.822 375.64 605.318 375.452 604.959 375.075C604.601 374.698 604.422 374.171 604.422 373.496C604.422 372.906 604.593 372.392 604.937 371.956C605.284 371.515 605.781 371.168 606.426 370.914L608.112 370.259V369.15H609.949V373.025C609.949 373.369 610.01 373.611 610.133 373.753C610.26 373.895 610.477 373.966 610.783 373.966V375.556ZM605.76 373.115C605.76 373.29 605.833 373.425 605.978 373.518C606.128 373.608 606.376 373.652 606.723 373.652C607.179 373.652 607.524 373.576 607.759 373.423C607.994 373.27 608.112 373.018 608.112 372.667V371.715L606.667 372.292C606.331 372.426 606.096 372.555 605.962 372.678C605.827 372.801 605.76 372.947 605.76 373.115ZM614.445 375.556L614.07 375.937C613.51 375.937 613.062 375.816 612.726 375.573C612.39 375.327 612.179 374.97 612.093 374.503C612.03 374.97 611.854 375.327 611.567 375.573C611.28 375.816 610.893 375.937 610.408 375.937V374.307L610.789 373.966C611.154 373.966 611.41 373.886 611.556 373.725C611.701 373.561 611.774 373.288 611.774 372.908V371.636H613.482V372.908C613.482 373.314 613.551 373.593 613.689 373.742C613.827 373.891 614.079 373.966 614.445 373.966V375.556ZM613.863 377.074C614.001 377.212 614.07 377.384 614.07 377.589C614.07 377.794 614.001 377.966 613.863 378.104C613.725 378.242 613.553 378.311 613.348 378.311C613.142 378.311 612.971 378.242 612.833 378.104C612.694 377.966 612.625 377.794 612.625 377.589C612.625 377.384 612.694 377.212 612.833 377.074C612.971 376.936 613.142 376.867 613.348 376.867C613.553 376.867 613.725 376.936 613.863 377.074ZM612.144 377.074C612.282 377.212 612.351 377.384 612.351 377.589C612.351 377.794 612.282 377.966 612.144 378.104C612.009 378.242 611.838 378.311 611.629 378.311C611.42 378.311 611.246 378.242 611.108 378.104C610.97 377.966 610.901 377.794 610.901 377.589C610.901 377.384 610.97 377.212 611.108 377.074C611.246 376.936 611.42 376.867 611.629 376.867C611.838 376.867 612.009 376.936 612.144 377.074ZM623.041 373.277C623.041 374.184 622.834 374.879 622.419 375.36C622.009 375.838 621.443 376.077 620.723 376.077C620.267 376.077 619.868 375.967 619.524 375.747C619.181 375.523 618.961 375.218 618.863 374.834C618.8 375.233 618.647 375.541 618.404 375.758C618.162 375.971 617.842 376.077 617.447 376.077C617.006 376.077 616.64 375.958 616.349 375.719C616.062 375.48 615.877 375.144 615.795 374.711C615.724 375.106 615.543 375.411 615.252 375.623C614.96 375.832 614.567 375.937 614.07 375.937V374.307L614.451 373.966C614.802 373.966 615.058 373.889 615.218 373.736C615.379 373.583 615.459 373.335 615.459 372.992V372.437H617.167V372.992C617.167 373.354 617.219 373.619 617.324 373.787C617.428 373.951 617.594 374.033 617.822 374.033C618.236 374.033 618.443 373.686 618.443 372.992L618.432 372.437H620.14L620.151 372.992C620.151 373.339 620.207 373.6 620.319 373.776C620.431 373.947 620.577 374.033 620.756 374.033C621.141 374.033 621.333 373.762 621.333 373.221C621.333 372.814 621.26 372.282 621.115 371.625H622.867C622.983 372.237 623.041 372.788 623.041 373.277ZM625.83 375.937H624.01V367.302H625.83V375.937ZM629.749 374.615C629.749 376.034 629.507 377.076 629.021 377.74C628.536 378.405 627.769 378.737 626.72 378.737C626.373 378.737 626.026 378.716 625.678 378.675V376.671C626.029 376.73 626.361 376.76 626.675 376.76C627.179 376.76 627.539 376.598 627.756 376.273C627.976 375.952 628.086 375.424 628.086 374.688C628.086 373.822 627.903 372.622 627.537 371.088H629.324C629.607 372.323 629.749 373.499 629.749 374.615ZM636.822 373.54C636.822 374.414 636.56 375.058 636.038 375.472C635.519 375.883 634.709 376.088 633.608 376.088C633.137 376.088 632.743 376.036 632.426 375.931C632.112 375.827 631.862 375.663 631.676 375.439C631.489 375.211 631.356 374.938 631.278 374.621C631.2 374.304 631.159 373.914 631.155 373.451H632.712C632.723 373.615 632.755 373.742 632.807 373.832C632.863 373.921 632.964 373.99 633.109 374.039C633.259 374.087 633.468 374.111 633.736 374.111C634.274 374.111 634.662 374.069 634.901 373.983C635.14 373.897 635.259 373.764 635.259 373.585C635.267 373.354 635.091 373.077 634.733 372.756C634.375 372.435 633.697 371.944 632.7 371.284L633.725 369.559C634.927 370.395 635.745 371.093 636.178 371.653C636.615 372.209 636.829 372.838 636.822 373.54ZM646.297 370.556C646.297 370.798 646.214 371.002 646.05 371.166C645.89 371.327 645.69 371.407 645.451 371.407C645.205 371.407 644.997 371.325 644.829 371.16C644.661 370.996 644.577 370.795 644.577 370.556C644.577 370.309 644.661 370.104 644.829 369.94C644.997 369.772 645.205 369.688 645.451 369.688C645.69 369.688 645.89 369.772 646.05 369.94C646.214 370.104 646.297 370.309 646.297 370.556ZM644.314 370.556C644.314 370.798 644.232 371.002 644.068 371.166C643.907 371.327 643.706 371.407 643.463 371.407C643.217 371.407 643.01 371.327 642.842 371.166C642.677 371.002 642.595 370.798 642.595 370.556C642.595 370.309 642.677 370.104 642.842 369.94C643.01 369.772 643.217 369.688 643.463 369.688C643.706 369.688 643.907 369.772 644.068 369.94C644.232 370.104 644.314 370.309 644.314 370.556ZM649.304 373.014C649.304 374.07 648.912 374.845 648.128 375.338C647.347 375.831 646.127 376.077 644.465 376.077C642.767 376.077 641.539 375.819 640.781 375.304C640.023 374.785 639.644 373.953 639.644 372.807C639.644 372.236 639.709 371.711 639.84 371.233H641.526C641.421 371.696 641.369 372.09 641.369 372.415C641.369 372.997 641.604 373.412 642.074 373.658C642.548 373.901 643.345 374.022 644.465 374.022C645.645 374.022 646.461 373.934 646.913 373.759C647.368 373.58 647.596 373.255 647.596 372.784C647.596 372.321 647.53 371.672 647.4 370.836H649.13C649.246 371.664 649.304 372.391 649.304 373.014ZM652.619 375.937H652.462C651.667 375.937 651.096 375.732 650.748 375.321C650.405 374.91 650.233 374.263 650.233 373.378V367.302H652.07V372.958C652.07 373.342 652.135 373.608 652.266 373.753C652.4 373.895 652.649 373.966 653.011 373.966V375.556L652.619 375.937ZM659.271 373.574C659.271 374.362 659.051 374.976 658.61 375.416C658.174 375.857 657.561 376.077 656.774 376.077C656.292 376.077 655.842 376.006 655.424 375.864C655.01 375.722 654.664 375.513 654.388 375.237C654.175 375.483 653.929 375.663 653.649 375.775C653.369 375.883 653.029 375.937 652.63 375.937V374.307L653.011 373.966C653.306 373.966 653.533 373.902 653.694 373.776C653.858 373.645 654.02 373.402 654.181 373.048L654.489 372.46C654.78 371.862 655.114 371.424 655.491 371.144C655.868 370.86 656.329 370.718 656.874 370.718C657.569 370.718 658.142 370.983 658.594 371.513C659.045 372.04 659.271 372.726 659.271 373.574ZM656.93 372.656C656.512 372.656 656.171 372.732 655.906 372.885C655.641 373.034 655.424 373.283 655.256 373.63C655.48 373.779 655.747 373.895 656.057 373.977C656.37 374.059 656.678 374.1 656.981 374.1C657.343 374.1 657.606 374.05 657.77 373.949C657.938 373.848 658.022 373.686 658.022 373.462C658.022 373.223 657.922 373.029 657.72 372.88C657.522 372.73 657.259 372.656 656.93 372.656ZM662.396 370.136C662.396 370.382 662.314 370.586 662.149 370.746C661.989 370.903 661.787 370.981 661.545 370.981C661.295 370.981 661.085 370.903 660.917 370.746C660.753 370.586 660.671 370.382 660.671 370.136C660.671 369.893 660.755 369.69 660.923 369.525C661.091 369.357 661.298 369.273 661.545 369.273C661.784 369.273 661.985 369.357 662.149 369.525C662.314 369.69 662.396 369.893 662.396 370.136ZM663.611 375.937C663.062 375.937 662.668 375.754 662.429 375.388C662.351 377.621 661.505 378.737 659.893 378.737C659.497 378.737 659.154 378.716 658.862 378.675V376.693C659.303 376.738 659.581 376.76 659.697 376.76C660.175 376.76 660.546 376.594 660.811 376.262C661.08 375.93 661.214 375.405 661.214 374.688C661.214 373.874 661.087 372.857 660.833 371.636H662.609L662.782 372.728C662.849 373.195 662.973 373.518 663.152 373.697C663.335 373.876 663.613 373.966 663.986 373.966V375.556L663.611 375.937ZM667.693 375.556L667.312 375.937C666.121 375.937 665.436 375.444 665.257 374.459C665.194 374.937 665.02 375.302 664.736 375.556C664.456 375.81 664.079 375.937 663.605 375.937V374.307L663.986 373.966C664.33 373.966 664.57 373.886 664.708 373.725C664.847 373.561 664.916 373.288 664.916 372.908V367.302H666.752V372.908C666.752 373.337 666.814 373.621 666.937 373.759C667.064 373.897 667.316 373.966 667.693 373.966V375.556ZM671.12 370.27C671.12 370.472 671.051 370.642 670.913 370.78C670.775 370.914 670.603 370.981 670.398 370.981C670.192 370.981 670.021 370.914 669.883 370.78C669.744 370.642 669.675 370.472 669.675 370.27C669.675 370.057 669.743 369.882 669.877 369.744C670.015 369.606 670.189 369.537 670.398 369.537C670.607 369.537 670.779 369.606 670.913 369.744C671.051 369.882 671.12 370.057 671.12 370.27ZM669.401 370.27C669.401 370.472 669.332 370.642 669.194 370.78C669.059 370.914 668.888 370.981 668.679 370.981C668.473 370.981 668.302 370.914 668.164 370.78C668.025 370.642 667.956 370.472 667.956 370.27C667.956 370.057 668.024 369.882 668.158 369.744C668.296 369.606 668.47 369.537 668.679 369.537C668.891 369.537 669.065 369.606 669.199 369.744C669.334 369.882 669.401 370.057 669.401 370.27ZM671.35 375.556L670.975 375.937C670.415 375.937 669.967 375.816 669.631 375.573C669.295 375.327 669.084 374.97 668.998 374.503C668.934 374.97 668.759 375.327 668.471 375.573C668.184 375.816 667.798 375.937 667.312 375.937V374.307L667.693 373.966C668.059 373.966 668.315 373.886 668.46 373.725C668.606 373.561 668.679 373.288 668.679 372.908V371.636H670.387V372.908C670.387 373.314 670.456 373.593 670.594 373.742C670.732 373.891 670.984 373.966 671.35 373.966V375.556ZM680.567 375.937C680.055 375.937 679.639 375.819 679.318 375.584C678.997 375.349 678.794 375.015 678.708 374.582C678.652 375.06 678.497 375.429 678.243 375.691C677.989 375.948 677.659 376.077 677.252 376.077C676.879 376.077 676.558 375.971 676.289 375.758C676.02 375.545 675.843 375.25 675.757 374.873C675.693 375.261 675.54 375.56 675.298 375.769C675.055 375.974 674.739 376.077 674.351 376.077C673.911 376.077 673.545 375.958 673.254 375.719C672.966 375.48 672.781 375.144 672.699 374.711C672.628 375.106 672.445 375.411 672.151 375.623C671.859 375.832 671.467 375.937 670.975 375.937V374.307L671.355 373.966C671.706 373.966 671.962 373.889 672.123 373.736C672.283 373.583 672.363 373.335 672.363 372.992V372.437H674.071V372.992C674.071 373.354 674.123 373.619 674.228 373.787C674.333 373.951 674.499 374.033 674.726 374.033C675.141 374.033 675.348 373.686 675.348 372.992L675.337 372.437H677.045L677.056 372.992C677.056 373.686 677.257 374.033 677.661 374.033C678.075 374.033 678.282 373.686 678.282 372.992V372.04H679.99V372.992C679.99 373.339 680.063 373.589 680.209 373.742C680.354 373.891 680.599 373.966 680.942 373.966V375.556L680.567 375.937ZM687.203 373.574C687.203 374.362 686.982 374.976 686.542 375.416C686.105 375.857 685.493 376.077 684.705 376.077C684.224 376.077 683.774 376.006 683.356 375.864C682.941 375.722 682.596 375.513 682.32 375.237C682.107 375.483 681.86 375.663 681.58 375.775C681.3 375.883 680.961 375.937 680.561 375.937V374.307L680.942 373.966C681.237 373.966 681.465 373.902 681.625 373.776C681.79 373.645 681.952 373.402 682.112 373.048L682.42 372.46C682.712 371.862 683.046 371.424 683.423 371.144C683.8 370.86 684.261 370.718 684.806 370.718C685.5 370.718 686.073 370.983 686.525 371.513C686.977 372.04 687.203 372.726 687.203 373.574ZM684.862 372.656C684.444 372.656 684.102 372.732 683.837 372.885C683.572 373.034 683.356 373.283 683.188 373.63C683.412 373.779 683.679 373.895 683.988 373.977C684.302 374.059 684.61 374.1 684.912 374.1C685.274 374.1 685.538 374.05 685.702 373.949C685.87 373.848 685.954 373.686 685.954 373.462C685.954 373.223 685.853 373.029 685.651 372.88C685.454 372.73 685.19 372.656 684.862 372.656ZM694.583 371.026C694.583 371.269 694.501 371.472 694.337 371.636C694.172 371.797 693.971 371.877 693.732 371.877C693.486 371.877 693.28 371.797 693.116 371.636C692.955 371.472 692.875 371.269 692.875 371.026C692.875 370.78 692.955 370.576 693.116 370.416C693.28 370.251 693.486 370.169 693.732 370.169C693.975 370.169 694.176 370.251 694.337 370.416C694.501 370.576 694.583 370.78 694.583 371.026ZM697.473 374.403C697.473 375.597 697.15 376.521 696.504 377.175C695.858 377.832 694.955 378.16 693.793 378.16C692.599 378.16 691.694 377.876 691.078 377.309C690.462 376.742 690.146 375.898 690.131 374.778C690.12 374.289 690.178 373.677 690.305 372.941H691.979C691.875 373.479 691.828 373.908 691.839 374.229C691.839 374.853 692.009 375.323 692.349 375.64C692.688 375.954 693.192 376.111 693.861 376.111C694.592 376.111 695.13 375.98 695.473 375.719C695.821 375.454 695.994 375.034 695.994 374.459C695.994 374.324 695.962 373.957 695.899 373.356L695.697 371.636L700.351 371.233L700.547 373.025C700.588 373.387 700.681 373.636 700.827 373.77C700.972 373.901 701.234 373.966 701.611 373.966V375.556L701.236 375.937C700.485 375.937 699.936 375.745 699.589 375.36C699.242 374.976 699.003 374.296 698.872 373.322L697.417 373.462C697.454 373.854 697.473 374.167 697.473 374.403ZM700.905 377.068C701.04 377.206 701.107 377.38 701.107 377.589C701.107 377.798 701.04 377.97 700.905 378.104C700.771 378.242 700.601 378.311 700.396 378.311C700.183 378.311 700.007 378.242 699.869 378.104C699.731 377.97 699.662 377.798 699.662 377.589C699.662 377.38 699.731 377.206 699.869 377.068C700.007 376.934 700.183 376.867 700.396 376.867C700.601 376.867 700.771 376.934 700.905 377.068ZM699.192 377.074C699.33 377.212 699.399 377.384 699.399 377.589C699.399 377.794 699.33 377.966 699.192 378.104C699.054 378.242 698.882 378.311 698.676 378.311C698.467 378.311 698.292 378.242 698.15 378.104C698.012 377.966 697.943 377.794 697.943 377.589C697.943 377.384 698.012 377.212 698.15 377.074C698.292 376.936 698.467 376.867 698.676 376.867C698.882 376.867 699.054 376.936 699.192 377.074ZM707.877 373.574C707.877 374.362 707.657 374.976 707.216 375.416C706.779 375.857 706.167 376.077 705.379 376.077C704.898 376.077 704.448 376.006 704.03 375.864C703.615 375.722 703.27 375.513 702.994 375.237C702.781 375.483 702.535 375.663 702.255 375.775C701.975 375.883 701.635 375.937 701.236 375.937V374.307L701.616 373.966C701.911 373.966 702.139 373.902 702.299 373.776C702.464 373.645 702.626 373.402 702.787 373.048L703.095 372.46C703.386 371.862 703.72 371.424 704.097 371.144C704.474 370.86 704.935 370.718 705.48 370.718C706.175 370.718 706.748 370.983 707.199 371.513C707.651 372.04 707.877 372.726 707.877 373.574ZM705.536 372.656C705.118 372.656 704.776 372.732 704.511 372.885C704.246 373.034 704.03 373.283 703.862 373.63C704.086 373.779 704.353 373.895 704.663 373.977C704.976 374.059 705.284 374.1 705.587 374.1C705.949 374.1 706.212 374.05 706.376 373.949C706.544 373.848 706.628 373.686 706.628 373.462C706.628 373.223 706.527 373.029 706.326 372.88C706.128 372.73 705.865 372.656 705.536 372.656ZM711.046 368.232L708.375 368.618V367.621L708.762 367.565C708.601 367.382 708.521 367.153 708.521 366.877C708.528 366.533 708.648 366.248 708.879 366.02C709.114 365.788 709.407 365.673 709.758 365.673C710.083 365.673 710.343 365.772 710.537 365.969C710.731 366.167 710.839 366.444 710.861 366.798L710.229 366.888C710.132 366.735 709.971 366.658 709.747 366.658C709.441 366.658 709.288 366.761 709.288 366.966C709.288 367.112 709.372 367.226 709.54 367.308C709.712 367.386 709.919 367.407 710.162 367.369L711.046 367.246V368.232ZM711.617 375.556L711.242 375.937C710.372 375.937 709.756 375.713 709.394 375.265C709.036 374.813 708.857 374.044 708.857 372.958V369.066H710.677V372.958C710.677 373.324 710.748 373.583 710.889 373.736C711.035 373.889 711.278 373.966 711.617 373.966V375.556ZM714.77 369.469C714.77 369.675 714.701 369.845 714.563 369.979C714.428 370.113 714.257 370.18 714.048 370.18C713.842 370.18 713.671 370.113 713.533 369.979C713.394 369.841 713.325 369.671 713.325 369.469C713.325 369.257 713.393 369.081 713.527 368.943C713.665 368.805 713.839 368.736 714.048 368.736C714.261 368.736 714.434 368.805 714.568 368.943C714.703 369.081 714.77 369.257 714.77 369.469ZM713.062 369.469C713.062 369.671 712.993 369.841 712.855 369.979C712.717 370.113 712.545 370.18 712.34 370.18C712.127 370.18 711.952 370.113 711.813 369.979C711.675 369.841 711.606 369.671 711.606 369.469C711.606 369.257 711.675 369.081 711.813 368.943C711.952 368.805 712.127 368.736 712.34 368.736C712.549 368.736 712.721 368.805 712.855 368.943C712.993 369.081 713.062 369.257 713.062 369.469ZM711.78 375.937H711.237V374.307L711.617 373.966C711.987 373.966 712.241 373.878 712.379 373.703C712.521 373.524 712.592 373.217 712.592 372.784C712.592 372.37 712.538 371.72 712.429 370.836H714.154C714.251 371.747 714.3 372.499 714.3 373.092C714.3 374.014 714.085 374.72 713.656 375.209C713.226 375.694 712.601 375.937 711.78 375.937Z" fill="#14151A"/>
</g>
</g>
<g clip-path="url(#clip13_2214_4028)">
<circle cx="125" cy="125" r="125" transform="matrix(-1 0 0 1 746 496)" fill="white"/>
<path d="M621 496C603.081 496 585.372 499.852 569.073 507.296C552.774 514.74 538.265 525.6 526.531 539.142C514.797 552.684 506.112 568.591 501.063 585.783C496.015 602.976 494.722 621.053 497.272 638.789C499.822 656.525 506.156 673.506 515.843 688.58C525.531 703.654 538.346 716.469 553.42 726.157C568.494 735.844 585.475 742.178 603.211 744.728C620.947 747.278 639.024 745.985 656.217 740.937L621 621V496Z" fill="#C0B765"/>
<path d="M656.217 740.937C685.069 732.465 709.9 713.877 726.157 688.58C742.414 663.284 749.007 632.975 744.728 603.211L621 621L656.217 740.937Z" fill="#C0B765" fill-opacity="0.75"/>
<path d="M744.728 603.211C742.178 585.474 735.844 568.494 726.157 553.42C716.469 538.346 703.654 525.531 688.58 515.843L621 621L744.728 603.211Z" fill="#C0B765" fill-opacity="0.5"/>
<path d="M688.58 515.843C668.421 502.888 644.963 496 621 496L621 621L688.58 515.843Z" fill="#C0B765" fill-opacity="0.25"/>
</g>
<defs>
<clipPath id="clip0_2214_4028">
<rect width="5.61944" height="5.61944" fill="white" transform="translate(560.748 7.43555)"/>
</clipPath>
<clipPath id="clip1_2214_4028">
<rect width="8.02778" height="8.02778" fill="white" transform="translate(204.928 6.30762)"/>
</clipPath>
<clipPath id="clip2_2214_4028">
<rect width="8.02778" height="8.02778" fill="white" transform="translate(254.701 6.30762)"/>
</clipPath>
<clipPath id="clip3_2214_4028">
<rect width="8.02778" height="8.02778" fill="white" transform="translate(715.494 6.30762)"/>
</clipPath>
<clipPath id="clip4_2214_4028">
<rect x="171.822" y="24.8477" width="570.354" height="346.724" rx="3.82275" fill="white"/>
</clipPath>
<clipPath id="clip5_2214_4028">
<rect width="41.2845" height="36.6984" fill="white" transform="translate(681.605 42.7007)"/>
</clipPath>
<clipPath id="clip6_2214_4028">
<rect width="570.354" height="379.562" fill="white" transform="translate(171.822 98.2446)"/>
</clipPath>
<clipPath id="clip7_2214_4028">
<rect x="190.172" y="133.419" width="533.656" height="167.819" rx="9.1746" fill="white"/>
</clipPath>
<clipPath id="clip8_2214_4028">
<path d="M190.172 133.419H323.586V301.238H190.172V133.419Z" fill="white"/>
</clipPath>
<clipPath id="clip9_2214_4028">
<path d="M323.586 133.419H457V301.238H323.586V133.419Z" fill="white"/>
</clipPath>
<clipPath id="clip10_2214_4028">
<path d="M457 133.419H590.414V301.238H457V133.419Z" fill="white"/>
</clipPath>
<clipPath id="clip11_2214_4028">
<path d="M590.414 133.419H723.828V301.238H590.414V133.419Z" fill="white"/>
</clipPath>
<clipPath id="clip12_2214_4028">
<rect width="533.274" height="167.819" fill="white" transform="translate(190.553 133.419)"/>
</clipPath>
<clipPath id="clip13_2214_4028">
<rect width="250" height="250" fill="white" transform="matrix(-1 0 0 1 746 496)"/>
</clipPath>
</defs>
</svg>
