<svg width="746" height="746" viewBox="0 0 746 746" fill="none" xmlns="http://www.w3.org/2000/svg">
<rect x="168" y="185" width="578" height="375.394" rx="8" fill="white"/>
<rect x="176.027" y="192.913" width="4.81667" height="4.81667" rx="2.40833" fill="#0A0F29" fill-opacity="0.25"/>
<rect x="184.055" y="192.913" width="4.81667" height="4.81667" rx="2.40833" fill="#0A0F29" fill-opacity="0.25"/>
<rect x="192.082" y="192.913" width="4.81667" height="4.81667" rx="2.40833" fill="#0A0F29" fill-opacity="0.25"/>
<rect x="343.846" y="188.823" width="225.925" height="12.9974" rx="3.21111" fill="#0A0F29" fill-opacity="0.04"/>
<path d="M731.211 195.324C731.211 195.488 731.348 195.621 731.507 195.621H733.663V197.777C733.663 197.937 733.796 198.073 733.96 198.073C734.123 198.073 734.26 197.937 734.26 197.777V195.621H736.412C736.572 195.621 736.708 195.488 736.708 195.324C736.708 195.161 736.572 195.025 736.412 195.025H734.26V192.872C734.26 192.712 734.123 192.576 733.96 192.576C733.796 192.576 733.663 192.712 733.663 192.872V195.025H731.507C731.348 195.025 731.211 195.161 731.211 195.324Z" fill="#0D1126" fill-opacity="0.4"/>
<rect x="171.822" y="209.848" width="570.354" height="346.724" rx="9.29759" fill="#FAFAF9"/>
<path d="M205.465 236.355C207.717 236.355 209.543 238.181 209.543 240.433C209.543 241.176 209.344 241.872 208.996 242.473L213.62 242.471V244.51H211.581V254.704C211.581 255.267 211.125 255.724 210.562 255.724H194.252C193.689 255.724 193.232 255.267 193.232 254.704V244.51H191.193V242.471L195.817 242.473C195.47 241.872 195.271 241.176 195.271 240.433C195.271 238.181 197.097 236.355 199.349 236.355C200.567 236.355 201.661 236.889 202.408 237.737C203.153 236.889 204.247 236.355 205.465 236.355ZM201.387 244.51H195.271V253.685H201.387V244.51ZM209.543 244.51H203.426V253.685H209.543V244.51ZM199.349 238.394C198.223 238.394 197.31 239.307 197.31 240.433C197.31 241.507 198.141 242.388 199.196 242.466L199.349 242.471H201.387V240.433C201.387 239.411 200.637 238.566 199.657 238.417L199.501 238.399L199.349 238.394ZM205.465 238.394C204.39 238.394 203.51 239.225 203.432 240.28L203.426 240.433V242.471H205.465C206.54 242.471 207.42 241.64 207.498 240.585L207.504 240.433C207.504 239.307 206.591 238.394 205.465 238.394Z" fill="#2F7266"/>
<path d="M237.064 256.74C237.064 252.236 240.716 248.585 245.22 248.585C249.724 248.585 253.375 252.236 253.375 256.74H251.336C251.336 253.362 248.598 250.624 245.22 250.624C241.842 250.624 239.103 253.362 239.103 256.74H237.064ZM245.22 247.566C241.84 247.566 239.103 244.829 239.103 241.449C239.103 238.07 241.84 235.333 245.22 235.333C248.599 235.333 251.336 238.07 251.336 241.449C251.336 244.829 248.599 247.566 245.22 247.566ZM245.22 245.527C247.473 245.527 249.297 243.702 249.297 241.449C249.297 239.197 247.473 237.372 245.22 237.372C242.967 237.372 241.142 239.197 241.142 241.449C241.142 243.702 242.967 245.527 245.22 245.527Z" fill="#2F7266"/>
<g clip-path="url(#clip0_2214_3886)">
<path d="M713.715 246.048C713.715 249.443 715.56 252.404 718.301 253.99V255.22H713.715V264.395C718.783 264.395 722.89 260.288 722.89 255.22V236.875H713.715V246.051V246.048Z" fill="#428277"/>
<path d="M686.192 236.876C686.192 240.271 688.036 243.233 690.778 244.819V246.048H681.605V255.224H686.192C691.26 255.224 695.367 251.117 695.367 246.048V236.873H686.192V236.876Z" fill="#428277"/>
<path d="M722.89 227.701H713.715V232.287H722.89V227.701Z" fill="#428277"/>
<path d="M699.953 227.701C699.953 231.096 701.798 234.057 704.539 235.643V236.873H699.953V255.22C705.021 255.22 709.129 251.113 709.129 246.045V227.701H699.953Z" fill="#428277"/>
</g>
<g clip-path="url(#clip1_2214_3886)">
<rect x="190.172" y="283.245" width="165.525" height="167.819" rx="21.6944" fill="white"/>
<rect x="197.92" y="290.993" width="150.029" height="112.187" rx="12.3968" fill="#0A0F29" fill-opacity="0.04"/>
<path d="M324.154 415.755C324.154 413.089 326.316 410.927 328.982 410.927H343.121C345.787 410.927 347.949 413.089 347.949 415.755V415.755C347.949 418.422 345.787 420.583 343.121 420.583H328.982C326.316 420.583 324.154 418.422 324.154 415.755V415.755Z" fill="#A78BFA"/>
<g clip-path="url(#clip2_2214_3886)">
<rect x="260.396" y="428.331" width="87.5523" height="6.19839" rx="3.0992" fill="#0D1126" fill-opacity="0.4"/>
</g>
<rect x="374.045" y="283.245" width="165.525" height="167.819" rx="21.6944" fill="white"/>
<rect x="381.793" y="290.993" width="150.029" height="112.187" rx="12.3968" fill="#0A0F29" fill-opacity="0.04"/>
<path d="M508.027 415.755C508.027 413.089 510.189 410.927 512.855 410.927H526.994C529.66 410.927 531.822 413.089 531.822 415.755V415.755C531.822 418.422 529.66 420.583 526.994 420.583H512.855C510.189 420.583 508.027 418.422 508.027 415.755V415.755Z" fill="#C0B765"/>
<g clip-path="url(#clip3_2214_3886)">
<rect x="444.27" y="428.331" width="87.5523" height="6.19839" rx="3.0992" fill="#0D1126" fill-opacity="0.4"/>
</g>
<rect x="557.92" y="284.39" width="165.525" height="165.528" rx="21.6944" fill="white"/>
<rect x="565.668" y="292.138" width="150.029" height="112.187" rx="12.3968" fill="#0A0F29" fill-opacity="0.04"/>
<path d="M691.902 416.901C691.902 414.234 694.064 412.073 696.73 412.073H710.869C713.535 412.073 715.697 414.234 715.697 416.901V416.901C715.697 419.567 713.535 421.729 710.869 421.729H696.73C694.064 421.729 691.902 419.567 691.902 416.901V416.901Z" fill="#A5CF4C"/>
<g clip-path="url(#clip4_2214_3886)">
<rect x="628.145" y="429.477" width="87.5523" height="6.19839" rx="3.0992" fill="#0D1126" fill-opacity="0.4"/>
</g>
<rect x="190.172" y="469.413" width="165.525" height="167.819" rx="21.6944" fill="white"/>
<rect x="197.92" y="477.161" width="150.029" height="112.187" rx="12.3968" fill="#0A0F29" fill-opacity="0.04"/>
<path d="M324.154 601.923C324.154 599.257 326.316 597.095 328.982 597.095H343.121C345.787 597.095 347.949 599.257 347.949 601.923V601.923C347.949 604.589 345.787 606.751 343.121 606.751H328.982C326.316 606.751 324.154 604.589 324.154 601.923V601.923Z" fill="#A5CF4C"/>
<g clip-path="url(#clip5_2214_3886)">
<rect x="260.396" y="614.499" width="87.5523" height="6.19839" rx="3.0992" fill="#0D1126" fill-opacity="0.4"/>
</g>
<rect x="374.045" y="469.413" width="165.525" height="167.819" rx="21.6944" fill="white"/>
<rect x="381.793" y="477.161" width="150.029" height="112.187" rx="12.3968" fill="#0A0F29" fill-opacity="0.04"/>
<path d="M508.027 601.923C508.027 599.257 510.189 597.095 512.855 597.095H526.994C529.66 597.095 531.822 599.257 531.822 601.923V601.923C531.822 604.589 529.66 606.751 526.994 606.751H512.855C510.189 606.751 508.027 604.589 508.027 601.923V601.923Z" fill="#A5CF4C"/>
<g clip-path="url(#clip6_2214_3886)">
<rect x="444.27" y="614.499" width="87.5523" height="6.19839" rx="3.0992" fill="#0D1126" fill-opacity="0.4"/>
</g>
<rect x="557.92" y="469.413" width="165.525" height="167.819" rx="21.6944" fill="white"/>
<rect x="565.668" y="477.161" width="150.029" height="112.187" rx="12.3968" fill="#0A0F29" fill-opacity="0.04"/>
<path d="M691.902 601.923C691.902 599.257 694.064 597.095 696.73 597.095H710.869C713.535 597.095 715.697 599.257 715.697 601.923V601.923C715.697 604.589 713.535 606.751 710.869 606.751H696.73C694.064 606.751 691.902 604.589 691.902 601.923V601.923Z" fill="#A78BFA"/>
<g clip-path="url(#clip7_2214_3886)">
<rect x="628.145" y="614.499" width="87.5523" height="6.19839" rx="3.0992" fill="#0D1126" fill-opacity="0.4"/>
</g>
</g>
<defs>
<clipPath id="clip0_2214_3886">
<rect width="41.2845" height="36.6984" fill="white" transform="translate(681.605 227.701)"/>
</clipPath>
<clipPath id="clip1_2214_3886">
<rect width="570.354" height="372.336" fill="white" transform="translate(171.822 283.245)"/>
</clipPath>
<clipPath id="clip2_2214_3886">
<rect x="260.396" y="428.331" width="87.5523" height="6.19839" rx="3.0992" fill="white"/>
</clipPath>
<clipPath id="clip3_2214_3886">
<rect x="444.27" y="428.331" width="87.5523" height="6.19839" rx="3.0992" fill="white"/>
</clipPath>
<clipPath id="clip4_2214_3886">
<rect x="628.145" y="429.477" width="87.5523" height="6.19839" rx="3.0992" fill="white"/>
</clipPath>
<clipPath id="clip5_2214_3886">
<rect x="260.396" y="614.499" width="87.5523" height="6.19839" rx="3.0992" fill="white"/>
</clipPath>
<clipPath id="clip6_2214_3886">
<rect x="444.27" y="614.499" width="87.5523" height="6.19839" rx="3.0992" fill="white"/>
</clipPath>
<clipPath id="clip7_2214_3886">
<rect x="628.145" y="614.499" width="87.5523" height="6.19839" rx="3.0992" fill="white"/>
</clipPath>
</defs>
</svg>
